<svg xmlns="http://www.w3.org/2000/svg" width="234.732" height="191.208" viewBox="0 0 234.732 191.208">
	<g transform="translate(-198 -2162)">
		<g transform="translate(324.775 2162)">
			<path d="M492.684-50.67a47.674,47.674,0,0,0,5.228.3,46.675,46.675,0,0,0,46.682-46.674,46.675,46.675,0,0,0-46.682-46.674,46.416,46.416,0,0,0-24.765,7.163c-1.778-38.606,20-76.314,60.366-92.023v-13C412.829-213.359,411.669-57.182,492.684-50.67Z" transform="translate(-436.637 241.574)" fill="rgba(25,163,154,0.23)"/>
		</g>
		<g transform="translate(198 2162)">
			<path d="M477.285-50.67a47.83,47.83,0,0,0,5.237.3A46.673,46.673,0,0,0,529.2-97.039a46.673,46.673,0,0,0-46.674-46.674,46.418,46.418,0,0,0-24.766,7.163c-1.786-38.606,19.99-76.314,60.366-92.023v-13C397.431-213.359,396.27-57.182,477.285-50.67Z" transform="translate(-421.239 241.574)" fill="rgba(25,163,154,0.23)"/>
		</g>
	</g>
</svg>