<?xml version="1.0" encoding="UTF-8"?><svg id="a" xmlns="http://www.w3.org/2000/svg" viewBox="0 0 831.41 61.28"><defs><style>.c{fill:#e72113;}</style></defs><rect id="b" class="c" x="331.64" width="1" height="59.2"/><g><path class="c" d="M36.71,43.07v8.64H2.09v-6.87L19.76,28.15c4.06-3.86,4.78-6.22,4.78-8.44,0-3.6-2.49-5.69-7.33-5.69-3.93,0-7.26,1.51-9.49,4.58L0,13.62C3.53,8.45,9.95,5.11,18.19,5.11c10.21,0,17.02,5.24,17.02,13.55,0,4.45-1.24,8.51-7.66,14.46l-10.54,9.95h19.7Z"/><path class="c" d="M75.72,37.31c0,8.11-5.96,15.18-19.04,15.18-6.35,0-13.02-1.77-17.47-4.91l4.19-8.12c3.47,2.62,8.25,4.12,13.02,4.12,5.3,0,8.57-2.22,8.57-5.96s-2.36-5.96-10.67-5.96h-11.71l2.36-25.79h27.94V14.4h-19.11l-.72,8.7h3.73c13.55,0,18.91,6.09,18.91,14.2Z"/></g><path class="c" d="M119.02,32.79h-11.39v11.13h-8.44v-11.13h-11.32v-7.98h11.32V13.68h8.44v11.13h11.39v7.98Z"/><g><path class="c" d="M137.83,30.12v6.53h-3.13v-6.53l-6.15-10.33h2.76c.27,0,.49,.07,.65,.2s.29,.3,.4,.5l3.08,5.63c.18,.33,.34,.65,.47,.94,.14,.3,.26,.59,.37,.89,.1-.3,.22-.59,.35-.89,.13-.3,.28-.61,.46-.94l3.07-5.63c.09-.17,.21-.33,.38-.48,.17-.15,.39-.22,.65-.22h2.78l-6.15,10.33Z"/><path class="c" d="M143.99,31.03c.05,.62,.16,1.15,.33,1.59s.4,.82,.68,1.11c.28,.29,.61,.51,1,.65,.38,.14,.81,.22,1.28,.22s.87-.05,1.21-.16c.34-.11,.63-.23,.89-.36,.25-.13,.47-.25,.66-.36,.19-.11,.38-.16,.55-.16,.24,0,.42,.09,.54,.27l.83,1.05c-.32,.37-.68,.69-1.07,.94s-.81,.46-1.24,.61c-.43,.15-.87,.26-1.32,.32-.45,.06-.88,.09-1.3,.09-.83,0-1.61-.14-2.32-.41-.72-.28-1.34-.68-1.87-1.22-.53-.54-.94-1.21-1.25-2.01s-.46-1.72-.46-2.77c0-.82,.13-1.58,.4-2.3,.26-.72,.64-1.34,1.14-1.88,.49-.53,1.1-.95,1.81-1.27s1.51-.47,2.41-.47c.75,0,1.45,.12,2.09,.36,.64,.24,1.19,.59,1.64,1.06,.46,.46,.82,1.03,1.08,1.7,.26,.67,.39,1.44,.39,2.3,0,.44-.05,.73-.14,.88-.09,.15-.27,.23-.54,.23h-7.41Zm5.49-1.74c0-.37-.05-.73-.16-1.06-.1-.33-.26-.62-.47-.87s-.48-.45-.8-.59c-.32-.14-.7-.22-1.13-.22-.83,0-1.49,.24-1.97,.71s-.78,1.15-.92,2.02h5.44Z"/><path class="c" d="M153.11,26.36c1.38-1.26,3.03-1.89,4.97-1.89,.7,0,1.33,.11,1.88,.34,.55,.23,1.02,.55,1.4,.96s.67,.9,.87,1.46c.2,.57,.3,1.19,.3,1.87v7.56h-1.31c-.27,0-.48-.04-.63-.12-.15-.08-.26-.25-.35-.5l-.26-.86c-.3,.27-.6,.51-.89,.72s-.59,.38-.9,.52c-.31,.14-.64,.25-1,.32-.35,.07-.74,.11-1.17,.11-.51,0-.97-.07-1.4-.2s-.8-.34-1.11-.61-.55-.61-.72-1.01c-.17-.4-.26-.88-.26-1.41,0-.3,.05-.6,.15-.9,.1-.3,.27-.58,.5-.86,.23-.27,.53-.53,.89-.77,.37-.24,.81-.45,1.35-.63s1.15-.32,1.86-.44,1.52-.18,2.43-.2v-.7c0-.8-.17-1.39-.51-1.78s-.84-.58-1.48-.58c-.47,0-.85,.05-1.16,.16s-.58,.23-.81,.37c-.23,.14-.45,.26-.64,.37s-.4,.16-.64,.16c-.2,0-.37-.05-.51-.16-.14-.1-.25-.23-.34-.37l-.51-.92Zm6.6,5.19c-.83,.04-1.53,.11-2.1,.22-.57,.1-1.02,.24-1.36,.4s-.59,.35-.73,.57c-.15,.22-.22,.46-.22,.71,0,.5,.15,.87,.45,1.08,.3,.22,.69,.33,1.17,.33,.59,0,1.1-.11,1.53-.32,.43-.21,.85-.54,1.27-.97v-2.02Z"/><path class="c" d="M167.11,26.77c.37-.72,.82-1.28,1.33-1.69s1.12-.61,1.82-.61c.55,0,1,.12,1.33,.36l-.19,2.16c-.04,.14-.1,.24-.17,.3-.07,.06-.17,.09-.3,.09-.12,0-.29-.02-.52-.06-.23-.04-.45-.06-.67-.06-.32,0-.6,.05-.85,.14-.25,.09-.47,.23-.67,.4-.2,.17-.37,.39-.52,.64-.15,.25-.29,.53-.43,.85v7.37h-2.88v-11.97h1.69c.3,0,.5,.05,.62,.16,.12,.1,.19,.29,.23,.57l.18,1.35Z"/><path class="c" d="M179.52,27.02c-.08,.12-.16,.21-.25,.26-.09,.05-.19,.08-.33,.08-.14,0-.29-.04-.45-.12-.16-.08-.34-.17-.55-.26s-.45-.19-.72-.26c-.27-.08-.58-.12-.95-.12-.57,0-1.01,.12-1.34,.36-.32,.24-.48,.56-.48,.94,0,.26,.08,.47,.25,.65,.17,.17,.39,.33,.66,.46s.59,.25,.94,.36c.35,.1,.71,.22,1.07,.34,.36,.12,.72,.27,1.07,.43,.35,.16,.66,.36,.94,.61,.28,.24,.5,.54,.67,.88,.17,.34,.25,.75,.25,1.24,0,.58-.1,1.11-.31,1.59-.21,.49-.51,.91-.92,1.26-.4,.35-.9,.63-1.5,.83s-1.28,.3-2.06,.3c-.41,0-.81-.04-1.21-.11-.39-.07-.77-.18-1.13-.31-.36-.13-.7-.29-1-.47-.31-.18-.58-.37-.81-.58l.67-1.1c.09-.13,.19-.23,.3-.3s.26-.1,.44-.1,.35,.05,.51,.15c.16,.1,.34,.21,.55,.33,.21,.12,.46,.23,.74,.33,.28,.1,.64,.15,1.08,.15,.34,0,.64-.04,.88-.12,.24-.08,.45-.19,.61-.32,.16-.13,.28-.29,.35-.46,.07-.17,.11-.36,.11-.54,0-.28-.08-.51-.25-.69-.17-.18-.39-.33-.67-.47-.28-.13-.59-.25-.94-.36-.35-.1-.72-.22-1.08-.34-.37-.12-.73-.27-1.08-.44-.35-.17-.67-.38-.94-.64-.28-.26-.5-.57-.66-.94-.17-.37-.25-.82-.25-1.35,0-.49,.1-.96,.29-1.4,.19-.44,.48-.83,.86-1.16,.38-.33,.85-.59,1.41-.79,.56-.2,1.21-.3,1.95-.3,.82,0,1.57,.14,2.25,.41,.68,.27,1.24,.63,1.69,1.07l-.65,1.04Z"/><path class="c" d="M191.75,24.5c.89,0,1.69,.14,2.42,.43,.73,.29,1.35,.7,1.87,1.22s.92,1.17,1.2,1.94c.28,.76,.42,1.61,.42,2.55s-.14,1.8-.42,2.57-.68,1.41-1.2,1.95c-.52,.54-1.14,.95-1.87,1.24-.73,.29-1.53,.43-2.42,.43s-1.71-.14-2.44-.43c-.73-.29-1.35-.7-1.87-1.24-.52-.54-.92-1.19-1.2-1.95s-.43-1.62-.43-2.57,.14-1.79,.43-2.55c.28-.76,.68-1.41,1.2-1.94s1.14-.94,1.87-1.22,1.54-.43,2.44-.43Zm0,10.11c1,0,1.73-.33,2.21-1,.48-.67,.72-1.65,.72-2.94s-.24-2.27-.72-2.95c-.48-.68-1.22-1.01-2.21-1.01s-1.76,.34-2.25,1.02c-.49,.68-.73,1.66-.73,2.94s.24,2.26,.73,2.93,1.23,1.01,2.25,1.01Z"/><path class="c" d="M199.56,36.66v-9.8l-1.04-.16c-.23-.05-.41-.13-.54-.24-.14-.11-.2-.27-.2-.48v-1.18h1.78v-.89c0-.68,.1-1.3,.31-1.84,.21-.54,.5-1.01,.89-1.39,.38-.38,.85-.67,1.41-.87,.55-.2,1.17-.3,1.87-.3,.55,0,1.07,.07,1.54,.22l-.06,1.45c0,.11-.04,.2-.09,.26-.05,.07-.13,.12-.22,.15-.09,.04-.19,.06-.31,.07s-.24,.02-.37,.02c-.34,0-.65,.04-.92,.11-.27,.07-.5,.2-.68,.39s-.33,.42-.43,.72-.15,.67-.15,1.11v.79h3.11v2.05h-3.02v9.81h-2.88Z"/><path class="c" d="M214.24,22.29v4.68h5.9v2.41h-5.9v4.77h7.49v2.51h-10.64V19.79h10.64v2.5h-7.49Z"/><path class="c" d="M233.89,36.66h-2.78c-.21,0-.38-.05-.51-.16-.13-.11-.24-.23-.32-.37l-2.53-4.16c-.04,.13-.08,.26-.13,.37-.05,.12-.11,.23-.17,.33l-2.24,3.46c-.09,.13-.19,.25-.31,.37-.12,.11-.28,.17-.47,.17h-2.58l4.11-6.17-3.94-5.8h2.78c.21,0,.37,.03,.47,.09,.1,.06,.19,.15,.27,.29l2.51,3.99c.09-.26,.21-.52,.36-.78l2.02-3.15c.17-.29,.39-.43,.66-.43h2.65l-3.93,5.67,4.09,6.3Z"/><path class="c" d="M237.27,26.32c.49-.55,1.05-1,1.67-1.34,.62-.34,1.35-.51,2.19-.51,.65,0,1.25,.14,1.79,.41,.54,.27,1.01,.67,1.4,1.18,.39,.52,.7,1.15,.91,1.91,.21,.76,.32,1.63,.32,2.61,0,.89-.12,1.72-.36,2.48-.24,.76-.58,1.42-1.03,1.98s-.99,1-1.62,1.31c-.63,.32-1.34,.47-2.13,.47-.67,0-1.24-.1-1.71-.31-.47-.21-.9-.49-1.27-.86v4.9h-2.88v-15.87h1.76c.37,0,.62,.17,.73,.52l.23,1.11Zm.15,7.23c.33,.4,.68,.68,1.07,.84,.38,.16,.8,.25,1.25,.25s.83-.08,1.18-.25c.35-.16,.65-.41,.89-.75,.25-.33,.43-.76,.57-1.27,.13-.51,.2-1.11,.2-1.8s-.06-1.29-.17-1.78-.27-.88-.48-1.18-.46-.52-.76-.66c-.3-.14-.64-.21-1.02-.21-.6,0-1.11,.13-1.53,.38-.42,.25-.82,.61-1.19,1.07v5.36Z"/><path class="c" d="M249.17,31.03c.05,.62,.16,1.15,.33,1.59s.4,.82,.68,1.11c.28,.29,.61,.51,1,.65,.38,.14,.81,.22,1.28,.22s.87-.05,1.21-.16c.34-.11,.63-.23,.89-.36,.25-.13,.47-.25,.66-.36,.19-.11,.38-.16,.55-.16,.24,0,.42,.09,.54,.27l.83,1.05c-.32,.37-.68,.69-1.07,.94s-.81,.46-1.24,.61c-.43,.15-.87,.26-1.32,.32-.45,.06-.88,.09-1.3,.09-.83,0-1.61-.14-2.32-.41-.72-.28-1.34-.68-1.87-1.22-.53-.54-.94-1.21-1.25-2.01s-.46-1.72-.46-2.77c0-.82,.13-1.58,.4-2.3,.26-.72,.64-1.34,1.14-1.88,.49-.53,1.1-.95,1.81-1.27s1.51-.47,2.41-.47c.75,0,1.45,.12,2.09,.36,.64,.24,1.19,.59,1.64,1.06,.46,.46,.82,1.03,1.08,1.7,.26,.67,.39,1.44,.39,2.3,0,.44-.05,.73-.14,.88-.09,.15-.27,.23-.54,.23h-7.41Zm5.49-1.74c0-.37-.05-.73-.16-1.06-.1-.33-.26-.62-.47-.87s-.48-.45-.8-.59c-.32-.14-.7-.22-1.13-.22-.83,0-1.49,.24-1.97,.71s-.78,1.15-.92,2.02h5.44Z"/><path class="c" d="M261.28,26.77c.37-.72,.82-1.28,1.33-1.69s1.12-.61,1.82-.61c.55,0,1,.12,1.33,.36l-.19,2.16c-.04,.14-.1,.24-.17,.3-.07,.06-.17,.09-.3,.09-.12,0-.29-.02-.52-.06-.23-.04-.45-.06-.67-.06-.32,0-.6,.05-.85,.14-.25,.09-.47,.23-.67,.4-.2,.17-.37,.39-.52,.64-.15,.25-.29,.53-.43,.85v7.37h-2.88v-11.97h1.69c.3,0,.5,.05,.62,.16,.12,.1,.19,.29,.23,.57l.18,1.35Z"/><path class="c" d="M269.81,21.2c0,.25-.05,.48-.15,.7-.1,.22-.24,.41-.4,.57-.17,.16-.36,.29-.59,.39s-.47,.15-.72,.15-.48-.05-.71-.15-.41-.23-.58-.39-.29-.35-.39-.57c-.1-.22-.15-.45-.15-.7s.05-.5,.15-.72c.1-.23,.23-.42,.39-.58,.16-.16,.36-.29,.58-.39s.46-.15,.71-.15,.5,.05,.72,.15,.42,.23,.59,.39c.17,.16,.3,.36,.4,.58,.1,.23,.15,.47,.15,.72Zm-.4,3.49v11.97h-2.89v-11.97h2.89Z"/><path class="c" d="M273.73,31.03c.05,.62,.16,1.15,.33,1.59s.4,.82,.68,1.11c.28,.29,.61,.51,1,.65,.38,.14,.81,.22,1.28,.22s.87-.05,1.21-.16c.34-.11,.63-.23,.89-.36,.25-.13,.47-.25,.66-.36,.19-.11,.38-.16,.55-.16,.24,0,.42,.09,.54,.27l.83,1.05c-.32,.37-.68,.69-1.07,.94s-.81,.46-1.24,.61c-.43,.15-.87,.26-1.32,.32-.45,.06-.88,.09-1.3,.09-.83,0-1.61-.14-2.32-.41-.72-.28-1.34-.68-1.87-1.22-.53-.54-.94-1.21-1.25-2.01s-.46-1.72-.46-2.77c0-.82,.13-1.58,.4-2.3,.26-.72,.64-1.34,1.14-1.88,.49-.53,1.1-.95,1.81-1.27s1.51-.47,2.41-.47c.75,0,1.45,.12,2.09,.36,.64,.24,1.19,.59,1.64,1.06,.46,.46,.82,1.03,1.08,1.7,.26,.67,.39,1.44,.39,2.3,0,.44-.05,.73-.14,.88-.09,.15-.27,.23-.54,.23h-7.41Zm5.49-1.74c0-.37-.05-.73-.16-1.06-.1-.33-.26-.62-.47-.87s-.48-.45-.8-.59c-.32-.14-.7-.22-1.13-.22-.83,0-1.49,.24-1.97,.71s-.78,1.15-.92,2.02h5.44Z"/><path class="c" d="M285.82,26.16c.24-.24,.5-.46,.76-.67,.27-.21,.55-.38,.85-.52,.3-.14,.62-.26,.96-.34,.34-.08,.71-.12,1.12-.12,.65,0,1.23,.11,1.74,.33,.51,.22,.93,.53,1.27,.93,.34,.4,.59,.88,.77,1.43,.17,.56,.26,1.17,.26,1.84v7.62h-2.88v-7.62c0-.73-.17-1.3-.5-1.7s-.84-.6-1.53-.6c-.5,0-.96,.11-1.4,.34-.44,.23-.85,.53-1.24,.92v8.65h-2.88v-11.97h1.76c.37,0,.62,.17,.73,.52l.2,.94Z"/><path class="c" d="M304.02,27.22c-.09,.11-.17,.19-.25,.26-.08,.06-.2,.09-.36,.09-.15,0-.29-.04-.43-.13-.14-.09-.31-.19-.5-.3s-.43-.21-.69-.3c-.27-.09-.6-.13-1-.13-.51,0-.95,.09-1.33,.27-.38,.18-.7,.44-.95,.79s-.44,.76-.57,1.24c-.12,.49-.19,1.04-.19,1.65s.07,1.21,.2,1.7c.14,.5,.33,.92,.59,1.25,.26,.34,.57,.59,.93,.77,.37,.17,.78,.26,1.24,.26s.83-.06,1.11-.17c.28-.11,.52-.24,.72-.37,.19-.14,.36-.26,.51-.37,.14-.11,.3-.17,.48-.17,.23,0,.41,.09,.52,.27l.83,1.05c-.32,.37-.67,.69-1.04,.94s-.76,.46-1.16,.61-.81,.26-1.24,.32c-.42,.06-.85,.09-1.27,.09-.74,0-1.43-.14-2.09-.41-.65-.28-1.22-.68-1.71-1.21-.49-.53-.88-1.18-1.16-1.94-.28-.77-.43-1.64-.43-2.62,0-.88,.13-1.69,.38-2.44,.25-.75,.62-1.4,1.11-1.95,.49-.55,1.1-.98,1.82-1.29s1.56-.47,2.5-.47,1.68,.14,2.35,.43c.67,.29,1.28,.7,1.81,1.24l-.76,1.05Z"/><path class="c" d="M307.85,31.03c.05,.62,.16,1.15,.33,1.59s.4,.82,.68,1.11c.28,.29,.61,.51,1,.65,.38,.14,.81,.22,1.28,.22s.87-.05,1.21-.16c.34-.11,.63-.23,.89-.36,.25-.13,.47-.25,.66-.36,.19-.11,.38-.16,.55-.16,.24,0,.42,.09,.54,.27l.83,1.05c-.32,.37-.68,.69-1.07,.94s-.81,.46-1.24,.61c-.43,.15-.87,.26-1.32,.32-.45,.06-.88,.09-1.3,.09-.83,0-1.61-.14-2.32-.41-.72-.28-1.34-.68-1.87-1.22-.53-.54-.94-1.21-1.25-2.01s-.46-1.72-.46-2.77c0-.82,.13-1.58,.4-2.3,.26-.72,.64-1.34,1.14-1.88,.49-.53,1.1-.95,1.81-1.27s1.51-.47,2.41-.47c.75,0,1.45,.12,2.09,.36,.64,.24,1.19,.59,1.64,1.06,.46,.46,.82,1.03,1.08,1.7,.26,.67,.39,1.44,.39,2.3,0,.44-.05,.73-.14,.88-.09,.15-.27,.23-.54,.23h-7.41Zm5.49-1.74c0-.37-.05-.73-.16-1.06-.1-.33-.26-.62-.47-.87s-.48-.45-.8-.59c-.32-.14-.7-.22-1.13-.22-.83,0-1.49,.24-1.97,.71s-.78,1.15-.92,2.02h5.44Z"/></g><g><path class="c" d="M368.1,5.39V51.2h-10.6V13.9h-9.16V5.39h19.76Z"/><path class="c" d="M417.05,41.58h-7.46v9.62h-10.34v-9.62h-24.67v-7.13l21.6-29.06h11.12l-20.03,27.55h12.3v-8.57h10.01v8.57h7.46v8.64Z"/><path class="c" d="M419.21,28.3c0-15.12,8.38-23.69,19.63-23.69s19.63,8.57,19.63,23.69-8.31,23.69-19.63,23.69-19.63-8.57-19.63-23.69Zm28.6,0c0-10.41-3.66-14.73-8.97-14.73s-8.9,4.32-8.9,14.73,3.67,14.73,8.9,14.73,8.97-4.32,8.97-14.73Z"/><path class="c" d="M474.19,45.31c0,1.7-.26,2.94-1.77,6.54l-3.73,9.42h-6.48l2.88-10.41c-2.16-.85-3.53-2.88-3.53-5.56,0-3.8,2.75-6.28,6.35-6.28s6.28,2.55,6.28,6.28Z"/><path class="c" d="M477.14,28.3c0-15.12,8.38-23.69,19.63-23.69s19.63,8.57,19.63,23.69-8.31,23.69-19.63,23.69-19.63-8.57-19.63-23.69Zm28.6,0c0-10.41-3.66-14.73-8.97-14.73s-8.9,4.32-8.9,14.73,3.67,14.73,8.9,14.73,8.97-4.32,8.97-14.73Z"/><path class="c" d="M520.59,28.3c0-15.12,8.38-23.69,19.63-23.69s19.63,8.57,19.63,23.69-8.31,23.69-19.63,23.69-19.63-8.57-19.63-23.69Zm28.6,0c0-10.41-3.66-14.73-8.97-14.73s-8.9,4.32-8.9,14.73,3.67,14.73,8.9,14.73,8.97-4.32,8.97-14.73Z"/><path class="c" d="M564.05,28.3c0-15.12,8.38-23.69,19.63-23.69s19.63,8.57,19.63,23.69-8.31,23.69-19.63,23.69-19.63-8.57-19.63-23.69Zm28.6,0c0-10.41-3.66-14.73-8.97-14.73s-8.9,4.32-8.9,14.73,3.67,14.73,8.9,14.73,8.97-4.32,8.97-14.73Z"/></g><path class="c" d="M644.53,32.29h-11.39v11.13h-8.44v-11.13h-11.32v-7.98h11.32V13.18h8.44v11.13h11.39v7.98Z"/><g><path class="c" d="M670.63,19.64v16.86h-3.15v-7.37h-7.92v7.37h-3.15V19.64h3.15v7.25h7.92v-7.25h3.15Z"/><path class="c" d="M678.03,24.35c.89,0,1.69,.14,2.42,.43,.73,.29,1.35,.7,1.87,1.22,.52,.53,.92,1.17,1.2,1.94,.28,.76,.42,1.61,.42,2.55s-.14,1.8-.42,2.57c-.28,.76-.68,1.41-1.2,1.95-.52,.54-1.14,.95-1.87,1.24-.73,.29-1.53,.43-2.42,.43s-1.71-.14-2.44-.43c-.73-.29-1.35-.7-1.87-1.24-.52-.54-.92-1.19-1.2-1.95-.28-.76-.43-1.62-.43-2.57s.14-1.79,.43-2.55c.28-.76,.68-1.41,1.2-1.94,.52-.53,1.14-.94,1.87-1.22s1.54-.43,2.44-.43Zm0,10.11c1,0,1.73-.33,2.21-1,.48-.67,.72-1.65,.72-2.94s-.24-2.27-.72-2.95c-.48-.68-1.21-1.01-2.21-1.01s-1.76,.34-2.25,1.02c-.49,.68-.73,1.66-.73,2.94s.24,2.26,.73,2.93,1.23,1.01,2.25,1.01Z"/><path class="c" d="M695.61,24.53v11.97h-1.76c-.38,0-.62-.17-.72-.53l-.2-.96c-.49,.5-1.03,.9-1.62,1.21-.59,.31-1.29,.46-2.09,.46-.65,0-1.23-.11-1.73-.33-.5-.22-.92-.53-1.26-.94-.34-.4-.6-.88-.78-1.44-.17-.56-.26-1.17-.26-1.84v-7.6h2.88v7.6c0,.73,.17,1.3,.51,1.7s.85,.6,1.52,.6c.5,0,.96-.11,1.4-.33,.44-.22,.85-.53,1.24-.92v-8.65h2.88Z"/><path class="c" d="M704.91,26.87c-.08,.12-.16,.21-.24,.26-.09,.05-.2,.08-.33,.08-.14,0-.29-.04-.45-.12s-.34-.17-.55-.26-.45-.19-.72-.26c-.27-.08-.59-.12-.95-.12-.57,0-1.01,.12-1.33,.36-.32,.24-.48,.56-.48,.94,0,.26,.08,.47,.25,.65s.39,.33,.67,.46c.28,.13,.59,.25,.94,.36s.71,.22,1.07,.34,.72,.27,1.07,.43c.35,.16,.66,.36,.94,.61,.28,.24,.5,.54,.67,.88,.17,.34,.25,.75,.25,1.24,0,.58-.1,1.11-.31,1.59-.21,.49-.51,.91-.92,1.26-.41,.35-.9,.63-1.5,.83-.59,.2-1.28,.3-2.06,.3-.41,0-.81-.04-1.21-.11-.39-.07-.77-.18-1.13-.31-.36-.13-.7-.29-1-.47-.31-.18-.58-.37-.81-.58l.67-1.1c.08-.13,.19-.23,.3-.3,.12-.07,.26-.1,.44-.1s.35,.05,.51,.15,.34,.21,.55,.33c.21,.12,.46,.22,.74,.33,.28,.1,.64,.15,1.08,.15,.34,0,.64-.04,.88-.12,.25-.08,.45-.19,.61-.32s.28-.29,.35-.46c.07-.18,.11-.36,.11-.54,0-.28-.08-.51-.25-.69-.17-.18-.39-.33-.67-.47-.28-.13-.59-.25-.94-.36-.35-.11-.72-.22-1.08-.34s-.73-.27-1.08-.44c-.35-.17-.67-.38-.94-.64-.28-.26-.5-.57-.67-.94s-.25-.82-.25-1.35c0-.49,.1-.96,.29-1.4,.19-.44,.48-.83,.86-1.16s.85-.59,1.41-.79,1.21-.3,1.95-.3c.82,0,1.58,.14,2.25,.41,.68,.27,1.24,.63,1.69,1.07l-.65,1.04Z"/><path class="c" d="M709.24,30.88c.05,.61,.16,1.15,.33,1.59,.17,.45,.4,.82,.68,1.11,.28,.29,.61,.51,1,.65,.39,.14,.81,.22,1.28,.22s.87-.05,1.21-.16c.34-.11,.63-.23,.89-.36,.25-.13,.47-.25,.67-.36,.19-.11,.38-.16,.55-.16,.24,0,.42,.09,.54,.27l.83,1.05c-.32,.37-.68,.69-1.07,.94-.4,.25-.81,.46-1.24,.61s-.87,.26-1.32,.32c-.45,.06-.88,.09-1.3,.09-.83,0-1.61-.14-2.32-.41-.72-.28-1.34-.68-1.87-1.22-.53-.54-.94-1.21-1.25-2.01s-.46-1.72-.46-2.77c0-.82,.13-1.58,.4-2.3,.26-.72,.64-1.34,1.14-1.88,.49-.53,1.1-.95,1.81-1.27,.71-.31,1.51-.47,2.41-.47,.75,0,1.45,.12,2.09,.36,.64,.24,1.19,.59,1.64,1.06,.46,.46,.82,1.03,1.08,1.7,.26,.67,.39,1.44,.39,2.3,0,.44-.05,.73-.14,.88-.09,.15-.27,.23-.54,.23h-7.41Zm5.49-1.74c0-.37-.05-.73-.16-1.06-.1-.33-.26-.62-.47-.87s-.48-.45-.8-.59c-.32-.14-.7-.22-1.12-.22-.83,0-1.49,.24-1.97,.71-.48,.47-.78,1.15-.92,2.02h5.43Z"/><path class="c" d="M725.94,26.87c-.08,.12-.16,.21-.24,.26-.09,.05-.2,.08-.33,.08-.14,0-.29-.04-.45-.12s-.34-.17-.55-.26-.45-.19-.72-.26c-.27-.08-.59-.12-.95-.12-.57,0-1.01,.12-1.33,.36-.32,.24-.48,.56-.48,.94,0,.26,.08,.47,.25,.65s.39,.33,.67,.46c.28,.13,.59,.25,.94,.36s.71,.22,1.07,.34,.72,.27,1.07,.43c.35,.16,.66,.36,.94,.61,.28,.24,.5,.54,.67,.88,.17,.34,.25,.75,.25,1.24,0,.58-.1,1.11-.31,1.59-.21,.49-.51,.91-.92,1.26-.41,.35-.9,.63-1.5,.83-.59,.2-1.28,.3-2.06,.3-.41,0-.81-.04-1.21-.11-.39-.07-.77-.18-1.13-.31-.36-.13-.7-.29-1-.47-.31-.18-.58-.37-.81-.58l.67-1.1c.08-.13,.19-.23,.3-.3,.12-.07,.26-.1,.44-.1s.35,.05,.51,.15,.34,.21,.55,.33c.21,.12,.46,.22,.74,.33,.28,.1,.64,.15,1.08,.15,.34,0,.64-.04,.88-.12,.25-.08,.45-.19,.61-.32s.28-.29,.35-.46c.07-.18,.11-.36,.11-.54,0-.28-.08-.51-.25-.69-.17-.18-.39-.33-.67-.47-.28-.13-.59-.25-.94-.36-.35-.11-.72-.22-1.08-.34s-.73-.27-1.08-.44c-.35-.17-.67-.38-.94-.64-.28-.26-.5-.57-.67-.94s-.25-.82-.25-1.35c0-.49,.1-.96,.29-1.4,.19-.44,.48-.83,.86-1.16s.85-.59,1.41-.79,1.21-.3,1.95-.3c.82,0,1.58,.14,2.25,.41,.68,.27,1.24,.63,1.69,1.07l-.65,1.04Z"/><path class="c" d="M738.82,19.64c1.13,0,2.1,.13,2.93,.4s1.5,.63,2.04,1.11c.54,.47,.93,1.04,1.2,1.7,.26,.66,.39,1.38,.39,2.17s-.14,1.56-.41,2.25c-.27,.68-.68,1.27-1.22,1.76s-1.23,.87-2.05,1.14c-.82,.27-1.78,.41-2.88,.41h-2.34v5.94h-3.14V19.64h5.48Zm0,8.48c.58,0,1.08-.07,1.5-.22,.43-.14,.78-.35,1.07-.62,.28-.27,.5-.59,.64-.98,.14-.39,.21-.81,.21-1.29s-.07-.86-.21-1.22c-.14-.37-.35-.68-.63-.93-.28-.26-.63-.45-1.06-.59-.43-.14-.93-.2-1.52-.2h-2.34v6.05h2.34Z"/><path class="c" d="M756.74,24.53v11.97h-1.76c-.38,0-.62-.17-.72-.53l-.2-.96c-.49,.5-1.03,.9-1.62,1.21-.59,.31-1.29,.46-2.09,.46-.65,0-1.23-.11-1.73-.33-.5-.22-.92-.53-1.26-.94-.34-.4-.6-.88-.78-1.44-.17-.56-.26-1.17-.26-1.84v-7.6h2.88v7.6c0,.73,.17,1.3,.51,1.7s.85,.6,1.52,.6c.5,0,.96-.11,1.4-.33,.44-.22,.85-.53,1.24-.92v-8.65h2.88Z"/><path class="c" d="M761.47,26.61c.37-.72,.82-1.28,1.33-1.69,.51-.41,1.12-.61,1.82-.61,.55,0,1,.12,1.33,.36l-.19,2.16c-.04,.14-.1,.24-.17,.3-.07,.06-.17,.09-.3,.09-.12,0-.29-.02-.52-.06-.23-.04-.45-.06-.67-.06-.32,0-.6,.05-.85,.14-.25,.09-.47,.23-.67,.4-.2,.17-.37,.39-.52,.64-.15,.25-.29,.53-.43,.85v7.37h-2.88v-11.97h1.69c.29,0,.5,.05,.62,.16,.12,.1,.19,.29,.23,.57l.17,1.35Z"/><path class="c" d="M774.84,27.06c-.09,.11-.17,.19-.25,.26-.08,.06-.2,.09-.36,.09s-.29-.04-.43-.13c-.14-.09-.31-.19-.5-.3s-.43-.21-.69-.3-.6-.13-1-.13c-.51,0-.95,.09-1.33,.27s-.7,.44-.95,.79-.44,.76-.57,1.24c-.12,.49-.19,1.04-.19,1.65s.07,1.21,.2,1.7c.14,.5,.33,.92,.59,1.25s.57,.59,.93,.77,.78,.26,1.24,.26,.83-.06,1.11-.17c.28-.11,.52-.24,.72-.37,.19-.13,.36-.26,.51-.37,.14-.11,.3-.17,.48-.17,.23,0,.41,.09,.53,.27l.83,1.05c-.32,.37-.67,.69-1.04,.94-.37,.25-.76,.46-1.16,.61-.4,.15-.81,.26-1.24,.32-.42,.06-.85,.09-1.27,.09-.74,0-1.43-.14-2.09-.41s-1.22-.68-1.71-1.21c-.49-.53-.88-1.18-1.16-1.94-.28-.77-.43-1.64-.43-2.62,0-.88,.13-1.69,.38-2.44,.25-.75,.62-1.4,1.11-1.95,.49-.55,1.1-.98,1.82-1.29s1.55-.47,2.5-.47,1.68,.14,2.35,.43c.67,.29,1.28,.7,1.81,1.24l-.76,1.05Z"/><path class="c" d="M779.56,25.82c.47-.44,.98-.79,1.54-1.06,.56-.27,1.22-.41,1.97-.41,.65,0,1.23,.11,1.74,.33,.51,.22,.93,.53,1.27,.93,.34,.4,.59,.88,.77,1.43,.18,.56,.26,1.17,.26,1.84v7.62h-2.88v-7.62c0-.73-.17-1.3-.5-1.7-.33-.4-.84-.6-1.53-.6-.5,0-.96,.11-1.4,.34s-.85,.53-1.24,.92v8.65h-2.88V19.17h2.88v6.65Z"/><path class="c" d="M788.71,26.2c1.38-1.26,3.03-1.89,4.97-1.89,.7,0,1.33,.11,1.88,.34s1.02,.55,1.4,.96,.67,.9,.87,1.46c.2,.57,.3,1.19,.3,1.87v7.56h-1.31c-.27,0-.48-.04-.63-.12-.15-.08-.26-.25-.35-.5l-.26-.86c-.3,.27-.6,.51-.89,.72-.29,.21-.59,.38-.9,.52-.31,.14-.64,.25-1,.32-.35,.07-.74,.11-1.17,.11-.5,0-.97-.07-1.4-.2-.43-.14-.8-.34-1.11-.61-.31-.27-.55-.61-.72-1.01s-.26-.88-.26-1.41c0-.3,.05-.6,.15-.9,.1-.3,.27-.59,.5-.86,.23-.27,.53-.53,.89-.77,.37-.24,.81-.45,1.35-.63s1.15-.32,1.86-.44c.71-.11,1.52-.18,2.43-.2v-.7c0-.8-.17-1.39-.51-1.78-.34-.38-.84-.58-1.48-.58-.47,0-.85,.05-1.16,.16-.31,.11-.58,.23-.81,.37-.23,.14-.45,.26-.64,.37-.19,.11-.4,.16-.64,.16-.2,0-.37-.05-.51-.16-.14-.1-.25-.23-.34-.37l-.51-.92Zm6.6,5.19c-.83,.04-1.53,.11-2.1,.22-.57,.11-1.02,.24-1.36,.4-.34,.16-.59,.35-.73,.57-.15,.22-.22,.46-.22,.71,0,.51,.15,.87,.45,1.08,.3,.22,.69,.33,1.17,.33,.59,0,1.1-.11,1.53-.32,.43-.21,.85-.54,1.27-.97v-2.02Z"/><path class="c" d="M807.29,26.87c-.08,.12-.16,.21-.24,.26-.09,.05-.2,.08-.33,.08-.14,0-.29-.04-.45-.12s-.34-.17-.55-.26-.45-.19-.72-.26c-.27-.08-.59-.12-.95-.12-.57,0-1.01,.12-1.33,.36-.32,.24-.48,.56-.48,.94,0,.26,.08,.47,.25,.65s.39,.33,.67,.46c.28,.13,.59,.25,.94,.36s.71,.22,1.07,.34,.72,.27,1.07,.43c.35,.16,.66,.36,.94,.61,.28,.24,.5,.54,.67,.88,.17,.34,.25,.75,.25,1.24,0,.58-.1,1.11-.31,1.59-.21,.49-.51,.91-.92,1.26-.41,.35-.9,.63-1.5,.83-.59,.2-1.28,.3-2.06,.3-.41,0-.81-.04-1.21-.11-.39-.07-.77-.18-1.13-.31-.36-.13-.7-.29-1-.47-.31-.18-.58-.37-.81-.58l.67-1.1c.08-.13,.19-.23,.3-.3,.12-.07,.26-.1,.44-.1s.35,.05,.51,.15,.34,.21,.55,.33c.21,.12,.46,.22,.74,.33,.28,.1,.64,.15,1.08,.15,.34,0,.64-.04,.88-.12,.25-.08,.45-.19,.61-.32s.28-.29,.35-.46c.07-.18,.11-.36,.11-.54,0-.28-.08-.51-.25-.69-.17-.18-.39-.33-.67-.47-.28-.13-.59-.25-.94-.36-.35-.11-.72-.22-1.08-.34s-.73-.27-1.08-.44c-.35-.17-.67-.38-.94-.64-.28-.26-.5-.57-.67-.94s-.25-.82-.25-1.35c0-.49,.1-.96,.29-1.4,.19-.44,.48-.83,.86-1.16s.85-.59,1.41-.79,1.21-.3,1.95-.3c.82,0,1.58,.14,2.25,.41,.68,.27,1.24,.63,1.69,1.07l-.65,1.04Z"/><path class="c" d="M811.62,30.88c.05,.61,.16,1.15,.33,1.59,.17,.45,.4,.82,.68,1.11,.28,.29,.61,.51,1,.65,.39,.14,.81,.22,1.28,.22s.87-.05,1.21-.16c.34-.11,.63-.23,.89-.36,.25-.13,.47-.25,.67-.36,.19-.11,.38-.16,.55-.16,.24,0,.42,.09,.54,.27l.83,1.05c-.32,.37-.68,.69-1.07,.94-.4,.25-.81,.46-1.24,.61s-.87,.26-1.32,.32c-.45,.06-.88,.09-1.3,.09-.83,0-1.61-.14-2.32-.41-.72-.28-1.34-.68-1.87-1.22-.53-.54-.94-1.21-1.25-2.01s-.46-1.72-.46-2.77c0-.82,.13-1.58,.4-2.3,.26-.72,.64-1.34,1.14-1.88,.49-.53,1.1-.95,1.81-1.27,.71-.31,1.51-.47,2.41-.47,.75,0,1.45,.12,2.09,.36,.64,.24,1.19,.59,1.64,1.06,.46,.46,.82,1.03,1.08,1.7,.26,.67,.39,1.44,.39,2.3,0,.44-.05,.73-.14,.88-.09,.15-.27,.23-.54,.23h-7.41Zm5.49-1.74c0-.37-.05-.73-.16-1.06-.1-.33-.26-.62-.47-.87s-.48-.45-.8-.59c-.32-.14-.7-.22-1.12-.22-.83,0-1.49,.24-1.97,.71-.48,.47-.78,1.15-.92,2.02h5.43Z"/><path class="c" d="M831.41,19.17v17.33h-1.76c-.38,0-.62-.17-.72-.53l-.24-1.15c-.48,.55-1.04,1-1.66,1.34s-1.36,.51-2.19,.51c-.65,0-1.25-.14-1.8-.41s-1.01-.67-1.41-1.18-.7-1.16-.91-1.92c-.21-.76-.32-1.63-.32-2.61,0-.89,.12-1.71,.36-2.47,.24-.76,.59-1.42,1.04-1.98,.45-.56,.99-1,1.62-1.31,.63-.31,1.34-.47,2.12-.47,.67,0,1.24,.1,1.71,.31,.47,.21,.9,.49,1.27,.85v-6.31h2.88Zm-2.88,8.42c-.33-.4-.68-.68-1.07-.84-.39-.16-.8-.24-1.24-.24s-.83,.08-1.18,.24c-.35,.16-.65,.41-.9,.74-.25,.33-.44,.75-.57,1.26-.13,.51-.2,1.11-.2,1.8s.06,1.29,.17,1.78c.11,.49,.27,.88,.48,1.19,.21,.31,.47,.53,.77,.67,.3,.13,.64,.2,1.01,.2,.6,0,1.11-.12,1.53-.37,.42-.25,.82-.6,1.19-1.06v-5.37Z"/></g></svg>