<svg xmlns="http://www.w3.org/2000/svg" xmlns:xlink="http://www.w3.org/1999/xlink" width="69.267" height="64" viewBox="0 0 69.267 64">
  <defs>
    <clipPath id="clip-path">
      <rect width="69.267" height="64" fill="none"/>
    </clipPath>
    <clipPath id="clip-path-3">
      <rect width="4.778" height="5.074" fill="none"/>
    </clipPath>
  </defs>
  <g clip-path="url(#clip-path)">
    <path d="M34.655,0,17.64,13.42,0,26.839l8.645.035V63.941l52.02-.051V26.823l8.6.016L51.669,13.42Z" transform="translate(0 0)" fill="#8fd7d4"/>
    <rect width="12.978" height="14.872" transform="translate(9.924 4.544)" fill="#8fd7d4"/>
    <path d="M16.97,25.9V23.922H18.94v1.969Z" transform="translate(-7.051 -9.939)" fill="#197d7b"/>
    <path d="M16.97,17.829V15.848H18.94v1.969Z" transform="translate(-7.051 -6.584)" fill="#197d7b"/>
    <path d="M16.97,9.76V7.785H18.94l.006,1.969Z" transform="translate(-7.051 -3.234)" fill="#197d7b"/>
    <path d="M28.38,9.755H26.411L26.4,7.785H28.38Z" transform="translate(-10.967 -3.235)" fill="#197d7b"/>
    <path d="M37.814,9.755H35.844l-.006-1.969h1.975Z" transform="translate(-14.89 -3.235)" fill="#197d7b"/>
    <path d="M12.088,25.809l-1.234-1.534,1.534-1.235,1.244,1.527Zm3.828-3.025L14.71,21.228l1.557-1.206,1.216,1.549Zm3.852-3.022-1.206-1.557L20.118,17l1.216,1.549Zm3.853-3.021-1.206-1.557,1.557-1.206,1.216,1.55ZM27.5,13.722l-1.234-1.534L27.8,10.953l1.244,1.526ZM31.327,10.7,30.12,9.14l1.557-1.206,1.216,1.55Zm3.852-3.022L33.973,6.118l1.557-1.206,1.216,1.55Z" transform="translate(-4.509 -2.041)" fill="#197d7b"/>
    <path d="M5.366,43.669,4.125,42.141,5.653,40.9,6.9,42.424Z" transform="translate(-1.714 -16.992)" fill="#197d7b"/>
    <path d="M16.812,43.471H14.843V41.5l1.969-.006Z" transform="translate(-6.167 -17.24)" fill="#197d7b"/>
    <path d="M16.812,79.829H14.843V77.86l1.969-.012Zm0-4.716H14.843V73.144l1.969-.012Zm0-4.715H14.843V68.428l1.969-.012Zm0-4.715H14.843V63.713l1.969-.012Zm0-4.715H14.843V59l1.969-.012Zm0-4.716H14.843V54.281l1.969-.012Zm0-4.715H14.843V49.566l1.969-.012Z" transform="translate(-6.167 -20.588)" fill="#197d7b"/>
    <path d="M14.843,106.03l.006,1.97h1.969l-.006-1.976Z" transform="translate(-6.167 -44.049)" fill="#197d7b"/>
    <path d="M22.607,106.034l.012,1.97h1.969v-1.97Zm9.088,0,.011,1.97h1.97v-1.97Zm4.545,0,.011,1.97h1.969v-1.97Zm4.544,0L40.8,108h1.969v-1.97Zm4.544,0L45.34,108h1.969v-1.97Zm4.544,0,.012,1.97h1.969v-1.97Zm4.545,0,.011,1.97H56.4v-1.97Zm9.088,0,.012,1.97h1.969v-1.97Z" transform="translate(-9.392 -44.053)" fill="#197d7b"/>
    <path d="M100.348,106.034l.006,1.97h1.969v-1.97Z" transform="translate(-41.691 -44.053)" fill="#197d7b"/>
    <path d="M88.133,25.776l-1.558-1.2,1.195-1.566,1.568,1.211Zm-3.882-3.013L82.716,21.53l1.222-1.544,1.546,1.24Zm-3.857-3.016-1.536-1.233,1.222-1.544,1.546,1.24Zm-3.832-3.02L75,15.522,76.2,13.956l1.568,1.212ZM72.706,13.71l-1.558-1.2,1.194-1.566,1.568,1.211Zm-3.857-3.016-1.558-1.2,1.195-1.566,1.568,1.211ZM64.992,7.677l-1.558-1.2,1.195-1.565L66.2,6.118Z" transform="translate(-26.354 -2.039)" fill="#197d7b"/>
    <path d="M111.127,43.8,109.6,42.548l1.244-1.526,1.527,1.253Z" transform="translate(-45.536 -17.043)" fill="#197d7b"/>
    <path d="M100.358,106.024V108l1.969-.006v-1.97Z" transform="translate(-41.695 -44.049)" fill="#197d7b"/>
    <path d="M100.358,79.99V78.009h1.969v1.969Zm0-4.689V73.32h1.969v1.969Zm0-4.689V68.631h1.969V70.6Zm0-4.689V63.943h1.969v1.969Zm0-4.689V59.254h1.969v1.969Zm0-4.689V54.566h1.969v1.969Zm0-4.689V49.877h1.969v1.969Z" transform="translate(-41.695 -20.722)" fill="#197d7b"/>
    <path d="M100.358,43.841V41.866h1.969v1.969Z" transform="translate(-41.695 -17.394)" fill="#197d7b"/>
    <rect width="2.148" height="2.149" transform="translate(33.581 0)" fill="#197d7b"/>
    <path d="M33.291,79.615V58.729h-3.32l17.15-13.277,17.15,13.277H60.953V79.615Z" transform="translate(-12.452 -18.883)" fill="#ffdd05"/>
    <rect width="7.28" height="12.948" transform="translate(24.929 47.483)" fill="#e72113"/>
    <rect width="4.7" height="5.592" transform="translate(22.129 30.26)" fill="#ffdd05"/>
    <path d="M33.291,58.729l13.831-10.6,13.831,10.6h3.319L47.122,45.452,29.972,58.729Z" transform="translate(-12.452 -18.883)" fill="#22bcb9"/>
    <g transform="translate(0 0)">
      <g clip-path="url(#clip-path)">
        <path d="M62.611,60.916a.977.977,0,0,1-.6-.2L48.781,50.571,35.549,60.712a.984.984,0,1,1-1.2-1.562l13.831-10.6a.985.985,0,0,1,1.2,0L63.21,59.15a.984.984,0,0,1-.6,1.766" transform="translate(-14.111 -20.086)" fill="#197d7b"/>
        <path d="M60.252,79.9a.985.985,0,0,1-.985-.985V58.028a.985.985,0,0,1,.985-.985h.439L46.421,46,32.152,57.043h.439a.985.985,0,0,1,.984.985V78.915a.985.985,0,1,1-1.969,0v-19.9H29.271a.985.985,0,0,1-.6-1.764l17.15-13.277a.984.984,0,0,1,1.205,0L64.174,57.25a.985.985,0,0,1-.6,1.764H61.237v19.9a.985.985,0,0,1-.985.985" transform="translate(-11.752 -18.183)" fill="#197d7b"/>
        <rect width="31.5" height="1.521" transform="translate(18.885 61.177)" fill="#22bcb9"/>
        <path d="M61.66,58.7,47.73,48.022,33.8,58.7H31.434l16.3-12.616L64.025,58.7Z" transform="translate(-13.06 -19.146)" fill="#f1fafa"/>
        <path d="M47.122,46.19l15.44,11.953H61.151L47.477,47.663l-.355-.272-.355.272L33.093,58.144H31.682Zm0-.739L29.972,58.728h3.319l13.831-10.6,13.831,10.6h3.319Z" transform="translate(-12.452 -18.883)" fill="#197d7b"/>
        <path d="M49.392,94.581H41.173a.985.985,0,0,1-.985-.985V79.761a.985.985,0,0,1,.985-.985h8.219a.985.985,0,0,1,.985.985V93.6a.985.985,0,0,1-.985.985m-7.234-1.969h6.249V80.746H42.157Z" transform="translate(-16.697 -32.728)" fill="#197d7b"/>
        <rect width="9.226" height="7.231" transform="translate(36.272 47.024)" fill="#fff"/>
        <path d="M70.579,87.962H61.353a.985.985,0,0,1-.985-.985V79.746a.985.985,0,0,1,.985-.985h9.226a.985.985,0,0,1,.984.985v7.231a.985.985,0,0,1-.984.985m-8.242-1.969h7.257V80.731H62.337Z" transform="translate(-25.081 -32.722)" fill="#197d7b"/>
        <path d="M69.244,87.977a.985.985,0,0,1-.985-.985V79.761a.985.985,0,0,1,1.97,0v7.231a.985.985,0,0,1-.985.985" transform="translate(-28.359 -32.728)" fill="#197d7b"/>
        <path d="M70.579,86.916H61.353a.985.985,0,1,1,0-1.969h9.226a.985.985,0,1,1,0,1.969" transform="translate(-25.081 -35.292)" fill="#197d7b"/>
        <path d="M76.84,98.147a2.791,2.791,0,0,0-5.265-.326,2.793,2.793,0,0,0-2.477,2.972l0,0h9.652a2.792,2.792,0,0,0-1.913-2.649" transform="translate(-28.705 -39.928)" fill="#197d7b"/>
        <path d="M78.337,100.965H68.685a.582.582,0,0,1-.413-.171.6.6,0,0,1-.174-.376,3.371,3.371,0,0,1,2.666-3.54,3.376,3.376,0,0,1,6.128.408,3.37,3.37,0,0,1,2.03,3.1.585.585,0,0,1-.585.585M69.293,99.8h8.381a2.206,2.206,0,0,0-1.434-1.51.584.584,0,0,1-.379-.4,2.207,2.207,0,0,0-4.163-.257.585.585,0,0,1-.475.356,2.2,2.2,0,0,0-1.93,1.809" transform="translate(-28.289 -39.512)" fill="#197d7b"/>
        <path d="M63.252,106.562H31.165a.985.985,0,0,1-.985-.985V103.43a.985.985,0,0,1,.985-.984H63.252a.984.984,0,0,1,.984.984v2.147a.985.985,0,0,1-.984.985m-31.1-1.969H62.267v-.178H32.15Z" transform="translate(-12.539 -42.562)" fill="#197d7b"/>
        <path d="M36.452,57.42a.985.985,0,0,1-.985-.985v-6a.985.985,0,0,1,.985-.985h5.6a.985.985,0,0,1,.984.985V52.26a.985.985,0,0,1-1.969,0v-.841H37.437v5.015a.985.985,0,0,1-.985.985" transform="translate(-14.735 -20.545)" fill="#197d7b"/>
        <g transform="translate(26.196 48.544)" opacity="0.1" style="mix-blend-mode: multiply;isolation: isolate">
          <g>
            <g clip-path="url(#clip-path-3)">
              <path d="M46.562,88.121H45.107a.292.292,0,0,1-.292-.292V83.339a.292.292,0,0,1,.292-.292h1.454a.292.292,0,0,1,.292.292v4.489a.292.292,0,0,1-.292.292M45.4,87.536h.869V83.631H45.4Z" transform="translate(-44.815 -83.047)" fill="#231f20"/>
              <path d="M51.249,88.121H49.8a.292.292,0,0,1-.292-.292V83.339a.292.292,0,0,1,.292-.292h1.453a.292.292,0,0,1,.292.292v4.489a.292.292,0,0,1-.292.292m-1.161-.585h.869V83.631h-.869Z" transform="translate(-46.763 -83.047)" fill="#231f20"/>
            </g>
          </g>
        </g>
        <g transform="translate(26.196 54.21)" opacity="0.1" style="mix-blend-mode: multiply;isolation: isolate">
          <g>
            <g clip-path="url(#clip-path-3)">
              <path d="M46.562,97.814H45.107a.292.292,0,0,1-.292-.292v-4.49a.292.292,0,0,1,.292-.292h1.454a.292.292,0,0,1,.292.292v4.49a.292.292,0,0,1-.292.292M45.4,97.23h.869V93.325H45.4Z" transform="translate(-44.815 -92.74)" fill="#231f20"/>
              <path d="M51.249,97.814H49.8a.292.292,0,0,1-.292-.292v-4.49a.292.292,0,0,1,.292-.292h1.453a.292.292,0,0,1,.292.292v4.49a.292.292,0,0,1-.292.292m-1.161-.585h.869V93.325h-.869Z" transform="translate(-46.763 -92.74)" fill="#231f20"/>
            </g>
          </g>
        </g>
        <rect width="31.5" height="1.838" transform="translate(18.885 61.177)" fill="#f1fafa"/>
        <path d="M63.891,106.581H31.806v-2.423H63.891ZM32.391,106H63.306v-1.254H32.391Z" transform="translate(-13.214 -43.274)" fill="#197d7b"/>
      </g>
    </g>
  </g>
</svg>
