<svg xmlns="http://www.w3.org/2000/svg" xmlns:xlink="http://www.w3.org/1999/xlink" width="67.293" height="64" viewBox="0 0 67.293 64">
	<defs>
		<clipPath id="clip-path">
			<rect width="67.293" height="64" fill="none"/>
		</clipPath>
	</defs>
	<path d="M19.05,17.425H6.031l-4.346,3.26,4.346,3.26h56.5l4.346-3.26v-3.26Z" transform="translate(-0.638 -6.599)" fill="#8fd7d4"/>
	<g transform="translate(0 0)">
		<g clip-path="url(#clip-path)">
			<path d="M61.894,24.353H5.393a1.045,1.045,0,0,1-.627-.209L.419,20.883a1.046,1.046,0,0,1,0-1.674l4.346-3.26a1.045,1.045,0,0,1,.627-.209H66.24a1.046,1.046,0,0,1,1.046,1.046v3.26a1.048,1.048,0,0,1-.418.837l-4.346,3.26a1.047,1.047,0,0,1-.628.209M5.742,22.26h55.8l3.649-2.737v-1.69H5.742L2.791,20.046Z" transform="translate(0 -5.961)" fill="#197d7b"/>
			<path d="M88.495,37.02a1.047,1.047,0,0,1-1.047-1.047V27.281a1.047,1.047,0,0,1,2.094,0v8.692a1.047,1.047,0,0,1-1.047,1.047" transform="translate(-33.12 -9.936)" fill="#197d7b"/>
			<path d="M46.519,37.02a1.047,1.047,0,0,1-1.047-1.047V27.281a1.047,1.047,0,1,1,2.094,0v8.692a1.047,1.047,0,0,1-1.047,1.047" transform="translate(-17.222 -9.936)" fill="#197d7b"/>
			<path d="M75.14,64.7H34.3a2.914,2.914,0,0,1-2.914-2.914V47.421A2.914,2.914,0,0,1,34.3,44.507H75.14a2.914,2.914,0,0,1,2.914,2.914V61.789A2.914,2.914,0,0,1,75.14,64.7" transform="translate(-11.886 -16.856)" fill="#ffdd05"/>
			<path d="M61.924,62.932H57.411a1.047,1.047,0,0,1-1.047-1.047V52.86a1.046,1.046,0,0,1,1.047-1.046h4.513a1.047,1.047,0,0,1,0,2.093H58.457v6.932h3.467a1.047,1.047,0,0,1,0,2.093" transform="translate(-21.347 -19.624)" fill="#e72113"/>
			<path d="M77.578,62.932a1.049,1.049,0,0,1-.888-.492l-3.706-5.931v5.376a1.047,1.047,0,1,1-2.093,0V52.86a1.047,1.047,0,0,1,1.935-.554l3.706,5.931V52.86a1.047,1.047,0,0,1,2.094,0v9.025a1.046,1.046,0,0,1-1.047,1.047" transform="translate(-26.849 -19.624)" fill="#e72113"/>
			<path d="M92.794,53.907H88.281a1.047,1.047,0,0,1,0-2.093h4.513a1.047,1.047,0,1,1,0,2.093" transform="translate(-33.039 -19.624)" fill="#e72113"/>
			<path d="M44.453,58.419H41.068a1.046,1.046,0,0,1-1.046-1.046V52.86a1.047,1.047,0,0,1,1.046-1.047h3.385a3.3,3.3,0,0,1,0,6.606m-2.338-2.093h2.338a1.21,1.21,0,0,0,0-2.42H42.115Z" transform="translate(-15.158 -19.624)" fill="#e72113"/>
			<path d="M41.068,65.683a1.047,1.047,0,0,1-1.047-1.047V60.124a1.047,1.047,0,1,1,2.094,0v4.512a1.047,1.047,0,0,1-1.047,1.047" transform="translate(-15.157 -22.375)" fill="#e72113"/>
			<path d="M48.772,65.683a1.047,1.047,0,0,1-.937-.578l-2.256-4.513a1.047,1.047,0,0,1,1.872-.936l2.256,4.513a1.047,1.047,0,0,1-.936,1.515" transform="translate(-17.22 -22.375)" fill="#e72113"/>
			<path d="M60.8,61.17H57.411a1.047,1.047,0,1,1,0-2.093H60.8a1.047,1.047,0,1,1,0,2.093" transform="translate(-21.347 -22.375)" fill="#e72113"/>
			<path d="M91.913,62.931a1.047,1.047,0,0,1-1.047-1.047V52.86a1.047,1.047,0,1,1,2.094,0v9.024a1.047,1.047,0,0,1-1.047,1.047" transform="translate(-34.414 -19.624)" fill="#e72113"/>
			<path d="M74.231,42.693h-40.4a4.269,4.269,0,0,0-4.262,4.262V60.879a4.269,4.269,0,0,0,4.262,4.262h40.4a4.269,4.269,0,0,0,4.262-4.262V46.955a4.269,4.269,0,0,0-4.262-4.262m2.007,18.186a2.009,2.009,0,0,1-2.007,2.007h-40.4a2.009,2.009,0,0,1-2.007-2.007V46.955a2.013,2.013,0,0,1,2.007-2.007h40.4a2.013,2.013,0,0,1,2.007,2.007Z" transform="translate(-11.199 -16.169)" fill="#197d7b"/>
			<path d="M66.294,59.276l.475,3.593L65.4,60.387l1.358-4.67a1.016,1.016,0,0,0-.14-.864L63.972,51.12l.662-4.8h2.422l-1.024,4.155a1.011,1.011,0,0,0,.194.877l3.031,3.74-2.75,3.419a.982.982,0,0,0-.214.763" transform="translate(-24.229 -17.544)" fill="#f1fafa"/>
			<path d="M70.079,54.349l-2.991,3.713.636,4.824.294,2.255H65.235l-1.244-2.255-1.807-3.272a1.006,1.006,0,0,1-.087-.763l1.345-4.61-2.589-3.667a1.008,1.008,0,0,1-.181-.716l.676-4.911.314-2.255H63.7l-.314,2.255-.663,4.8,2.643,3.733a1.015,1.015,0,0,1,.141.863l-1.359,4.67,1.372,2.483L65.041,57.9a.984.984,0,0,1,.214-.763L68,53.72l-3.031-3.741a1.009,1.009,0,0,1-.194-.876L65.8,44.948l.549-2.255h2.074l-.555,2.255L66.847,49.1l3.225,3.981a1.006,1.006,0,0,1,.007,1.264" transform="translate(-22.975 -16.169)" fill="#197d7b"/>
			<path d="M20.447,63.591V6.843l-3.26-5.159-3.26,5.159V63.591Z" transform="translate(-5.275 -0.638)" fill="#f1fafa"/>
			<path d="M19.808,64h-6.52a1.046,1.046,0,0,1-1.046-1.046V6.205a1.05,1.05,0,0,1,.162-.559L15.664.488a1.046,1.046,0,0,1,1.769,0l3.26,5.158a1.05,1.05,0,0,1,.162.559V62.954A1.046,1.046,0,0,1,19.808,64m-5.473-2.093h4.426V6.508l-2.213-3.5-2.214,3.5Z" transform="translate(-4.637 0)" fill="#197d7b"/>
		</g>
	</g>
</svg>
