<svg xmlns="http://www.w3.org/2000/svg" xmlns:xlink="http://www.w3.org/1999/xlink" width="60.353" height="64" viewBox="0 0 60.353 64">
  <defs>
    <clipPath id="clip-path">
      <rect width="60.353" height="64" fill="none"/>
    </clipPath>
    <clipPath id="clip-path-3">
      <rect width="5.328" height="5.667" fill="none"/>
    </clipPath>
  </defs>
  <g clip-path="url(#clip-path)">
    <path d="M23.343,36.479V16.858H19.55l19.6-15.174,19.6,15.174H54.954V36.479Z" transform="translate(-9.079 -0.782)" fill="#f1fafa"/>
    <path d="M23.343,16.858,39.149,4.743,54.954,16.858h3.793L39.149,1.685,19.55,16.858Z" transform="translate(-9.079 -0.782)" fill="#22bcb9"/>
    <g>
      <g clip-path="url(#clip-path)">
        <path d="M57.46,19.629a.9.9,0,0,1-.548-.186L41.655,7.748,26.4,19.443a.9.9,0,0,1-1.1-1.432L41.106,5.9a.9.9,0,0,1,1.1,0L58.009,18.011a.9.9,0,0,1-.549,1.618" transform="translate(-11.585 -2.652)" fill="#197d7b"/>
        <path d="M54.171,36.6a.9.9,0,0,1-.9-.9V16.075a.9.9,0,0,1,.9-.9h1.154L38.366,2.043l-16.96,13.13H22.56a.9.9,0,0,1,.9.9V35.7a.9.9,0,1,1-1.8,0V16.977H18.767a.9.9,0,0,1-.552-1.615L37.814.188a.9.9,0,0,1,1.1,0l19.6,15.174a.9.9,0,0,1-.552,1.615H55.074V35.7a.9.9,0,0,1-.9.9" transform="translate(-8.296 0)" fill="#197d7b"/>
        <rect width="9.392" height="15.812" transform="translate(18.421 20.041)" fill="#e72113"/>
        <path d="M43,53.348H33.61a.9.9,0,0,1-.9-.9V36.634a.9.9,0,0,1,.9-.9H43a.9.9,0,0,1,.9.9V52.446a.9.9,0,0,1-.9.9m-8.49-1.8H42.1V37.536H34.512Z" transform="translate(-15.189 -16.594)" fill="#197d7b"/>
        <rect width="10.544" height="8.263" transform="translate(31.901 20.031)" fill="#fff"/>
        <path d="M69.322,45.782H58.778a.9.9,0,0,1-.9-.9V36.616a.9.9,0,0,1,.9-.9H69.322a.9.9,0,0,1,.9.9v8.263a.9.9,0,0,1-.9.9m-9.641-1.8h8.739V37.518H59.68Z" transform="translate(-26.877 -16.585)" fill="#197d7b"/>
        <path d="M68.62,45.8a.9.9,0,0,1-.9-.9V36.634a.9.9,0,1,1,1.8,0V44.9a.9.9,0,0,1-.9.9" transform="translate(-31.448 -16.594)" fill="#197d7b"/>
        <path d="M69.322,45.232H58.778a.9.9,0,0,1,0-1.8H69.322a.9.9,0,1,1,0,1.8" transform="translate(-26.877 -20.168)" fill="#197d7b"/>
        <path d="M77.195,59.262a3.19,3.19,0,0,0-6.017-.372,3.191,3.191,0,0,0-2.839,3.171c0,.077.006.153.012.228h11.03a3.191,3.191,0,0,0-2.186-3.027" transform="translate(-31.736 -26.437)" fill="#197d7b"/>
        <path d="M78.683,62.4H67.654a.8.8,0,0,1-.8-.749c-.008-.115-.013-.2-.013-.284a3.988,3.988,0,0,1,3.1-3.894,3.994,3.994,0,0,1,7.2.484,3.988,3.988,0,0,1,2.348,3.639.8.8,0,0,1-.8.8M68.516,60.788H77.74a2.386,2.386,0,0,0-1.5-1.461.8.8,0,0,1-.521-.547,2.386,2.386,0,0,0-4.5-.278.8.8,0,0,1-.654.489,2.381,2.381,0,0,0-2.053,1.8" transform="translate(-31.039 -25.74)" fill="#197d7b"/>
        <rect width="36.669" height="2.454" transform="translate(11.735 35.852)" fill="#22bcb9"/>
        <path d="M57.8,69.511H21.128a.9.9,0,0,1-.9-.9V66.154a.9.9,0,0,1,.9-.9H57.8a.9.9,0,0,1,.9.9v2.454a.9.9,0,0,1-.9.9m-35.767-1.8H56.9v-.65H22.03Z" transform="translate(-9.393 -30.303)" fill="#197d7b"/>
        <path d="M28.5,16.1V8.773h6.4v2.086" transform="translate(-13.237 -4.074)" fill="#f1fafa"/>
        <path d="M27.722,16.222a.9.9,0,0,1-.9-.9V7.99a.9.9,0,0,1,.9-.9h6.4a.9.9,0,0,1,.9.9v2.086a.9.9,0,1,1-1.8,0V8.892h-4.6V15.32a.9.9,0,0,1-.9.9" transform="translate(-12.455 -3.292)" fill="#197d7b"/>
        <g transform="translate(20.453 21.834)" opacity="0.1" style="mix-blend-mode: multiply;isolation: isolate">
          <g>
            <g clip-path="url(#clip-path-3)">
              <path d="M40.115,46.432h-1.66a.268.268,0,0,1-.268-.268V41.033a.268.268,0,0,1,.268-.268h1.66a.268.268,0,0,1,.268.268v5.131a.268.268,0,0,1-.268.268M38.723,45.9h1.125V41.3H38.723Z" transform="translate(-38.187 -40.765)" fill="#231f20"/>
              <path d="M45.962,46.432H44.3a.268.268,0,0,1-.268-.268V41.033a.268.268,0,0,1,.268-.268h1.661a.268.268,0,0,1,.268.268v5.131a.268.268,0,0,1-.268.268M44.569,45.9h1.126V41.3H44.569Z" transform="translate(-40.902 -40.765)" fill="#231f20"/>
            </g>
          </g>
        </g>
        <g transform="translate(20.453 28.31)" opacity="0.1" style="mix-blend-mode: multiply;isolation: isolate">
          <g>
            <g clip-path="url(#clip-path-3)">
              <path d="M40.115,58.522h-1.66a.267.267,0,0,1-.268-.268V53.123a.268.268,0,0,1,.268-.268h1.66a.268.268,0,0,1,.268.268v5.131a.268.268,0,0,1-.268.268m-1.393-.536h1.125v-4.6H38.723Z" transform="translate(-38.187 -52.855)" fill="#231f20"/>
              <path d="M45.962,58.522H44.3a.268.268,0,0,1-.268-.268V53.123a.268.268,0,0,1,.268-.268h1.661a.268.268,0,0,1,.268.268v5.131a.268.268,0,0,1-.268.268m-1.394-.536h1.126v-4.6H44.569Z" transform="translate(-40.902 -52.855)" fill="#231f20"/>
            </g>
          </g>
        </g>
        <rect width="8.362" height="19.221" transform="translate(0.698 45.163) rotate(-21.098)" fill="#f1fafa"/>
        <rect width="8.362" height="7.353" transform="translate(4.97 56.235) rotate(-21.098)" fill="#8fd7d4"/>
        <path d="M19.213,107.49A1.3,1.3,0,1,1,17.9,106.2a1.3,1.3,0,0,1,1.315,1.293" transform="translate(-7.711 -49.317)" fill="#19a39a"/>
        <path d="M45.759,86.465C51.1,84.082,56.6,81.689,61.946,79.316c1.646-.731,4.078-1.468,5.313.348a3.246,3.246,0,0,1-.725,4.625S52.323,94.711,47.415,95.435s-23.792-1.647-23.792-1.647L18.313,79.871,22.3,78.056a8.017,8.017,0,0,1,4.589-.531l17.644,3.158a3.009,3.009,0,0,1,2.5,3.606c0,.027-.008.054-.012.081a3.361,3.361,0,0,1-3.807,2.758L31.035,85.4" transform="translate(-8.504 -35.944)" fill="#ffdd05"/>
        <path d="M43.81,95.69c-6.948,0-20.623-1.706-21.293-1.79l-.537-.067L16.174,78.618l4.759-2.165a8.917,8.917,0,0,1,5.121-.6L43.7,79.012a3.908,3.908,0,0,1,3.23,4.622l-.016.106c2.157-.956,4.331-1.912,6.5-2.868,2.4-1.057,4.8-2.112,7.171-3.164,3.794-1.682,5.589-.567,6.426.665a4.085,4.085,0,0,1-.952,5.871c-.573.42-14.435,10.551-19.507,11.3a20.18,20.18,0,0,1-2.743.145M23.279,92.176c3.1.377,18.734,2.216,23.01,1.584,3.846-.568,14.816-8.119,18.718-10.981a2.307,2.307,0,0,0,.512-3.39c-.245-.359-.991-1.455-4.2-.031-2.372,1.052-4.773,2.109-7.177,3.166-2.99,1.315-5.985,2.632-8.934,3.947a4.319,4.319,0,0,1-3.117.768L29.915,85.514a.9.9,0,1,1,.253-1.786l12.176,1.725a2.461,2.461,0,0,0,2.788-2.006l.9.086-.888-.163a2.111,2.111,0,0,0-1.764-2.581L25.737,77.631a7.092,7.092,0,0,0-4.072.471l-3.2,1.457Z" transform="translate(-7.511 -35.161)" fill="#197d7b"/>
        <path d="M8.307,99.546a2.056,2.056,0,0,1-1.92-1.332L.132,81.58a2.054,2.054,0,0,1,1.2-2.643l6.014-2.261a2.052,2.052,0,0,1,2.643,1.2l6.255,16.635a2.055,2.055,0,0,1-1.2,2.643L9.031,99.414a2.055,2.055,0,0,1-.724.132m-.24-21.2a.246.246,0,0,0-.087.016L1.965,80.625a.248.248,0,0,0-.144.32L8.076,97.58a.247.247,0,0,0,.319.145l6.014-2.261a.249.249,0,0,0,.144-.32L8.3,78.509a.251.251,0,0,0-.232-.161" transform="translate(0 -35.546)" fill="#197d7b"/>
        <path d="M55.878,16.889,39.963,4.69l-15.914,12.2H21.3L39.963,2.443,58.623,16.889Z" transform="translate(-9.894 -1.134)" fill="#8fd7d4"/>
        <path d="M39.149,2.5,56.868,16.215h-1.7L39.54,4.232l-.391-.3-.391.3L23.125,16.215h-1.7Zm0-.813L19.55,16.858h3.793L39.149,4.743,54.955,16.858h3.793Z" transform="translate(-9.079 -0.782)" fill="#197d7b"/>
        <rect width="36.027" height="1.811" transform="translate(12.056 36.173)" fill="#8fd7d4"/>
        <path d="M57.936,68.748H22.553V67.58H57.936Zm.643-1.811H21.91v2.454H58.579Z" transform="translate(-10.175 -31.085)" fill="#197d7b"/>
      </g>
    </g>
  </g>
</svg>
