<svg xmlns="http://www.w3.org/2000/svg" width="339.507" height="101.882" viewBox="0 0 339.507 101.882">
  <g id="Group_6214" data-name="Group 6214" transform="translate(-213.872 -194.676)">
    <path id="Path_13071" data-name="Path 13071" d="M-165.024,0h2.86V-12.98h5.1V-15.4h-13.068v2.42h5.1ZM-148.5-11.88a5.237,5.237,0,0,0-3.916,1.5v-5.94h-2.75V0h2.75V-5.94c0-2.354,1.32-3.542,3.278-3.542,1.76,0,2.794,1.012,2.794,3.1V0h2.75V-6.732C-143.6-10.274-145.686-11.88-148.5-11.88Zm19.558,6.072a5.729,5.729,0,0,0-5.94-6.072,5.843,5.843,0,0,0-6.072,6.006c0,3.5,2.552,6.028,6.49,6.028a5.955,5.955,0,0,0,4.73-1.914l-1.474-1.694a4.21,4.21,0,0,1-3.19,1.276,3.556,3.556,0,0,1-3.806-2.816h9.218C-128.966-5.258-128.944-5.588-128.944-5.808Zm-5.94-3.872a3.2,3.2,0,0,1,3.322,2.86h-6.666A3.247,3.247,0,0,1-134.884-9.68Zm25.74-5.72v6.358h-7.964V-15.4h-2.86V0h2.86V-6.6h7.964V0h2.86V-15.4ZM-97.132.154a5.925,5.925,0,0,0,6.27-6.028,5.907,5.907,0,0,0-6.27-6.006,5.913,5.913,0,0,0-6.248,6.006A5.931,5.931,0,0,0-97.132.154Zm0-2.354a3.417,3.417,0,0,1-3.476-3.674,3.417,3.417,0,0,1,3.476-3.674,3.421,3.421,0,0,1,3.5,3.674A3.421,3.421,0,0,1-97.132-2.2Zm23.738-9.68a5.483,5.483,0,0,0-4.4,1.958,4.4,4.4,0,0,0-3.96-1.958,4.866,4.866,0,0,0-3.85,1.628v-1.5h-2.618V0h2.75V-5.962c0-2.332,1.232-3.52,3.058-3.52,1.672,0,2.64,1.012,2.64,3.1V0h2.75V-5.962c0-2.332,1.254-3.52,3.058-3.52,1.672,0,2.64,1.012,2.64,3.1V0h2.75V-6.732C-68.576-10.274-70.556-11.88-73.394-11.88ZM-53.9-5.808a5.729,5.729,0,0,0-5.94-6.072,5.843,5.843,0,0,0-6.072,6.006c0,3.5,2.552,6.028,6.49,6.028a5.955,5.955,0,0,0,4.73-1.914l-1.474-1.694a4.21,4.21,0,0,1-3.19,1.276,3.556,3.556,0,0,1-3.806-2.816h9.218C-53.924-5.258-53.9-5.588-53.9-5.808Zm-5.94-3.872A3.2,3.2,0,0,1-56.52-6.82h-6.666A3.247,3.247,0,0,1-59.842-9.68Zm19.624-5.72-5.17,11.88L-50.514-15.4h-3.1L-46.884,0h2.816l6.71-15.4ZM-25.83-5.808a5.729,5.729,0,0,0-5.94-6.072,5.843,5.843,0,0,0-6.072,6.006c0,3.5,2.552,6.028,6.49,6.028a5.955,5.955,0,0,0,4.73-1.914L-28.1-3.454a4.21,4.21,0,0,1-3.19,1.276,3.556,3.556,0,0,1-3.806-2.816h9.218C-25.852-5.258-25.83-5.588-25.83-5.808ZM-31.77-9.68a3.2,3.2,0,0,1,3.322,2.86h-6.666A3.247,3.247,0,0,1-31.77-9.68ZM-19.56.154c3.3,0,5.324-1.43,5.324-3.63,0-4.6-7.26-2.486-7.26-4.862,0-.77.792-1.32,2.464-1.32a6.431,6.431,0,0,1,3.366.88l1.056-2.09a9.35,9.35,0,0,0-4.4-1.012c-3.168,0-5.17,1.452-5.17,3.674,0,4.686,7.26,2.574,7.26,4.818,0,.814-.726,1.3-2.464,1.3a7.9,7.9,0,0,1-4.092-1.166l-1.056,2.09A9.334,9.334,0,0,0-19.56.154ZM-5.568-2.6a2.473,2.473,0,0,1-1.54.484c-1.056,0-1.628-.616-1.628-1.76V-9.46H-5.59v-2.2H-8.736v-2.684h-2.75v2.684h-1.936v2.2h1.936v5.654c0,2.6,1.474,3.96,4.048,3.96A4.321,4.321,0,0,0-4.8-.638ZM2.352.154a5.925,5.925,0,0,0,6.27-6.028,5.907,5.907,0,0,0-6.27-6.006A5.913,5.913,0,0,0-3.9-5.874,5.931,5.931,0,0,0,2.352.154Zm0-2.354A3.417,3.417,0,0,1-1.124-5.874,3.417,3.417,0,0,1,2.352-9.548a3.421,3.421,0,0,1,3.5,3.674A3.421,3.421,0,0,1,2.352-2.2ZM13.88-10.032v-1.716H11.262V0h2.75V-5.7c0-2.4,1.32-3.63,3.41-3.63a3.491,3.491,0,0,1,.638.066V-11.88C16.1-11.88,14.672-11.264,13.88-10.032ZM24.066.154c3.3,0,5.324-1.43,5.324-3.63,0-4.6-7.26-2.486-7.26-4.862,0-.77.792-1.32,2.464-1.32a6.431,6.431,0,0,1,3.366.88l1.056-2.09a9.35,9.35,0,0,0-4.4-1.012c-3.168,0-5.17,1.452-5.17,3.674,0,4.686,7.26,2.574,7.26,4.818,0,.814-.726,1.3-2.464,1.3A7.9,7.9,0,0,1,20.15-3.256l-1.056,2.09A9.334,9.334,0,0,0,24.066.154Zm11-16.175a4.476,4.476,0,0,0-4.543,4.53,4.47,4.47,0,0,0,4.517,4.53,4.5,4.5,0,0,0,4.543-4.556A4.418,4.418,0,0,0,35.07-16.021Zm-.026,8.354a3.737,3.737,0,0,1-3.786-3.824,3.743,3.743,0,0,1,3.811-3.824,3.69,3.69,0,0,1,3.773,3.8A3.77,3.77,0,0,1,35.044-7.667Zm2.348-4.594c0-1.065-.8-1.758-2.13-1.758h-2.1v5.056h1.1V-10.5H35.4l1,1.54h1.1L36.379-10.7A1.576,1.576,0,0,0,37.393-12.261Zm-3.144.9v-1.784h.95c.719,0,1.129.321,1.129.885s-.411.9-1.129.9ZM59.82,0h2.992L55.86-15.4H53.044L46.114,0h2.948L50.58-3.564h7.7ZM51.548-5.808,54.43-12.54l2.9,6.732Zm21.6-10.516V-10.3a4.811,4.811,0,0,0-3.784-1.584,5.7,5.7,0,0,0-5.94,6.006A5.717,5.717,0,0,0,69.368.154a4.844,4.844,0,0,0,3.894-1.672V0H75.9V-16.324ZM69.7-2.2a3.433,3.433,0,0,1-3.5-3.674,3.433,3.433,0,0,1,3.5-3.674,3.433,3.433,0,0,1,3.5,3.674A3.433,3.433,0,0,1,69.7-2.2ZM87.87-11.748,84.108-3.036l-3.652-8.712H77.6L82.634,0h2.838L90.51-11.748Zm8.47-.132a8.26,8.26,0,0,0-4.972,1.452l1.078,2A5.816,5.816,0,0,1,96.01-9.592c1.958,0,2.926.946,2.926,2.552v.176H95.9c-3.564,0-4.884,1.54-4.884,3.5,0,2.046,1.694,3.52,4.378,3.52a4.163,4.163,0,0,0,3.7-1.584V0h2.6V-6.886C101.686-10.274,99.728-11.88,96.34-11.88ZM95.966-1.848c-1.408,0-2.244-.638-2.244-1.628,0-.858.506-1.562,2.376-1.562h2.838v1.364A3,3,0,0,1,95.966-1.848ZM111.872-11.88a5.108,5.108,0,0,0-4.048,1.65v-1.518h-2.618V0h2.75V-5.94c0-2.354,1.32-3.542,3.278-3.542,1.76,0,2.794,1.012,2.794,3.1V0h2.75V-6.732C116.778-10.274,114.688-11.88,111.872-11.88Zm14.7,9.284a2.473,2.473,0,0,1-1.54.484c-1.056,0-1.628-.616-1.628-1.76V-9.46h3.146v-2.2H123.4v-2.684h-2.75v2.684h-1.936v2.2h1.936v5.654c0,2.6,1.474,3.96,4.048,3.96a4.321,4.321,0,0,0,2.64-.792Zm7.524-9.284a8.26,8.26,0,0,0-4.972,1.452l1.078,2a5.816,5.816,0,0,1,3.564-1.166c1.958,0,2.926.946,2.926,2.552v.176h-3.036c-3.564,0-4.884,1.54-4.884,3.5,0,2.046,1.694,3.52,4.378,3.52a4.163,4.163,0,0,0,3.7-1.584V0h2.6V-6.886C139.438-10.274,137.48-11.88,134.092-11.88Zm-.374,10.032c-1.408,0-2.244-.638-2.244-1.628,0-.858.506-1.562,2.376-1.562h2.838v1.364A3,3,0,0,1,133.718-1.848Zm18.392-9.9v1.562a5.087,5.087,0,0,0-4.07-1.694c-3.366,0-5.94,2.244-5.94,5.654a5.612,5.612,0,0,0,5.94,5.7,5.171,5.171,0,0,0,3.938-1.562v.616c0,2.376-1.144,3.564-3.74,3.564A7.1,7.1,0,0,1,143.9.682L142.672,2.75a9.337,9.337,0,0,0,5.72,1.672c4.114,0,6.336-1.936,6.336-6.2v-9.966ZM148.458-2.86a3.331,3.331,0,0,1-3.586-3.366,3.31,3.31,0,0,1,3.586-3.322,3.3,3.3,0,0,1,3.564,3.322A3.324,3.324,0,0,1,148.458-2.86ZM169.38-5.808a5.729,5.729,0,0,0-5.94-6.072,5.843,5.843,0,0,0-6.072,6.006c0,3.5,2.552,6.028,6.49,6.028a5.955,5.955,0,0,0,4.73-1.914l-1.474-1.694a4.21,4.21,0,0,1-3.19,1.276,3.556,3.556,0,0,1-3.806-2.816h9.218C169.358-5.258,169.38-5.588,169.38-5.808ZM163.44-9.68a3.2,3.2,0,0,1,3.322,2.86H160.1A3.247,3.247,0,0,1,163.44-9.68Z" transform="translate(384 211)"/>
    <g id="Group_6204" data-name="Group 6204" transform="translate(-1120.399 -178.442)">
      <g id="Rectangle_6459" data-name="Rectangle 6459" transform="translate(1401.245 430.442)" fill="#f1fafa" stroke="#f1fafa" stroke-width="1">
        <path d="M0,0H58a0,0,0,0,1,0,0V36a8,8,0,0,1-8,8H8a8,8,0,0,1-8-8V0A0,0,0,0,1,0,0Z" stroke="none"/>
        <path d="M.5.5h57a0,0,0,0,1,0,0V36A7.5,7.5,0,0,1,50,43.5H8A7.5,7.5,0,0,1,.5,36V.5A0,0,0,0,1,.5.5Z" fill="none"/>
      </g>
      <g id="Rectangle_6460" data-name="Rectangle 6460" transform="translate(1475.348 430.442)" fill="#f1fafa" stroke="#f1fafa" stroke-width="1">
        <path d="M0,0H58a0,0,0,0,1,0,0V36a8,8,0,0,1-8,8H8a8,8,0,0,1-8-8V0A0,0,0,0,1,0,0Z" stroke="none"/>
        <path d="M.5.5h57a0,0,0,0,1,0,0V36A7.5,7.5,0,0,1,50,43.5H8A7.5,7.5,0,0,1,.5,36V.5A0,0,0,0,1,.5.5Z" fill="none"/>
      </g>
      <g id="Rectangle_6461" data-name="Rectangle 6461" transform="translate(1549.45 430.442)" fill="#f1fafa" stroke="#f1fafa" stroke-width="1">
        <path d="M0,0H58a0,0,0,0,1,0,0V36a8,8,0,0,1-8,8H8a8,8,0,0,1-8-8V0A0,0,0,0,1,0,0Z" stroke="none"/>
        <path d="M.5.5h57a0,0,0,0,1,0,0V36A7.5,7.5,0,0,1,50,43.5H8A7.5,7.5,0,0,1,.5,36V.5A0,0,0,0,1,.5.5Z" fill="none"/>
      </g>
      <g id="Rectangle_6453" data-name="Rectangle 6453" transform="translate(1401.245 417.442)" fill="#8fd7d4" stroke="#8fd7d4" stroke-width="1">
        <path d="M8,0H50a8,8,0,0,1,8,8v6a0,0,0,0,1,0,0H0a0,0,0,0,1,0,0V8A8,8,0,0,1,8,0Z" stroke="none"/>
        <path d="M8,.5H50A7.5,7.5,0,0,1,57.5,8v5.5a0,0,0,0,1,0,0H.5a0,0,0,0,1,0,0V8A7.5,7.5,0,0,1,8,.5Z" fill="none"/>
      </g>
      <g id="Rectangle_6454" data-name="Rectangle 6454" transform="translate(1475.348 417.442)" fill="#8fd7d4" stroke="#8fd7d4" stroke-width="1">
        <path d="M8,0H50a8,8,0,0,1,8,8v6a0,0,0,0,1,0,0H0a0,0,0,0,1,0,0V8A8,8,0,0,1,8,0Z" stroke="none"/>
        <path d="M8,.5H50A7.5,7.5,0,0,1,57.5,8v5.5a0,0,0,0,1,0,0H.5a0,0,0,0,1,0,0V8A7.5,7.5,0,0,1,8,.5Z" fill="none"/>
      </g>
      <g id="Rectangle_6462" data-name="Rectangle 6462" transform="translate(1549.45 417.442)" fill="#8fd7d4" stroke="#8fd7d4" stroke-width="1">
        <path d="M8,0H50a8,8,0,0,1,8,8v6a0,0,0,0,1,0,0H0a0,0,0,0,1,0,0V8A8,8,0,0,1,8,0Z" stroke="none"/>
        <path d="M8,.5H50A7.5,7.5,0,0,1,57.5,8v5.5a0,0,0,0,1,0,0H.5a0,0,0,0,1,0,0V8A7.5,7.5,0,0,1,8,.5Z" fill="none"/>
      </g>
      <path id="calendar_today_FILL0_wght400_GRAD0_opsz24" d="M126.456-815.442a6.217,6.217,0,0,1-4.559-1.9A6.217,6.217,0,0,1,120-821.9v-45.191a6.217,6.217,0,0,1,1.9-4.559,6.216,6.216,0,0,1,4.559-1.9h45.191a6.216,6.216,0,0,1,4.559,1.9,6.217,6.217,0,0,1,1.9,4.559V-821.9a6.217,6.217,0,0,1-1.9,4.559,6.217,6.217,0,0,1-4.559,1.9ZM121.9-821.9a5.443,5.443,0,0,0,1.21,3.208,6.386,6.386,0,0,0,3.349,1.352h45.191a6.281,6.281,0,0,0,3.3-1.353,5.674,5.674,0,0,0,1.264-3.206v-36.861H121.9Zm0-38.741,54.31.006v-6.456a5.707,5.707,0,0,0-1.231-3.292,5.946,5.946,0,0,0-3.329-1.268s-44.273-.049-45.191,0a5.023,5.023,0,0,0-3.271,1.571,5.365,5.365,0,0,0-1.289,2.989Zm0,0v0Z" transform="translate(1281.245 1290.442)" fill="#197d7b"/>
      <path id="calendar_today_FILL0_wght400_GRAD0_opsz24-2" data-name="calendar_today_FILL0_wght400_GRAD0_opsz24" d="M126.456-815.442a6.217,6.217,0,0,1-4.559-1.9A6.217,6.217,0,0,1,120-821.9v-45.191a6.217,6.217,0,0,1,1.9-4.559,6.216,6.216,0,0,1,4.559-1.9h45.191a6.216,6.216,0,0,1,4.559,1.9,6.217,6.217,0,0,1,1.9,4.559V-821.9a6.217,6.217,0,0,1-1.9,4.559,6.217,6.217,0,0,1-4.559,1.9ZM121.9-821.9a5.443,5.443,0,0,0,1.21,3.208,6.386,6.386,0,0,0,3.349,1.352h45.191a6.281,6.281,0,0,0,3.3-1.353,5.674,5.674,0,0,0,1.264-3.206v-36.861H121.9Zm0-38.741,54.31.006v-6.456a5.707,5.707,0,0,0-1.231-3.292,5.946,5.946,0,0,0-3.329-1.268s-44.273-.049-45.191,0a5.023,5.023,0,0,0-3.271,1.571,5.365,5.365,0,0,0-1.289,2.989Zm0,0v0Z" transform="translate(1355.348 1290.442)" fill="#197d7b"/>
      <path id="calendar_today_FILL0_wght400_GRAD0_opsz24-3" data-name="calendar_today_FILL0_wght400_GRAD0_opsz24" d="M126.456-815.442a6.217,6.217,0,0,1-4.559-1.9A6.217,6.217,0,0,1,120-821.9v-45.191a6.217,6.217,0,0,1,1.9-4.559,6.216,6.216,0,0,1,4.559-1.9h45.191a6.216,6.216,0,0,1,4.559,1.9,6.217,6.217,0,0,1,1.9,4.559V-821.9a6.217,6.217,0,0,1-1.9,4.559,6.217,6.217,0,0,1-4.559,1.9ZM121.9-821.9a5.443,5.443,0,0,0,1.21,3.208,6.386,6.386,0,0,0,3.349,1.352h45.191a6.281,6.281,0,0,0,3.3-1.353,5.674,5.674,0,0,0,1.264-3.206v-36.861H121.9Zm0-38.741,54.31.006v-6.456a5.707,5.707,0,0,0-1.231-3.292,5.946,5.946,0,0,0-3.329-1.268s-44.273-.049-45.191,0a5.023,5.023,0,0,0-3.271,1.571,5.365,5.365,0,0,0-1.289,2.989Zm0,0v0Z" transform="translate(1429.45 1290.442)" fill="#197d7b"/>
      <g id="Rectangle_6455" data-name="Rectangle 6455" transform="translate(1444.245 411.442)" fill="#ffdd05" stroke="#197d7b" stroke-linecap="round" stroke-width="1.5">
        <rect width="5" height="13" rx="2.5" stroke="none"/>
        <rect x="0.75" y="0.75" width="3.5" height="11.5" rx="1.75" fill="none"/>
      </g>
      <g id="Rectangle_6456" data-name="Rectangle 6456" transform="translate(1518.348 411.442)" fill="#ffdd05" stroke="#197d7b" stroke-linecap="round" stroke-width="1.5">
        <rect width="5" height="13" rx="2.5" stroke="none"/>
        <rect x="0.75" y="0.75" width="3.5" height="11.5" rx="1.75" fill="none"/>
      </g>
      <g id="Rectangle_6464" data-name="Rectangle 6464" transform="translate(1592.45 411.442)" fill="#ffdd05" stroke="#197d7b" stroke-linecap="round" stroke-width="1.5">
        <rect width="5" height="13" rx="2.5" stroke="none"/>
        <rect x="0.75" y="0.75" width="3.5" height="11.5" rx="1.75" fill="none"/>
      </g>
      <g id="Rectangle_6457" data-name="Rectangle 6457" transform="translate(1411.245 411.442)" fill="#ffdd05" stroke="#197d7b" stroke-linecap="round" stroke-width="1.5">
        <rect width="5" height="13" rx="2.5" stroke="none"/>
        <rect x="0.75" y="0.75" width="3.5" height="11.5" rx="1.75" fill="none"/>
      </g>
      <g id="Rectangle_6458" data-name="Rectangle 6458" transform="translate(1485.348 411.442)" fill="#ffdd05" stroke="#197d7b" stroke-linecap="round" stroke-width="1.5">
        <rect width="5" height="13" rx="2.5" stroke="none"/>
        <rect x="0.75" y="0.75" width="3.5" height="11.5" rx="1.75" fill="none"/>
      </g>
      <g id="Rectangle_6463" data-name="Rectangle 6463" transform="translate(1559.45 411.442)" fill="#ffdd05" stroke="#197d7b" stroke-linecap="round" stroke-width="1.5">
        <rect width="5" height="13" rx="2.5" stroke="none"/>
        <rect x="0.75" y="0.75" width="3.5" height="11.5" rx="1.75" fill="none"/>
      </g>
      <path id="Path_13074" data-name="Path 13074" d="M.16,8.6v5.7H4V31h7.552V8.6Z" transform="translate(1423.694 431.442)" fill="#ffdd05" stroke="#168d85" stroke-width="2"/>
      <path id="Path_13073" data-name="Path 13073" d="M11.3-5.856l3.2-2.912c3.264-2.944,3.84-4.928,3.84-7.136,0-4.256-3.744-7.008-9.056-7.008-4.832,0-8.064,2.112-9.7,5.184l5.7,2.848a3.664,3.664,0,0,1,3.3-2.08c1.44,0,2.176.672,2.176,1.76,0,.768-.224,1.632-1.76,3.072L.9-4.64V0H18.848V-5.856Z" transform="translate(1494.899 462.442)" fill="#ffdd05" stroke="#168d85" stroke-width="2"/>
      <path id="Path_13072" data-name="Path 13072" d="M13.5-13.536l4.16-4.224V-22.4H.96v5.7h8l-3.3,3.36V-8.7H8.64c1.92,0,2.656.576,2.656,1.536,0,1.152-1.216,1.728-2.912,1.728A12.259,12.259,0,0,1,2.368-7.072L-.192-1.5A19,19,0,0,0,8.64.512c7.168,0,10.24-3.84,10.24-7.68C18.88-10.272,17.024-12.672,13.5-13.536Z" transform="translate(1568.501 462.442)" fill="#ffdd05" stroke="#168d85" stroke-width="2"/>
    </g>
  </g>
</svg>
