<svg xmlns="http://www.w3.org/2000/svg" xmlns:xlink="http://www.w3.org/1999/xlink" width="62.703" height="54" viewBox="0 0 62.703 54">
  <defs>
    <clipPath id="clip-path">
      <rect width="62.703" height="54" fill="none"/>
    </clipPath>
  </defs>
  <g transform="translate(0 0)">
    <g transform="translate(0 0)" clip-path="url(#clip-path)">
      <path d="M37.41,21.1a7.414,7.414,0,0,0,7.406,11.519l13.546-2.449,1.882,10.414A4.249,4.249,0,0,1,56.828,45.5l-43.75,7.908a4.249,4.249,0,0,1-4.923-3.416l-6.4-35.418A4.247,4.247,0,0,1,5.17,9.661L15.583,7.778l-2.657,9.085,2.834,3.786-3.033,7,10.4,9.951-4.159-11.08,7.586-5.671-4.923-3.416L26.687,5.771,48.92,1.752a4.246,4.246,0,0,1,4.922,3.409l1.883,10.42L42.18,18.03A7.374,7.374,0,0,0,37.41,21.1" transform="translate(-0.582 -0.582)" fill="#8fd7d4"/>
      <path d="M11.741,54a5.349,5.349,0,0,1-5.253-4.39L.086,14.192a5.351,5.351,0,0,1,4.306-6.2L14.805,6.111a1.1,1.1,0,0,1,1.255,1.4l-2.5,8.556,2.5,3.345a1.1,1.1,0,0,1,.129,1.1l-2.728,6.3,6.354,6.078-2.459-6.553a1.1,1.1,0,0,1,.371-1.271l6.36-4.754-3.664-2.543a1.1,1.1,0,0,1-.384-1.344L25.093,4.751a1.1,1.1,0,0,1,.815-.648L48.142.085a5.345,5.345,0,0,1,6.2,4.3L56.229,14.8a1.1,1.1,0,0,1-.888,1.282L41.794,18.534a6.307,6.307,0,0,0,2.244,12.412L57.583,28.5a1.1,1.1,0,0,1,1.282.889L60.747,39.8a5.346,5.346,0,0,1-4.305,6.206L12.693,53.915a5.372,5.372,0,0,1-.952.085m1.7-45.4L4.785,10.164A3.142,3.142,0,0,0,2.257,13.8l6.4,35.418A3.14,3.14,0,0,0,12.3,51.743l43.751-7.908a3.138,3.138,0,0,0,2.526-3.641l-1.686-9.329L44.43,33.118a8.517,8.517,0,0,1-8.508-13.232h0a8.458,8.458,0,0,1,5.48-3.521l12.46-2.252L52.176,4.777a3.137,3.137,0,0,0-3.64-2.521L26.883,6.17l-4.458,10.3,4.181,2.9a1.1,1.1,0,0,1,.031,1.79l-6.923,5.175,3.868,10.306a1.1,1.1,0,0,1-1.794,1.185l-10.4-9.952a1.1,1.1,0,0,1-.25-1.236l2.78-6.416-2.451-3.274a1.1,1.1,0,0,1-.176-.971Z" transform="translate(0 0)" fill="#197d7b"/>
      <path d="M75.938,22.313,60.311,25.138a7.41,7.41,0,0,0,2.636,14.583L78.574,36.9a2.119,2.119,0,0,0,1.7-2.464L78.4,24.018a2.115,2.115,0,0,0-2.458-1.705M62.193,35.552a3.176,3.176,0,1,1,2.561-3.69,3.175,3.175,0,0,1-2.561,3.69" transform="translate(-18.713 -7.689)" fill="#f1fafa"/>
      <path d="M61.045,40.363a8.513,8.513,0,0,1-1.512-16.891L75.16,20.647A3.223,3.223,0,0,1,78.9,23.242l1.882,10.414A3.221,3.221,0,0,1,78.188,37.4L62.561,40.227a8.563,8.563,0,0,1-1.517.136M75.553,22.818,59.925,25.643a6.306,6.306,0,0,0,2.244,12.412L77.8,35.231a1.015,1.015,0,0,0,.815-1.182L76.728,23.634a1.013,1.013,0,0,0-1.175-.816M61.037,36.126a4.293,4.293,0,1,1,.77-.069,4.323,4.323,0,0,1-.77.069m.014-6.354a2.073,2.073,0,1,0,1.177.37,2.061,2.061,0,0,0-1.177-.37" transform="translate(-18.131 -7.109)" fill="#197d7b"/>
      <path d="M66.984,35.536a3.176,3.176,0,1,1-3.69-2.561,3.175,3.175,0,0,1,3.69,2.561" transform="translate(-20.943 -11.363)" fill="#ffdd05"/>
      <path d="M63.267,39.8a4.293,4.293,0,1,1,.77-.069,4.323,4.323,0,0,1-.77.069m.014-6.354a2.073,2.073,0,1,0,1.177.37,2.061,2.061,0,0,0-1.177-.37" transform="translate(-20.361 -10.781)" fill="#e72113"/>
      <path d="M32.378,23.007l-7.587,5.671,4.159,11.08-10.4-9.952,3.033-7-2.834-3.787L21.4,9.932l11.1-2.007L27.455,19.592Z" transform="translate(-6.401 -2.735)" fill="#ffdd05"/>
      <path d="M28.369,40.28a1.1,1.1,0,0,1-.762-.306L17.2,30.022a1.1,1.1,0,0,1-.25-1.236l2.78-6.416L17.281,19.1a1.1,1.1,0,0,1-.175-.97L19.763,9.04a1.1,1.1,0,0,1,.862-.776l11.1-2.007a1.1,1.1,0,0,1,1.209,1.525L28.245,18.619l4.18,2.9a1.1,1.1,0,0,1,.032,1.79l-6.923,5.174L29.4,38.789a1.1,1.1,0,0,1-1.033,1.49M19.283,28.959l6.354,6.078-2.46-6.553a1.1,1.1,0,0,1,.373-1.271l6.36-4.754-3.665-2.543a1.1,1.1,0,0,1-.384-1.344L30.1,8.794l-8.406,1.519-2.31,7.9,2.5,3.345a1.1,1.1,0,0,1,.129,1.1Z" transform="translate(-5.82 -2.153)" fill="#197d7b"/>
    </g>
  </g>
</svg>
