<svg xmlns="http://www.w3.org/2000/svg" xmlns:xlink="http://www.w3.org/1999/xlink" width="60.348" height="64" viewBox="0 0 60.348 64">
  <defs>
    <clipPath id="clip-path">
      <rect width="60.348" height="64" fill="none"/>
    </clipPath>
    <clipPath id="clip-path-3">
      <rect width="7.728" height="8.231" fill="none"/>
    </clipPath>
    <clipPath id="clip-path-4">
      <rect width="7.728" height="8.232" fill="none"/>
    </clipPath>
  </defs>
  <g clip-path="url(#clip-path)">
    <path d="M7.331,59.8V24.269H1.685L30.857,1.685,60.029,24.269H54.383V59.8Z" transform="translate(-0.683 -0.683)" fill="#f1fafa"/>
    <path d="M7.331,24.269,30.857,6.237,54.383,24.269h5.646L30.857,1.684,1.685,24.269Z" transform="translate(-0.683 -0.683)" fill="#8fd7d4"/>
    <g>
      <g clip-path="url(#clip-path)">
        <path d="M57.551,27.694a.994.994,0,0,1-.608-.207L34.026,9.922,11.109,27.487A1,1,0,0,1,9.891,25.9L33.417,7.866a1,1,0,0,1,1.218,0L58.16,25.9a1,1,0,0,1-.609,1.8" transform="translate(-3.852 -3.106)" fill="#197d7b"/>
        <path d="M53.7,60.116a1,1,0,0,1-1-1V23.586a1,1,0,0,1,1-1h2.717L30.174,2.267,3.93,22.584H6.648a1,1,0,0,1,1,1V59.114a1,1,0,1,1-2,0V24.587H1a1,1,0,0,1-.613-1.793L29.561.209a1,1,0,0,1,1.226,0L59.959,22.794a1,1,0,0,1-.613,1.793H54.7V59.114a1,1,0,0,1-1,1" transform="translate(0 0)" fill="#197d7b"/>
        <rect width="13.98" height="23.534" transform="translate(12.835 35.811)" fill="#e72113"/>
        <path d="M34.887,84.093H20.907a1,1,0,0,1-1-1V59.558a1,1,0,0,1,1-1h13.98a1,1,0,0,1,1,1V83.092a1,1,0,0,1-1,1m-12.979-2H33.885V60.559H21.908Z" transform="translate(-8.072 -23.746)" fill="#197d7b"/>
        <rect width="15.694" height="12.3" transform="translate(32.899 35.797)" fill="#fff"/>
        <path d="M70.353,72.834H54.659a1,1,0,0,1-1-1v-12.3a1,1,0,0,1,1-1H70.353a1,1,0,0,1,1,1v12.3a1,1,0,0,1-1,1m-14.693-2H69.351v-10.3H55.66Z" transform="translate(-21.76 -23.737)" fill="#197d7b"/>
        <path d="M67.859,72.859a1,1,0,0,1-1-1v-12.3a1,1,0,1,1,2,0v12.3a1,1,0,0,1-1,1" transform="translate(-27.113 -23.746)" fill="#197d7b"/>
        <path d="M70.353,70.88H54.659a1,1,0,1,1,0-2H70.353a1,1,0,1,1,0,2" transform="translate(-21.76 -27.932)" fill="#197d7b"/>
        <path d="M80.3,89.88a4.748,4.748,0,0,0-8.956-.554,4.75,4.75,0,0,0-4.225,4.72c0,.115.009.228.017.34H83.55A4.751,4.751,0,0,0,80.3,89.88" transform="translate(-27.217 -35.041)" fill="#197d7b"/>
        <path d="M82.94,94.67H66.524a.892.892,0,0,1-.89-.829c-.012-.159-.02-.28-.02-.4a5.632,5.632,0,0,1,4.513-5.528,5.641,5.641,0,0,1,10.277.679,5.632,5.632,0,0,1,3.429,5.189.892.892,0,0,1-.892.893m-15.5-1.785H81.943a3.85,3.85,0,0,0-2.537-2.767.894.894,0,0,1-.578-.607,3.856,3.856,0,0,0-7.273-.449.892.892,0,0,1-.726.542,3.849,3.849,0,0,0-3.391,3.281" transform="translate(-26.608 -34.432)" fill="#197d7b"/>
        <rect width="54.58" height="3.652" transform="translate(2.884 59.346)" fill="#8fd7d4"/>
        <path d="M58.748,103.8H4.168a1,1,0,0,1-1-1V99.147a1,1,0,0,1,1-1h54.58a1,1,0,0,1,1,1V102.8a1,1,0,0,1-1,1m-53.579-2H57.746v-1.65H5.169Z" transform="translate(-1.284 -39.801)" fill="#197d7b"/>
        <path d="M13.695,22.1V11.19h9.532V14.3" transform="translate(-5.554 -4.538)" fill="#f1fafa"/>
        <path d="M13.011,22.419a1,1,0,0,1-1-1V10.507a1,1,0,0,1,1-1h9.532a1,1,0,0,1,1,1v3.106a1,1,0,1,1-2,0v-2.1h-7.53v9.909a1,1,0,0,1-1,1" transform="translate(-4.87 -3.855)" fill="#197d7b"/>
        <path d="M60.919,39.642l1.419-1.49A6.342,6.342,0,0,0,62.12,29.2L42.749,10.75a6.342,6.342,0,0,0-8.956.219l-1.419,1.49a6.343,6.343,0,0,0,.219,8.956l19.37,18.446a6.343,6.343,0,0,0,8.956-.219" transform="translate(-12.421 -3.652)" fill="#197d7b"/>
        <rect width="11.478" height="11.154" transform="matrix(0.69, -0.724, 0.724, 0.69, 26.938, 21.964)" fill="#fd0"/>
        <path d="M34.821,21.347a4.716,4.716,0,0,1-.163-6.659l1.419-1.49a4.717,4.717,0,0,1,6.66-.163l4.47,4.257L39.291,25.6Z" transform="translate(-13.529 -4.76)" fill="#ffdd05"/>
        <path d="M65.352,50.357,60.882,46.1,68.8,37.788l4.47,4.256a4.717,4.717,0,0,1,.162,6.66l-1.419,1.49a4.715,4.715,0,0,1-6.659.163" transform="translate(-24.69 -15.324)" fill="#ffdd05"/>
        <path d="M65.6,35.046a.916.916,0,1,0,.032,1.295.917.917,0,0,0-.032-1.295" transform="translate(-25.974 -14.11)" fill="#197d7b"/>
        <path d="M62.306,38.5a.916.916,0,1,0,.032,1.295.916.916,0,0,0-.032-1.295" transform="translate(-24.64 -15.511)" fill="#197d7b"/>
        <path d="M59.047,43.252a.916.916,0,1,0-1.295.032.916.916,0,0,0,1.295-.032" transform="translate(-23.305 -16.913)" fill="#197d7b"/>
        <path d="M62.064,31.682a.916.916,0,1,0,.032,1.295.916.916,0,0,0-.032-1.295" transform="translate(-24.541 -12.745)" fill="#197d7b"/>
        <path d="M58.773,35.138a.916.916,0,1,0,.032,1.295.916.916,0,0,0-.032-1.295" transform="translate(-23.207 -14.147)" fill="#197d7b"/>
        <path d="M55.482,38.593a.916.916,0,1,0,.032,1.295.916.916,0,0,0-.032-1.295" transform="translate(-21.872 -15.548)" fill="#197d7b"/>
        <path d="M58.531,28.317a.916.916,0,1,0,.032,1.295.916.916,0,0,0-.032-1.295" transform="translate(-23.109 -11.381)" fill="#197d7b"/>
        <path d="M55.24,31.773a.916.916,0,1,0,.032,1.295.916.916,0,0,0-.032-1.295" transform="translate(-21.774 -12.782)" fill="#197d7b"/>
        <path d="M51.949,35.229a.916.916,0,1,0,.032,1.295.916.916,0,0,0-.032-1.295" transform="translate(-20.44 -14.184)" fill="#197d7b"/>
        <path d="M61.984,11.452l-1.49-1.419a6.342,6.342,0,0,0-8.956.219L33.092,29.622a6.342,6.342,0,0,0,.219,8.956L34.8,40a6.343,6.343,0,0,0,8.956-.219L62.2,20.408a6.343,6.343,0,0,0-.219-8.956" transform="translate(-12.712 -3.361)" fill="#197d7b"/>
        <rect width="11.154" height="11.479" transform="translate(26.933 21.734) rotate(-46.4)" fill="#ffdd05"/>
        <path d="M43.688,50.926a4.716,4.716,0,0,1-6.659.163l-1.49-1.419a4.717,4.717,0,0,1-.163-6.66l4.257-4.47,8.312,7.916Z" transform="translate(-13.82 -15.629)" fill="#ffdd05"/>
        <path d="M72.7,20.4l-4.257,4.47L60.13,16.95l4.256-4.47a4.717,4.717,0,0,1,6.66-.162l1.49,1.419A4.715,4.715,0,0,1,72.7,20.4" transform="translate(-24.385 -4.469)" fill="#ffdd05"/>
        <path d="M57.388,28.345a.916.916,0,1,0,1.295-.032.916.916,0,0,0-1.295.032" transform="translate(-23.17 -11.38)" fill="#168d85"/>
        <path d="M60.843,31.636a.916.916,0,1,0,1.295-.032.916.916,0,0,0-1.295.032" transform="translate(-24.571 -12.714)" fill="#168d85"/>
        <path d="M65.593,34.895a.916.916,0,1,0,.032,1.295.916.916,0,0,0-.032-1.295" transform="translate(-25.973 -14.048)" fill="#168d85"/>
        <path d="M54.023,31.878a.916.916,0,1,0,1.295-.032.916.916,0,0,0-1.295.032" transform="translate(-21.805 -12.812)" fill="#168d85"/>
        <path d="M57.479,35.169a.916.916,0,1,0,1.295-.032.916.916,0,0,0-1.295.032" transform="translate(-23.207 -14.147)" fill="#168d85"/>
        <path d="M60.935,38.46a.916.916,0,1,0,1.295-.032.916.916,0,0,0-1.295.032" transform="translate(-24.608 -15.481)" fill="#168d85"/>
        <path d="M50.659,35.411a.916.916,0,1,0,1.295-.032.916.916,0,0,0-1.295.032" transform="translate(-20.441 -14.245)" fill="#168d85"/>
        <path d="M54.114,38.7a.916.916,0,1,0,1.295-.032.916.916,0,0,0-1.295.032" transform="translate(-21.842 -15.58)" fill="#168d85"/>
        <path d="M57.57,41.993a.916.916,0,1,0,1.295-.032.916.916,0,0,0-1.295.032" transform="translate(-23.244 -16.914)" fill="#168d85"/>
        <path d="M38.189,42.06a7.282,7.282,0,0,1-5.053-2.021l-1.49-1.419a7.345,7.345,0,0,1-.253-10.372l3.454-3.627L31.22,21.167A7.343,7.343,0,0,1,30.966,10.8l1.42-1.49a7.344,7.344,0,0,1,10.372-.253l3.627,3.454,3.454-3.627a7.344,7.344,0,0,1,10.372-.253l1.49,1.419a7.345,7.345,0,0,1,.254,10.372L58.5,24.044,62.127,27.5A7.343,7.343,0,0,1,62.38,37.87l-1.419,1.49a7.345,7.345,0,0,1-10.372.253l-3.627-3.454-3.454,3.627a7.285,7.285,0,0,1-5.134,2.271l-.185,0M37.7,9.034l-.135,0a5.3,5.3,0,0,0-3.732,1.65l-1.42,1.49a5.342,5.342,0,0,0,.185,7.541l4.352,4.145a1,1,0,0,1,.035,1.415L32.842,29.63a5.34,5.34,0,0,0,.185,7.541l1.49,1.419a5.343,5.343,0,0,0,7.541-.184L46.2,34.053a1,1,0,0,1,1.415-.034l4.352,4.145a5.341,5.341,0,0,0,7.541-.184l1.418-1.49a5.34,5.34,0,0,0-.184-7.541L56.394,24.8a1,1,0,0,1-.034-1.415L60.5,19.035a5.34,5.34,0,0,0-.184-7.541l-1.49-1.419a5.341,5.341,0,0,0-7.541.184l-4.144,4.353a1,1,0,0,1-1.415.034L41.376,10.5A5.3,5.3,0,0,0,37.7,9.034" transform="translate(-11.738 -2.679)" fill="#197d7b"/>
        <g transform="translate(15.961 38.582)" opacity="0.1" style="mix-blend-mode: multiply;isolation: isolate">
          <g>
            <g clip-path="url(#clip-path-3)">
              <path d="M29.619,73.134H27.146a.3.3,0,0,1-.3-.3V65.2a.3.3,0,0,1,.3-.3h2.472a.3.3,0,0,1,.3.3v7.637a.3.3,0,0,1-.3.3m-2.175-.594h1.878V65.5H27.443Z" transform="translate(-26.849 -64.902)" fill="#231f20"/>
              <path d="M37.459,73.134H34.986a.3.3,0,0,1-.3-.3V65.2a.3.3,0,0,1,.3-.3h2.473a.3.3,0,0,1,.3.3v7.637a.3.3,0,0,1-.3.3m-2.176-.594h1.878V65.5H35.283Z" transform="translate(-30.028 -64.902)" fill="#231f20"/>
            </g>
          </g>
        </g>
        <g transform="translate(15.961 48.221)" opacity="0.1" style="mix-blend-mode: multiply;isolation: isolate">
          <g>
            <g clip-path="url(#clip-path-4)">
              <path d="M29.619,89.348H27.146a.3.3,0,0,1-.3-.3V81.413a.3.3,0,0,1,.3-.3h2.472a.3.3,0,0,1,.3.3V89.05a.3.3,0,0,1-.3.3m-2.175-.594h1.878V81.71H27.443Z" transform="translate(-26.849 -81.116)" fill="#231f20"/>
              <path d="M37.459,89.348H34.986a.3.3,0,0,1-.3-.3V81.413a.3.3,0,0,1,.3-.3h2.473a.3.3,0,0,1,.3.3V89.05a.3.3,0,0,1-.3.3m-2.176-.594h1.878V81.71H35.283Z" transform="translate(-30.028 -81.116)" fill="#231f20"/>
            </g>
          </g>
        </g>
        <path d="M52.22,39.867a1,1,0,0,1-.682-.269l-9.382-8.743a1,1,0,0,1-.05-1.415l8.743-9.382a1,1,0,0,1,1.415-.05l9.382,8.743a1,1,0,0,1,.05,1.415l-8.743,9.381a1,1,0,0,1-.733.319m-7.966-9.8,7.917,7.379,7.379-7.917-7.917-7.378Z" transform="translate(-16.966 -8.005)" fill="#197d7b"/>
      </g>
    </g>
  </g>
</svg>
