
<svg version="1.1" id="Layer_1" xmlns="http://www.w3.org/2000/svg" xmlns:xlink="http://www.w3.org/1999/xlink" x="0px" y="0px"
	 viewBox="0 0 1470 295" style="enable-background:new 0 0 1470 295;" xml:space="preserve">
<style type="text/css">
	.st0{fill:#221F1F;}
	.st1{fill:#1DBBB0;}
	.st2{fill:#EF3F35;}
	.st3{fill:#FEDF15;}
	.st4{fill:#231F20;}
</style>
<g>
	<path class="st0" d="M139.4,116.3c-0.5-0.3-0.7-0.6-0.7-0.6c-0.7,0.8,0,1.9-0.2,3.1l-0.2-1.1c-0.2,0.6,2.3,28.9,0,33.6l-2.5-0.8
		c-0.7,2.2-2.1-0.8-3.2,1.1c-0.2,0.8-0.2,1.7,0,2.8l0.5,0.6l-0.7-0.6c-0.2-0.8-0.7-1.1-0.9-1.1c-0.2,1.1-2.3,1.1-1.6,1.9
		c0-0.3-0.5-0.3-1.2-0.3c-0.2,0.8,0.7,1.1,0.9,1.9c-0.7-0.3-1.2-1.7-2.1-1.4c0,1.1-0.5-0.3-1.2,0.8c0.2,0.3,0.7,0.8,0.9,1.4
		c-0.7,1.9-1.4-1.1-2.1-0.3c-0.2,0.3-0.2,0.8,0,1.4l-1.8-1.4c-1.6,0-0.9,1.9-2.1,2.2h-0.5c-0.2-0.8-0.9-1.1-1.8-0.6v1.1h-0.5h-0.2
		c-2.8-1.9-5.3-5-9-5.8v0.6l-0.5-0.8h0.2c-0.5-0.6-0.7-0.8-0.9-0.6v0.6l0.2,0.3h-0.5c-1.8-1.9-3.2-3.1-5.1-5c0,0,0,0.3-0.2,0.6
		c-3.7-5.6-7.6-10.6-11.3-16.4c-2.8-5.3-7.1-13.6-12.4-23.6l-0.2-0.3c-3,20-7.1,23.9-15.7,35.8c-2.5,1.4-4.1,2.8-6.9,3.1
		c-0.2-0.3,1.2-0.6,0-1.7c0-0.3,0.7-1.7-0.2-1.9c0-0.8,0.2-0.8,0.2-1.1l-0.7-0.3c0-0.8,0.7-0.6,0.7-1.4c-0.7-0.3-1.4,1.7-2.3,0.8
		c-1.6,0.8-3.5,1.7-5.1,0.8c0.7,0,0.7-0.8,0-0.8c-0.2-0.8-0.7-0.3-0.9-0.6c0,0-0.2-0.3-0.7-0.6c-0.7,0.8-0.9,0-1.6-0.8l0.5-0.6
		c-0.2-0.3-0.7,0-1.4,0.6h-0.2l0.2-0.3c0.2-0.3,0.2-0.3,0-0.6c-1.2,0.3-1.6-0.3-2.8,0.6c0-0.3,0.7-0.3,0.7-1.1
		c-0.9-0.8-0.9,0.6-1.8,0.6c-0.7-1.1,0.2-1.1-0.5-2.2c-0.7,0.8-0.9,1.1-1.2,0.8c-0.2-1.4-1.2-0.8-2.1-1.9c0.9-1.1-0.7,0,0-1.9
		c1.2-2.5-0.2-3.9,0-1.7c-2.1,4.7-1.6,2.8-0.7,0.3l-0.9-0.8l-0.9-0.6c-2.1-0.8-2.5-1.7-3.2-4.2c-2.8-1.1-3.2-2.8-5.1-4.7
		c-2.1-2.5-3.7-4.4-6.7-10c-2.8-5.3-4.6-9.4-5.5-12.5c-0.9-3.3-2.3-7.5-4.1-12.2C4.6,75.5,2,61.6,2,46.9c0.2-1.1,0-1.9,0-2.8
		c0.7,0,1.2,0.6,1.4,1.4c0.9-1.1,0-2.8,0.2-4.2c0.9-0.3,1.4,0.3,2.1-0.6c-0.7-2.2,1.8-2.2,1.8-4.4c0.5,0,0.9-0.3,1.6-1.1
		c0.7,1.1,0.9,0.6,1.2,0.8v-0.8c0.5,0,0.7,0.3,0.9,0.8c0.2-0.3,0.2-0.6,0.2-0.8c0.9,0,1.8,1.1,2.8,1.9l-0.7-1.9l1.6,1.4l-0.2-3.1
		c3,3.3,4.4,7.8,6.5,12.2l-0.2-3.6L20,36.6C29.9,53,35.7,83.9,49.3,98c3-10.3,4.8-24.4,6-36.4c-0.5-1.4-0.7-2.2-0.7-2.5
		c0.9-0.3,0.2,0-0.5-0.3l0.5-0.8c0-0.8,0.7-2.8,1.4-3.9c0.7-4.4,1.2-8.3,1.8-11.4c0.7,0,0.7,3.1,1.6,2.8c0.2,0.3,0.2,0.3,0.2,0.6
		c0,0.8,0,1.1,0.2,1.4c0,0,0.2,0,0.7-0.3l0.2-3.3c0.2,1.1,2.8,0,3.7-0.3c0-0.3,0.5-0.3,1.2-0.3c1.2-0.8,1.8-1.9,2.5-3.3
		c0.2,0.6,0.5,0.6,1.2-0.3l1.4-1.1c0.7,1.4,2.8,0,3.7,2.2V40c0.2,1.1,1.2,1.1,1.8,2.2l1.6,5.3l0.5,0.6c4.8,8.1,25.6,45.3,30,53.6
		c0.2,0.8,0.5,1.1,0.7,1.1c0.2-3.1,0.9-6.9,2.1-11.7c1.2-4.7,2.1-7.8,2.3-9.2l0.5-2.2l1.8-6.7c1.4-5.6,4.1-23.1,6.5-27.5
		c-0.7,8.3-9.2,45-11.1,53.9v2.5c0.7,0,0.5-0.3,1.2-0.3c1.6-6.4,1.8-10.6,3.7-16.4c-0.7-0.8,0.2-3.1,0.2-4.2
		c3-5.8,10.4-52.2,11.1-58.6l0.7-0.3l1.4-8.9c0.7-3.6,4.1-0.8,6.5-2.8c3,0.8,7.6-2.2,9.5,1.4c1.8-0.3,2.5,1.1,4.1,0.3l1.6,2.8
		c0.2,1.1,0.7,1.1,1.4,0c1.2-0.3,0.9,1.7,1.6,1.9c0,15.6-10.6,72.8-12.9,88.1C140.1,108.6,139.4,113,139.4,116.3z"/>
	<path class="st0" d="M232.9,65.1l0.4,0.2c-4.2,0.9-6.5,2.5-10.9,3.3c-2.9,1.6-5.8,3.3-8.7,4.2c-7.1,2.5-13.8,4.5-22.1,4.7l-0.2,0.2
		c0,2.9-0.7,5.1,0,8c3.6-0.7,7.8-0.4,11.4-0.2c-3.3,0-8-0.2-11.8,0.9c0,0,0.4-0.2,0.4,0.4c6-0.7,11.2-0.4,17.4-0.4l4,0.9
		c0,0.7,0.4,1.1,1.1,0.9c0.2,0.7-0.2,1.3,0.4,2.2h1.1c-0.2,0-0.2,0-0.2,0.2c0,0.4,0,0.7,0.2,0.7l0.9,0.4c-0.2,0.9-0.4,1.8-0.2,2.5
		c0.2,1.1,1.6-0.2,1.6,0.4c-0.7,0.7-1.8,0.7-1.1,1.3c0,1.1,2,0.9,1.1,2c0.7,0.7-0.2,1.1,0.7,1.3h0.4c-0.2,0.7-0.4,1.3-0.2,1.6
		c0,0,0.2,0,0.4,0.2c-0.7,0.9-2,1.8-1.3,2.9c0,0.7-0.4,0.2-0.7,0.9l1.3,1.6l-2.9,1.8c0.2,0.7,0.2,0.9-0.2,0.9c0.9,0.7,2,0.4,2.9,0.7
		c0,0.7-0.2,0.9-0.9,0.9c-4.5,0-6.7,3.6-11.2,2.9c-4.5,0.7-9.2-0.2-13.4,0.4l-0.7,0.2l0.4,5.4c7.1,0.7,13.4,2.9,20.8,3.8
		c-7.4-0.7-13.6-3.3-20.8-2.7c-0.2,0-0.4,0.2-0.4,0.9c6.5,0.9,13.2,1.6,19.2,4c1.8-0.7,1.3,0.7,2.2,1.6c0,0.7-0.4,0.9,0.2,1.6h0.4
		l-0.9,0.7c0.7,0.9,1.6,0.2,1.6,0.9c0.9-0.2,0.9,0.7,1.6,1.3c-1.1,1.8,2.2,1.1,1.1,3.1c-0.7,0.9-2,0-2.7,0.7
		c-0.9,0.7,0.2,0.9-0.7,1.1l0.7-0.2c-0.9,1.8,1.3,4.5-1.3,5.6c0.7,0.9-1.3,2.5,0.4,3.1c0.2,0.9-0.4,1.1-1.1,1.8
		c-0.4-0.2-0.9-0.2-1.1,0c-0.2,0.7-0.4,0.9-0.4,0.9c0.7,0.2,1.6,0.9,0.9,1.8c0.4,0,0.9,0.2,1.6,0.7c-2.7,1.1-5.6,0.2-8.3,1.1
		c-5.1,0.7-8.7-1.1-12.9-1.8c-7.8-1.1-15.6,0-21.9-4.5V145c0-1.6-2.2-1.8-2.2-3.6c-1.1,0,0-1.6-1.8-1.6c-0.7-0.7-1.1-0.4-1.3,0.2
		c0-0.7-0.2-1.1-0.9-1.1c-1.1,0-1.6-0.2-1.6-0.9c0-0.2-0.2-0.4-0.7-0.7c-0.2-0.2-0.4,0.2-0.7,0.2l0.2,0.7c-1.6-3.8,0.2-8.3-1.3-12.7
		c0.2-13.4-0.4-26.3-0.4-40c0-3.3,0.9-6.5,1.6-9.8c0-0.9-1.6-0.7-1.6-1.8c-0.7-0.9,0.9-1.1,0.9-1.8c0.9-2,0.2-4.7,1.8-6.5
		c0.2-1.6-1.1-2.9,0.4-4.5c-1.3-2.5,2.9-2.2,0.2-4.9c0.7-0.7-1.6-1.3,0-2.2c5.1-4.7,12.1-2.9,18.5-4.2c8.7-2,17.4-1.8,26.6-2.7v-0.4
		h1.1c1.1-0.2,2-0.4,2.7-0.7c0.9,0.7,2-0.4,3.1-0.4c0,0.7-1.1,0.9,0,1.6c3.8-1.1,7.4-0.4,11.2-1.1c0.7,0.7,0.9-0.2,1.6,0.4
		c-0.7,0.9-0.9,1.1,0,2.2c0,0.2,0.4,0.2,1.1,0.2c0,0.7-0.2,0.4-0.2,0.4c1.1,0.7,2.7,0,3.8,0c-0.2,1.1-0.7,1.1-0.9,2.7
		c-0.7,0.4-0.7,0.9-0.4,1.6c0.9,1.6,1.8,0.2,2.7,0.4c0,0.7,0.2,0.9,0.9,1.1c-0.7,0.7-0.9,1.1-0.9,1.3c0.9,0.7-0.2,0.7,0.4,0.9
		l0.7,0.7l-0.2,0.2l0.9,0.2c-0.2,0.7-1.8,1.3,0,2.2c-0.2,0-0.4,0.2-1.1,0.7c0,0.7,0.4,1.6,1.1,2.2C234,63.7,234,64.4,232.9,65.1z"/>
	<path class="st0" d="M286.7,132.6l-0.5-5.7c-3-20.8-3.8-48.7-3.8-71.6c1-0.8,0-1,0-1.8c0-3.9-0.3-8.1,0.5-11.5
		c-0.8-2.9,0-6.2-0.3-8.6c-0.2-7.3-1-15.4-0.7-22.6c1,1,1.8-1,2-0.3c0.7-0.3,2.3-0.8,4.3-1.3c0.2,0.5,0.5,0.8,0.5,0.8s0.2,0,0.7,0.3
		l-0.2-2.6l1.3,2.6c1,0.3-0.8-1.3,0.2-2.1c0.8,1,2.8,3.4,3.5,3.1c2.3,1,1.8,2.6,3.8,2.3l1,1c10.3-5.2,21-10.2,33.3-10.9
		C344,5.8,359,4.3,363.7,17.3c3,6.5,3,16.7-1,23.2c-3,5.2-7,9.9-11.3,14.1c-4.8,2.3-8.5,6-11.5,7c1,1,2.8,0.8,3.8,1.8
		c10.8,5.2,18.8,14.8,21,26c1.8,7.6,4.8,15.4,2.8,23.4c-0.2,6.2-4,10.9-6,16.9c-4,6-7,11.5-13,16.4c3.8-4.9,10.8-15.4,11.5-20.3
		c-6.8,11.2-11.5,21.6-16.3,25.8c-2,2.6-31.5,16.1-34.5,15.6c-0.7,0.3-1.8,0.5-3.3,0.5c-3.3-0.8-3-4.4-6.3-4.7
		c-0.2-2.1-2.5-0.8-3.8-1.6c-2.3-1.8-3.8-3.1-5.5-4.9c2.3-1.8,4-3.4,6-5.7c0.8-0.8,3.3-3.6,2.5-3.6l-2,0.8c-0.2,0.3-0.7,0.3-1.5,0.3
		c-0.2,0-0.2,0-0.5,0.3c-1-0.3-2.3,0.5-3.3,0.5c-0.7-0.3,1-3.6,0-3.6c-0.7-0.8-2.8-0.3-3.5-1l0.5-2.1
		C287.7,137.8,286.9,134.7,286.7,132.6z M308.7,39.9c1,8,3,15.8,3,23.8h1.2c5.8-5.3,12.8-9.5,18-15.3h0.5c3.3-3.3,4.8-7.3,5.5-12
		v-0.5C326.9,35.6,316.9,36.6,308.7,39.9z M325.2,118.7c4.3-6.8,7.5-14.3,6.8-22.3c0.5-8-13.8-9-19-7c-3.3,6-0.7,12.5-0.7,18.5
		l0.7,13.8c-0.2,0.8-0.2,2.3,0.5,4.5l-0.2,2.3C318.9,125.2,323.4,122,325.2,118.7z"/>
	<path class="st0" d="M457.1,147.9c-0.9,0.2-1.1,0.7-0.7,1.6H456c-0.2-0.7-1.1-0.4-1.8-0.4v1.3c0-1.6-0.7-1.1-1.6-2
		c-0.7,0.9,0,1.1,0,2c-0.4,0.7-0.4,0.9,0,0.9c-0.4,0.2-1.1,0-2-0.9c-0.9,0.7,0,0.7,0,1.3c-0.7-1.3-1.8-2-3.6-2c-0.7,0.9,1.1,2-0.4,2
		c-0.9-1.6-1.3-0.4-2.9-2V149c-0.4,0-0.7,0.2-0.7,0.4V149c-1.6,0-0.9,1.3-0.9,2.2c-0.7-0.9,0.2-2.2-1.3-2.2c-1.6,0-3.3,2-4.9,0h-0.7
		c-2.7-2-3.8-1.8-4.9-5.4c-1.1-4-0.4-1.3-1.6-5.4c-1.6,0-1.1,1.3-2.7,1.3l-4,1.3c-10.7,3.3-21.9,2.2-25.5,1.3
		c-2.9-1.1-5.4-2.5-8.3-3.1c-1.1-1.6-3.6-2.9-4.2-4.7c-3.8-3.8-6.9-7.4-7.6-12.7c-1.6-6.3,0.2-11.2-1.3-16.7c-1.1-6.9,0-40.9,0-43.1
		c1.6-6.9,2.7-15.8,5.6-21.9c1.6,0.7,1.6,1.8,1.6,2.7l1.1-2.7l-0.7,2.7c1.6-2.5,3.3-4.2,4.9-6c0.7,0,1.3,1.1,1.3,1.8l0.9,3.3
		c1.6-0.9,0.7-2.5,2.7-2.5v-0.9c1.6,0.9,1.3,0.2,2.2-0.4c1.6,0,3.3-0.2,4.9,0.4l2-1.3c1.8,6.9-0.4,12.7-2.5,18.8
		c-2.7,12.7-2.9,56.5,8,62.5c5.4,3.3,12.5,1.6,18.8,1.8h0.9c-1.1-2.9-3.1-38.6-3.1-51.8c0.9-6.5,1.1-12.3,3.1-19.2
		c1.8-1.6-0.2-3.1,0.4-4.7v-1.3c1.6,0.9,1.3-1.3,2.9-1.1c0.9-1.6,5.1,1.3,6.7-0.2c0.2,0.2,0.2,0.4,0.2,0.9c1.6-1.1,2.7-1.3,3.6-0.9
		v0.2h0.2c0,0,0.2,0,0.7-0.2c-0.2,0-0.4,0-0.4-0.2c0-0.7,0.2-0.9,0.4-1.1c1.6,0.7,1.8,2,2.7,2.7c1.6,0.9,1.1,2,2.7,2.7v4
		c0.9,13.8,4.2,71,7.1,78.6c0.7,5.4-0.2,2.2,0.4,7.4c0.9,1.6,1.8,3.1,1.8,4.7c1.1,3.8,1.1,4.5,4,7.8v0.7l-1.3,0.2
		C459.1,149.4,457.8,148.8,457.1,147.9z"/>
	<path class="st0" d="M488.6,151.7c-0.7-0.2,1.1-0.7,0-1.3c0-0.2,0.4-1.1-0.4-2c0.2,0,0.4-0.2,0.4-0.4l-0.7-0.7c0-0.2,0.7,0,0.7-0.7
		c-0.7-0.9-1.3,0.7-2.5,0.7c-1.6,0-2.9,1.3-4.5,0.7c0.4-0.2,0.4-0.7,0-0.9c-0.7-0.7-0.9-0.2-1.1-0.4l-0.7-0.7
		c-0.7,0.9-0.7-0.2-1.6-0.4c0.4,0,0.7-0.2,0.7-0.7c-0.2,0-0.9,0.2-1.6,0.7h-0.4h0.4v-0.7c-0.9,0.7-1.6-0.2-2.7,0.7
		c0-0.9,0.4-0.7,0.4-0.9c-0.7-0.7-0.7,0.2-1.6,0.2c-0.7-0.7,0-0.9-0.2-1.6c-0.7,0-0.7,0.4-1.3,0.2c-0.2-0.7-1.1-0.2-2-1.3
		c0.9-0.7-1.1-1.3-0.2-2.5c1.6-6.5,6.3-11.4,9.8-17.4c3.3-7.8,6.9-15.2,10.7-21.7c-1.6-2.5-4.2-2-4.9-4.5c-2.7-0.7-3.1-2.2-4.9-3.8
		c-2.7-1.8-3.6-3.8-6.5-8c-5.4-8.3-6.3-12.3-9.6-20.1c-4.7-10.3-7.1-21.4-7.1-33.3c0.2-0.7,0-1.3,0-2.2c0.2,0,0.7,0.2,1.3,0.9
		c0.9-0.7,0.2-2,0.2-3.1c0.9-0.2,1.3,0.2,2-0.4c-0.7-1.8,1.6-1.8,1.8-3.6c0.4,0,0.9-0.2,1.6-0.9c0.2,0.9,0.9,0.4,1.1,0.4v-0.4
		c0.4,0,0.7,0.2,0.9,0.4c0.2-0.2,0.2-0.4,0-0.4c0.9,0,2.2,0.9,2.5,1.6l-0.2-1.6l1.6,1.1l-0.2-2.2c2.9,2.5,4.2,6,6.3,9.8l-0.4-3.1V26
		l-0.9-3.3c9.6,13.2,15,37.5,28.4,49.6c5.1-13.8,5.8-34.6,8.3-44.6c0.7,0,0.7,2.9,1.6,2c-0.2-0.2,0.9,2,0.9,2.7l0.4-3.8
		c0.2,1.1,2.7,0,3.6-0.2c0-0.2,0.4-0.2,1.1-0.2c0.7-0.9,1.8-1.8,2-2.5c0.7,0.2,1.1,0,1.6-0.7l1.3-0.7c0.7,1.6,2.7,0,3.6,1.8v-0.4
		c0.2,0.7,1.1,0.7,1.8,1.6c1.8,4.7,3.1,8.9,4.7,13.6c-1.1,1.1,0,2,0,3.8c0,6,1.1,11.4,0.2,17.4c-3.6,34.2-27.5,74.3-39.3,87.3
		C493,150.3,491.2,151.4,488.6,151.7z"/>
	<path class="st0" d="M672.5,145.1c-1,0.3-1.3,0.8-0.8,1.9h-0.5c-0.2-0.8-1.2-0.5-2-0.5v1.6c0-1.9-0.7-1.4-1.8-2.4
		c-0.7,1.1,0,1.4,0,2.4c-0.5,0.8-0.5,1.1,0,1.1c-0.5,0.3-1.2,0-2.3-1.1c-1,0.8,0,0.8,0,1.6c-0.8-1.6-2-2.4-4-2.4
		c-0.8,1.1,1.3,2.4-0.5,2.4c-1-1.9-1.5-0.5-3.3-2.4v-0.8c-0.5,0-0.7,0.3-0.7,0.5v-0.5c-1.8,0-1,1.6-1,2.7c-0.7-1.1,0.3-2.7-1.5-2.7
		c-1.8,0-3.8,2.4-5.5,0H648c-3-2.4-4.3-2.2-5.5-6.5c-1.2-4.9-0.5-1.6-1.8-6.5c-1.8,0-1.3,1.6-3,1.6l-4.5,1.6
		c-12,4.1-24.5,2.7-28.5,1.6c-3.3-1.4-6-3-9.3-3.8c-1.2-1.9-4-3.5-4.8-5.7c-4.3-4.6-7.8-8.9-8.5-15.5c-1.8-7.6,0.3-13.6-1.5-20.3
		c-1.3-8.4,0-49.6,0-52.3c1.8-8.4,3-19.2,6.3-26.6c1.8,0.8,1.8,2.2,1.8,3.3l1.3-3.3l-0.8,3.3c1.8-3,3.8-5.2,5.5-7.3
		c0.7,0,1.5,1.4,1.5,2.2l1,4.1c1.8-1.1,0.8-3,3-3v-1.1c1.8,1.1,1.5,0.3,2.5-0.5c1.8,0,3.8-0.3,5.5,0.5l2.3-1.6
		c2,8.4-0.5,15.5-2.8,22.8c-3,15.5-3.3,68.6,9,75.9c6,4.1,14,1.9,21,2.2h1c-1.2-3.5-3.5-46.9-3.5-62.9c1-7.9,1.3-14.9,3.5-23.3
		c2-1.9-0.2-3.8,0.5-5.7V18c1.8,1.1,1.5-1.6,3.3-1.4c1-1.9,5.8,1.6,7.5-0.3c0.3,0.3,0.3,0.5,0.3,1.1c1.8-1.4,3-1.6,4-1.1v0.3h0.3
		c0,0,0.2,0,0.7-0.3c-0.2,0-0.5,0-0.5-0.3c0-0.8,0.3-1.1,0.5-1.4c1.8,0.8,2,2.4,3,3.3c1.7,1.1,1.2,2.4,3,3.3v4.9
		c1,16.8,4.8,86.2,8,95.4c0.8,6.5-0.2,2.7,0.5,8.9c1,1.9,2,3.8,2,5.7c1.3,4.6,1.3,5.4,4.5,9.5v0.8l-1.5,0.3
		C674.8,147,673.3,146.2,672.5,145.1z"/>
	<path class="st0" d="M752.4,167.5c-0.7,1.8-1.1-0.2-2,0.4l-1.6,0.9c-0.2-0.7-0.4,0-0.7,0c-0.9-1.8-2,0.9-2.9,0
		c-0.7,1.1-1.1,2.5-2,2.7c-1.6-1.6-2.7,1.1-4.2-0.4c0-1.6,0.4-2.9-1.1,0c-4.7,16.3,0-0.2,0-3.6c-0.4,0.2-0.9,0.9-1.3,2
		c-1.1-2-3.1-0.2-4.7-2.2c-0.7-0.9-0.7,0.9-1.6,0.2c-1.8-1.1,0-4.7-2.5-3.8c-1.1,0.2-1.8,2.9-2.7,1.3c0.9-2,1.8-5.6,3.8-6.3
		c0.9-2.5,1.6-4.2,2.2-6.9c-13.6,0.9-28.4-1.6-37.5-7.8c-7.1-4-19.9-26.1-16.3-42c-0.2-9.2,4.5-21,10.7-30.1c2-2.9,5.6-8.7,7.6-11.6
		c4.7-4,13.2-14.5,15-15.6c2-2.5,5.1-2.5,7.1-4c2-0.7,3.3,1.3,5.1,0.7l-0.4,0.9c0.9,0.7,2.5-2.2,3.3-0.7c0.4,0.2,1.1-0.2,2.2-0.9
		c1.6,1.1,0.2,0.4-0.4,2.2c0.7,0,1.8-1.1,2.5-1.1c0-0.2,0.9-0.7,0.2,2.2c0.9,0,0.9-0.2,2-1.1c0,0-0.2,0.4-0.7,1.6
		c0,0.7,0.4,0.7,1.3,0.2c0.7,0.7,2.2-0.4,2.2,0.7c-0.2,0.9,0.9,0.7,0.9,1.3c-0.9,0.4-1.3,0.7-1.3,0.9c0.2,0.7,0.7,0.9,1.6,0.2
		c1.1-0.7,1.3-0.7,1.1,0.4c-0.9,0.2-1.6,1.1-2.2,1.1c-0.7,0.7-1.3,0.4-1.3,1.1c0.9,1.6,2.7-0.7,3.6,0c0.7,0-0.2,0.7,0,0.9
		c2.9-0.2,6-2.2,7.8-2.9L745,49c-1.8,1.6-3.6,2-4.7,3.8v0.9c0,0.9,0.7,1.6,1.8,1.8c0.2,0.9,1.3-0.2,0.7,0.7c-5.6,3.3-6,2-12.1,4.9
		c-6,2.5-13.8,11.4-16.3,13.8c-10.9,10.3-13.6,31.5-5.1,41.7c2.9,4,17.9,6.5,23.2,7.6c-0.9-2-0.7-4.5-1.3-6.5
		c-0.7-3.3-2-8.5-2.7-11.8c-1.1-3.3-4.7-5.8-2.7-8.5h0.4c0.9,0,1.1-0.9,1.3-1.6c0.7,0,0.9-0.7,1.6,0c1.1,0,1.6-0.4,1.6-1.1
		c0.9,0,4,0.7,4.9,0.4v-0.9l0.7,0.2c0.7,0,4.9-1.1,5.8-1.1c0.7,0,1.3,0.9,2.2,0.7c2.7,0.9,7.8,6,8.7,8.7h0.2
		c2.5,8.3,5.8,18.1,5.1,26.3c-0.4,8.3,1.6,22.8-1.3,29.9C756,162.2,754.4,165.1,752.4,167.5z"/>
	<path class="st0" d="M825.8,133.6c-0.2,0.7-1.3,0.2-0.7,0.9c0.7,0.9-0.9,1.1,0,1.8c-0.9,0-2.5,0.7-3.1,0.7c0,0.4,0.2,0.7,0.4,0.9
		c0.7,0,0.4-0.2,1.1-0.2v0.7c-0.2-0.2-0.4,0-0.4,0.7c-0.9,0.7,0.2,0.2,0.4,0.4h0.7c-1.1,0.2-2.7,0.4-3.6,1.1
		c-0.2,1.6,1.6,0.9,2.2,1.1c-0.7,0,0.2,0.7-0.7,0.7c0.2,0,0.4-0.2,1.1,0.4c-0.7,0.2-1.3-0.7-1.6,0c0.4,0.9,0.4,1.8,0.2,2.9l-0.2,0.9
		c-2.7,0.9-5.1,2.2-8,2.9l-0.7,0.7c-11.4,1.1-23,2.9-33.5-0.9c-2.9,0-4.9-1.8-7.4-2.7c-0.7-0.7,0.2-0.9,1.1-1.6h0.7
		c0-0.7-0.4-1.3-1.6-2c0.7,0,1.1,0.7,1.3,0c-0.2-0.9-1.1-1.3-1.3-2.2c-0.2-0.7,1.1-0.4,0.9-1.3c-0.9-0.7-2-0.2-2.7-1.1
		c-2.9-1.8-3.1-5.6-2.2-8.5c-1.1-0.7-0.4-1.8-0.7-2.9c-0.7-3.6,1.3-6.5,0.7-9.8c0.7-1.8-0.7-2.5,0.2-4c-0.7-2.5-0.2-4.7,0.9-7.1
		c-0.2,0,4-25,3.8-25c0-1.6,0.2-2.9,0.7-4.5c0-3.3,0.9-6.5,1.6-9.8c0.9-5.1,2.7-9.8,3.8-14.3c0.7-2,0.9-3.1,1.1-4.9
		c1.1,0,2,0.2,2.7,0.7c0.7-0.7-0.2-2.2,1.3-2.5c0.2,0.9,0.7-0.4,0.9,0.2c0.4-0.2,0.9-0.4,1.6-0.2c1.6,1.6,2.7-2.2,5.1-0.2
		c0.7-0.9,2.5-1.3,3.6-1.1c0,0.7,0.2,0.9,0.7,0.9c1.1-1.8,2,0.9,3.1,0c0.2,0.2,0.4,0.4,0.7,1.1h0.9c0.2-0.9,0-0.9,0.2-1.6
		c0.9,0.9,0.2,1.8,1.1,2c0.2-0.2,0.4-0.4,0.4-0.9c-0.4-0.2-0.7-0.7-0.7-1.1c0.4,0.7,0.7,1.1,0.7,1.1c0.2,0.4,0.4,0.9,1.1,1.1h0.7
		c0.7,17.4-8.9,57.6-8.3,74.8c0,0.2,0.7,0,0.9,0.2c-0.9,0.7-1.1,1.6-0.9,2.9l0.7,0.4c6.9-1.6,14.5,0.2,21.7-0.7
		c0.7,1.8,2.5,0.7,3.3,0.9c-0.2,0-0.4,0.2-0.4,0.4c0,0.2,0.2,0.4,0.9,0.4c-0.2,0,1.1,0.2,1.1,0.4l-1.6,0.2c-0.2-0.2-0.4,0-0.4,0.7
		c0,0.4,0,0.7,0.2,0.7c-0.2,0-0.7,0-0.9,0.2c-0.4,0.7-0.4,0.9,0,1.1c0.9,0,6-0.4,7.1-0.4c-0.9,1.6-7.4,0.2-7.4,2.5
		c1.1,0.9,7.1,0.9,8.3,0.2c-0.7,0.9-1.6,0.7-1.6,1.3C828.1,133.6,825.6,134.3,825.8,133.6z"/>
	<path class="st0" d="M855.5,151.7c-0.7-0.2,1.1-0.7,0-1.3c0-0.2,0.4-1.1-0.4-2c0.2,0,0.4-0.2,0.4-0.4l-0.7-0.7c0-0.2,0.7,0,0.7-0.7
		c-0.7-0.9-1.3,0.7-2.5,0.7c-1.6,0-2.9,1.3-4.5,0.7c0.4-0.2,0.4-0.7,0-0.9c-0.7-0.7-0.9-0.2-1.1-0.4l-0.7-0.7
		c-0.7,0.9-0.7-0.2-1.6-0.4c0.4,0,0.7-0.2,0.7-0.7c-0.2,0-0.9,0.2-1.6,0.7h-0.4h0.4v-0.7c-0.9,0.7-1.6-0.2-2.7,0.7
		c0-0.9,0.4-0.7,0.4-0.9c-0.7-0.7-0.7,0.2-1.6,0.2c-0.7-0.7,0-0.9-0.2-1.6c-0.7,0-0.7,0.4-1.3,0.2c-0.2-0.7-1.1-0.2-2-1.3
		c0.9-0.7-1.1-1.3-0.2-2.5c1.6-6.5,6.3-11.4,9.8-17.4c3.3-7.8,6.9-15.2,10.7-21.7c-1.6-2.5-4.2-2-4.9-4.5c-2.7-0.7-3.1-2.2-4.9-3.8
		c-2.7-1.8-3.6-3.8-6.5-8c-5.4-8.3-6.3-12.3-9.6-20.1c-4.7-10.3-7.1-21.4-7.1-33.3c0.2-0.7,0-1.3,0-2.2c0.2,0,0.7,0.2,1.3,0.9
		c0.9-0.7,0.2-2,0.2-3.1c0.9-0.2,1.3,0.2,2-0.4c-0.7-1.8,1.6-1.8,1.8-3.6c0.4,0,0.9-0.2,1.6-0.9c0.2,0.9,0.9,0.4,1.1,0.4v-0.4
		c0.4,0,0.7,0.2,0.9,0.4c0.2-0.2,0.2-0.4,0-0.4c0.9,0,2.2,0.9,2.5,1.6l-0.2-1.6l1.6,1.1l-0.2-2.2c2.9,2.5,4.2,6,6.3,9.8l-0.4-3.1V26
		l-0.9-3.3c9.6,13.2,15,37.5,28.4,49.6c5.1-13.8,5.8-34.6,8.3-44.6c0.7,0,0.7,2.9,1.6,2c-0.2-0.2,0.9,2,0.9,2.7l0.4-3.8
		c0.2,1.1,2.7,0,3.6-0.2c0-0.2,0.4-0.2,1.1-0.2c0.7-0.9,1.8-1.8,2-2.5c0.7,0.2,1.1,0,1.6-0.7l1.3-0.7c0.7,1.6,2.7,0,3.6,1.8v-0.4
		c0.2,0.7,1.1,0.7,1.8,1.6c1.8,4.7,3.1,8.9,4.7,13.6c-1.1,1.1,0,2,0,3.8c0,6,1.1,11.4,0.2,17.4c-3.6,34.2-27.5,74.3-39.3,87.3
		C860,150.3,858.2,151.4,855.5,151.7z"/>
	<g>
		<rect x="958.8" y="175.8" width="97.2" height="113.6"/>
		<rect x="971.8" y="186.4" class="st1" width="24" height="92.6"/>
		<rect x="1020.6" y="186.4" class="st2" width="23.6" height="92.2"/>
		<polygon class="st3" points="1007.6,211.6 965.4,237.1 1050.3,237.1 		"/>
		<path class="st3" d="M1013.5,260c2.2,0,3.9-1.8,3.9-3.9c0-2.2-1.8-3.9-3.9-3.9c-2.2,0-3.9,1.8-3.9,3.9
			C1009.6,258.3,1011.3,260,1013.5,260"/>
		<polygon class="st1" points="1071.4,244.4 1071.4,185.8 1085.9,185.8 1085.9,207.5 1093.6,207.5 1093.6,185.8 1108,185.8 
			1108,244.4 1093.6,244.4 1093.6,216.4 1085.9,216.4 1085.9,244.4 		"/>
		<path class="st1" d="M1123.7,234c0,1.9,0.6,3.7,3.1,3.7c2.5,0,3.1-1.8,3.1-3.7v-26.5c0-1.9-0.6-3.7-3.1-3.7
			c-2.5,0-3.1,1.8-3.1,3.7V234z M1141.5,231.5c0,10.8-7,13.8-14.7,13.8c-7.7,0-14.7-3-14.7-13.8V210c0-10.8,7-13.8,14.7-13.8
			c7.7,0,14.7,3,14.7,13.8V231.5z"/>
		<polygon class="st1" points="1155,244.4 1145.7,244.4 1145.7,197.1 1162.8,197.1 1167.7,230.7 1167.8,230.7 1172.7,197.1 
			1189.5,197.1 1189.5,244.4 1179,244.4 1179,204 1178.9,204 1172.1,244.4 1161.9,244.4 1155.1,204 1155,204 		"/>
		<polygon class="st1" points="1194.1,244.4 1194.1,197.1 1217.1,197.1 1217.1,204.3 1205.7,204.3 1205.7,214.7 1216.7,214.7 
			1216.7,221.8 1205.7,221.8 1205.7,237.2 1217.1,237.2 1217.1,244.4 		"/>
		<polygon class="st1" points="1254,244.4 1254,197.1 1277.1,197.1 1277.1,204.3 1265.7,204.3 1265.7,214.7 1276.6,214.7 
			1276.6,221.8 1265.7,221.8 1265.7,237.2 1277.1,237.2 1277.1,244.4 		"/>
		<polygon class="st1" points="1216.9,185.8 1231.3,185.8 1234.8,234.4 1234.9,234.4 1241.2,185.8 1253.6,185.8 1244.3,244.4 
			1225.3,244.4 		"/>
		<path class="st1" d="M1298,214.1v-6.6c0-2.3-0.8-3.6-3.1-3.6c-2.5,0-4.2,1.3-4.2,3.6c0,8,17.8,10.3,17.8,24.9
			c0,8.9-5.1,13-14.8,13c-7.4,0-14.7-2.4-14.7-10.5V226h10.5v8.2c0,2.8,0.9,3.6,3.1,3.6c1.9,0,4.2-0.8,4.2-3.6
			c0-10.7-17.8-10.9-17.8-26.1c0-8.6,6-11.8,14.9-11.8c7.9,0,14.5,2.5,14.5,10.4v7.4H1298z"/>
		<polygon class="st1" points="1309.4,204.3 1309.4,197.1 1335.1,197.1 1335.1,204.3 1328.1,204.3 1328.1,244.4 1316.4,244.4 
			1316.4,204.3 		"/>
		<path class="st1" d="M1347.2,234c0,1.9,0.6,3.7,3.1,3.7c2.5,0,3.1-1.8,3.1-3.7v-26.5c0-1.9-0.6-3.7-3.1-3.7
			c-2.5,0-3.1,1.8-3.1,3.7V234z M1365,231.5c0,10.8-7,13.8-14.7,13.8c-7.7,0-14.7-3-14.7-13.8V210c0-10.8,7-13.8,14.7-13.8
			c7.7,0,14.7,3,14.7,13.8V231.5z"/>
		<path class="st1" d="M1380.2,216c5.3,0,6.1-1.7,6.1-6.1c0-4.4-0.8-6-6.1-6V216z M1368.5,244.4v-47.2h11.7c11.1,0,17.7,1.1,17.7,11
			c0,5.9-2.6,9.7-8.9,10.7v0.1c5.6,0.1,8.9,2.1,8.9,8.9v9.9c0,1.9,0.4,4.6,1.8,6.6H1388c-1.4-1.9-1.7-4.7-1.7-6.6v-10
			c0-3.3-2.1-5-4.2-5h-1.9v21.6H1368.5z"/>
		<path class="st1" d="M1419.9,214.1v-6.6c0-2.3-0.8-3.6-3.1-3.6c-2.5,0-4.2,1.3-4.2,3.6c0,8,17.8,10.3,17.8,24.9
			c0,8.9-5.1,13-14.8,13c-7.4,0-14.7-2.4-14.7-10.5V226h10.5v8.2c0,2.8,0.9,3.6,3.1,3.6c1.9,0,4.2-0.8,4.2-3.6
			c0-10.7-17.8-10.9-17.8-26.1c0-8.6,6-11.8,15-11.8c7.9,0,14.5,2.5,14.5,10.4v7.4H1419.9z"/>
		<path d="M1080.1,266l-1.8,6.5h3.7L1080.1,266z M1070.8,278.7l6.4-18.2h6l6.4,18.2h-5.8l-0.7-2.4h-5.8l-0.7,2.4H1070.8z"/>
		<polygon points="1090.1,278.7 1090.1,260.5 1097.1,260.5 1100.3,271.8 1103.5,260.5 1110.5,260.5 1110.5,278.7 1105.3,278.7 
			1105.3,273.1 1105.3,270.3 1105.6,267 1105.6,267 1102.3,278.7 1098.3,278.7 1095,267 1095,267 1095.2,269.7 1095.3,272.5 
			1095.3,278.7 		"/>
		<polygon points="1112.7,278.7 1112.7,260.5 1127.2,260.5 1127.2,264.7 1118.5,264.7 1118.5,267.3 1125.9,267.3 1125.9,271.6 
			1118.5,271.6 1118.5,274.5 1127.6,274.5 1127.6,278.7 		"/>
		<path d="M1134.8,268.3h2.3c1.8,0,2.8-0.5,2.8-1.7c0-1.3-1-1.9-2.4-1.9h-2.7V268.3z M1134.8,272.3v6.4h-5.9v-18.2h8.4
			c6,0,7.9,1.6,7.9,5.2c0,2.1-0.9,3.9-3,4.5c1.9,0.7,3,1.2,3,4.8c0,2.4-0.1,3.2,0.6,3.2v0.6h-5.9c-0.1-0.4-0.3-1.6-0.3-3.2
			c0-2.4-0.4-3.2-3.1-3.2H1134.8z"/>
		<rect x="1147.4" y="260.5" width="5.9" height="18.2"/>
		<path d="M1166.8,267.4c-0.2-1.9-1.3-3-3.2-3c-2.1,0-3.3,1.8-3.3,5.3c0,2.6,0.5,5,3.5,5c1.9,0,2.8-1.3,3-3.1h5.6
			c-0.5,4.7-3.8,7.5-8.5,7.5c-5.9,0-9.5-3.7-9.5-9.6c0-5.9,3.9-9.6,8.9-9.6c5.5,0,8.5,2.8,9,7.4H1166.8z"/>
		<path d="M1181.6,266l-1.8,6.5h3.7L1181.6,266z M1172.3,278.7l6.4-18.2h6l6.4,18.2h-5.8l-0.7-2.4h-5.8l-0.7,2.4H1172.3z"/>
		<path d="M1189.3,267.6c0.7-0.1,1.2-0.4,1.5-0.8c0.3-0.4,0.5-1,0.5-1.7h-2v-4.6h4.5v4c0.1,3.1-2.1,5.2-4.5,5.1V267.6z"/>
		<path d="M1205,265.8c-0.1-0.6-0.4-1-0.8-1.2c-0.4-0.2-0.9-0.3-1.5-0.3c-1.3,0-1.9,0.4-1.9,1c0,2.7,10.3,1,10.3,7.7
			c0,4.2-3.4,6.3-8.4,6.3c-4.7,0-7.8-2.8-7.9-6.1h5.6c0.1,0.7,0.5,1.1,1,1.4c0.5,0.3,1.1,0.5,1.7,0.5c1.5,0,2.4-0.5,2.4-1.3
			c0-2.8-10.3-0.9-10.3-7.8c0-3.9,3.3-5.8,7.7-5.8c5,0,7.2,2.6,7.6,5.8H1205z"/>
		<path d="M1225,268.5l-0.3,2.2h2.1l0.3-2.2H1225z M1231.3,273.1h-2.5l-0.8,5.6h-2.2l0.8-5.6h-2.1l-0.8,5.6h-2.2l0.8-5.6h-2.5v-2.4
			h2.8l0.3-2.2h-2.5v-2.4h2.8l0.7-5.3h2.2l-0.7,5.3h2.1l0.7-5.3h2.2l-0.7,5.3h2.2v2.4h-2.6l-0.3,2.2h2.2V273.1z"/>
		<path d="M1244.4,278.7h-5.2v-10.4h-4v-3.6c2.7-0.1,4.7-1,5.3-4.1h3.9V278.7z"/>
		<polygon points="1256.8,278.7 1256.8,260.5 1262.7,260.5 1262.7,266.6 1268.2,266.6 1268.2,260.5 1274.1,260.5 1274.1,278.7 
			1268.2,278.7 1268.2,271.6 1262.7,271.6 1262.7,278.7 		"/>
		<path d="M1281.4,269.5c0,2.3,0.7,5.2,3.5,5.2c2.5,0,3.5-2.2,3.5-5.2c0-2.5-1-5.1-3.6-5C1282.2,264.4,1281.4,267.2,1281.4,269.5
			 M1294.3,269.5c0,6.2-4.1,9.7-9.4,9.7c-5.6,0-9.4-3.5-9.4-9.8c0-5.7,3.8-9.4,9.4-9.4C1291.3,260,1294.3,264.7,1294.3,269.5"/>
		<polygon points="1295.5,278.7 1295.5,260.5 1302.6,260.5 1305.7,271.8 1308.9,260.5 1315.9,260.5 1315.9,278.7 1310.7,278.7 
			1310.7,273.1 1310.8,270.3 1311,267 1311,267 1307.7,278.7 1303.7,278.7 1300.4,267 1300.4,267 1300.6,269.7 1300.7,272.5 
			1300.7,278.7 		"/>
		<polygon points="1318.1,278.7 1318.1,260.5 1332.6,260.5 1332.6,264.7 1323.9,264.7 1323.9,267.3 1331.3,267.3 1331.3,271.6 
			1323.9,271.6 1323.9,274.5 1333,274.5 1333,278.7 		"/>
		<path d="M1347.5,271.1v3.4h2.6c1.4,0,2.5-0.3,2.5-1.7c0-1.6-1.4-1.7-3.2-1.7H1347.5z M1347.5,264.7v3h2.4c1.2,0,2-0.5,2-1.6
			c0-1.4-1.1-1.4-2.4-1.4H1347.5z M1341.7,278.7v-18.2h8.5c4,0,7.2,1,7.2,4.6c0,1.9-1.2,3.2-2.3,4c1.9,0.5,3,2.2,3,4.2
			c0,4.1-3.1,5.5-7.7,5.5H1341.7z"/>
		<path d="M1359.7,260.5h5.9v10.9c0,1.8,0.3,3.3,2.8,3.3c2.1,0,2.7-1.4,2.7-3.3v-10.9h5.9v10.3c0,5.9-2.7,8.4-8.6,8.4
			c-5.5,0-8.6-2.2-8.6-8.4V260.5z"/>
		<polygon points="1390,278.7 1384.1,278.7 1384.1,272.1 1377.5,260.5 1384,260.5 1387.1,266.6 1390.2,260.5 1396.6,260.5 1390,272 
					"/>
		<polygon points="1397.4,278.7 1397.4,260.5 1411.9,260.5 1411.9,264.7 1403.2,264.7 1403.2,267.3 1410.6,267.3 1410.6,271.6 
			1403.2,271.6 1403.2,274.5 1412.3,274.5 1412.3,278.7 		"/>
		<path d="M1419.5,268.3h2.3c1.8,0,2.8-0.5,2.8-1.7c0-1.3-1-1.9-2.4-1.9h-2.7V268.3z M1419.5,272.3v6.4h-5.9v-18.2h8.4
			c6,0,7.9,1.6,7.9,5.2c0,2.1-0.9,3.9-3,4.5c1.9,0.7,3,1.2,3,4.8c0,2.4-0.1,3.2,0.6,3.2v0.6h-5.9c-0.1-0.4-0.3-1.6-0.3-3.2
			c0-2.4-0.4-3.2-3.1-3.2H1419.5z"/>
	</g>
	<g>
		<path class="st4" d="M1062.9,287.8h-0.6v-5.6h2.1c0.9,0,1.5,0.8,1.5,1.5c0,0.8-0.8,1.5-1.5,1.5h-1.4v2.6H1062.9z M1062.9,284.6
			h1.4c0.5,0,0.9-0.5,0.9-0.9s-0.5-0.9-0.9-0.9h-1.4V284.6z"/>
		<polygon class="st4" points="1064.3,284.6 1063.7,285.1 1065.4,287.8 1066.1,287.8 		"/>
		<path class="st4" d="M1064,289.3c-2.4,0-4.4-2-4.4-4.4s2-4.4,4.4-4.4c2.4,0,4.4,2,4.4,4.4S1066.4,289.3,1064,289.3z M1064,281.1
			c-2.1,0-3.8,1.7-3.8,3.8s1.7,3.8,3.8,3.8c2.1,0,3.8-1.7,3.8-3.8S1066.1,281.1,1064,281.1z"/>
	</g>
	<g>
		<path class="st4" d="M1435.2,194.8h-0.6v-5.6h2.1c0.9,0,1.5,0.8,1.5,1.5c0,0.8-0.8,1.5-1.5,1.5h-1.4v2.6H1435.2z M1435.2,191.6
			h1.4c0.5,0,0.9-0.5,0.9-0.9c0-0.5-0.5-0.9-0.9-0.9h-1.4V191.6z"/>
		<polygon class="st4" points="1436.5,191.6 1435.9,192 1437.6,194.8 1438.4,194.8 		"/>
		<path class="st4" d="M1436.2,196.3c-2.4,0-4.4-2-4.4-4.4c0-2.4,2-4.4,4.4-4.4c2.4,0,4.4,2,4.4,4.4S1438.7,196.3,1436.2,196.3z
			 M1436.2,188.1c-2.1,0-3.8,1.7-3.8,3.8c0,2.1,1.7,3.8,3.8,3.8s3.8-1.7,3.8-3.8C1440,189.8,1438.4,188.1,1436.2,188.1z"/>
	</g>
	<g>
		<path class="st0" d="M1039.9,136.6c0,4.2-2.2,7-3.5,10.7h-0.5c-1.4,0.8-2.4,1.4-3.3,1.4c0,1.4-1.4,0.8-2.4,1.7
			c-2.2-1.4-2.7,2.3-4.9,0.8h-0.3l-0.5,0.6c-0.3,0-0.3-0.3,0-0.6c-0.5-0.8-0.8-1.1-1.1-1.1c-1.9-1.4-0.7,1.4-2.1,0.3
			c-1.1-0.3-1.4-1.4-2.2-0.3c-1.1-0.3-0.3-1.7-1.1-1.7c-3-3.1-0.1,3.1-2.8,0.3c0-0.3,0.8-0.6,0-1.4c-1.1,0-0.3-1.1-1.6-1.4
			c-4.4,0-0.5-3.9-3-4.8c1.1-6.5-1.4-12.1-2.2-18.6c0,0.3-0.3,0-1.1-0.6c-0.8-5.3-0.3-10.7-0.3-16.6l-0.3-0.6
			c-6.5,0.8-13.9,0.6-20.4,0.3l-0.5,0.3l-0.5,12.7c0,1.4,0,3.4-1.1,4.8c-1.1,3.7-2.4,7-3.8,10.1c-0.3,0-0.3-0.3-0.5-0.3
			c-1.9,3.1-2.2,5.9-3.3,9.6c-1.4-0.8-2.4,0.3-3.8,1.4c-0.3,2.3-1.9-0.3-3.3,0.6c-0.3,0,0.3,0.8-0.8,1.1c1.1-2.3-1.9-2-2.7-2.8
			c-0.3,0-0.5,0.3-0.5,0.6c-0.8-0.8-0.3-1.4-1.4-2.3c-0.8,0.3,0.6,0.3-0.2,0.6c0,0,0,0.6,0.3,1.4l-0.8-0.3v1.1
			c-1.1-1.1,1.7-3.1-0.2-3.9c-0.3,0-0.3,0.6-0.3,1.4l0.6-2c-1.9-2-2.7,0.8-4.6,0.8c-0.3-0.3,1.4,0,0.3-0.8c-0.3,0-0.3-0.3-0.5-0.3
			H958c-1.9-1.1-1.9-2.3-4.1-3.4c-1.1-3.4-2.4-6.8-3.3-10.4c0-2.5-2.4-4.2-1.4-6.8c2.2-22-1.9-46.4-0.5-67.8
			c1.1-11.5-1.4-21.7-0.3-32.6l0.3-1.7l2.4,0.3c1.1-0.3,1.1-0.6,2.2-0.3c0.3,0,0.8,0,1.1-0.3v0.6c0,0,0.3,0,0.8-0.3
			c2.4,0.8,5.4,1.1,7.9,0.3c0.8,0-0.9,0.8-0.1,0.6c3,1.4,0.1-3.4,3.6-2.5l0.5-0.6c1.9,1.1,4.1,7.9,3.3,9.3
			c3.5,13.2,4.1,25.9,7.6,38.3c-0.3,0.8,0.3,1.7,1.1,2.3c0.8,2-1.1,4.8,1.1,5.9l23.9,1.4l0.8-0.3c-0.8-1.1-0.3-1.7-1.1-2.5
			c-3.5-0.3-8.2,0.3-11.7-0.6c4.1,0,8.7,0,12,0.3l-1.9-14.1l0.5-2.3c-0.3-6.5-0.5-12.4,0.3-18.3c1.4-3.4,1.1-7,2.2-10.7
			c0.8-0.8,0.8-2.8,2.2-1.7c1.4-1.1,0-2.8,1.1-3.9c1.4-0.6,1.9-1.7,1.9-3.1c1.6-0.8,2.7-2.3,3-4.2c0.3,0.3,0.8-0.8,1.1-0.8
			c0.8,0,1.1,0,1.1,0.3c1.9-1.1-0.3-5.1,2.7-4.2c0.8,0.3-3.2-0.3-2.1,0.8c1.9,2,3.5,2.8,6,4.8c1.9,2.3,1.1,5.6,4.6,6.5
			c0.8,1.4-2,3.4-0.6,4.2c1.9,0,2.7,1.4,3.8,1.4c1.1,2.5,1.9,4.8,2.2,6.8c-0.5,10.4,0.3,20.5,2.7,30.4c2.4,9.9,4.1,19.7,4.9,29.6
			c0.8,13.2-1.6,25.6,0.3,39.1C1040.5,131,1040.2,134.4,1039.9,136.6z"/>
		<path class="st0" d="M1144.7,99.2c0.7,2-0.2,5.1,0,7.6c-0.9,2.5-0.4,4.2-1.6,6c-0.7,4.7-2.7,9.6-6,14.3c-1.6,2.7-3.1,6-5.8,8
			c-2,2-4,3.8-6.5,5.6h-0.2c-1.8,0.7-3.1,2.7-5.1,2.7c-4.7,1.1-8.5,8-14.3,8c-0.2-0.9-0.7-0.4-1.3-0.4c-0.9,0-0.9-1.3-1.8-1.1
			c0-0.7-0.9-0.2-1.6-1.1c-1.6,0-2.2,1.1-4,0.4c-2.9-0.9-5.1,1.6-7.6,2.7c0.7-0.7,2.5-1.3,3.3-2.5c-2.7,0-4.9,2.2-7.6,2
			c0-1.1-2-2.5-0.2-4c-1.1-0.7-2.7,0.9-4.2,0.9c0.7-0.9,0-1.1,0-1.8c0-2.5,2.7-4,1.8-6c0.2-0.4,0.4-0.9,0.4-1.6
			c-1.1,0.4-2,0.4-2.7,0c-0.9-0.7,0.4-1.3,0.7-2c-1.8,0-3.1,0-4,0.2c0-2.9,3.8-4.5,4.5-7.1c-2.7-0.7-5.1-0.2-7.6,0.9
			c-3.6-0.9-6.7-0.2-10.3-2c-0.2,0.2-0.7,0.2-1.3,0.2c-0.7-0.2-2-1.6-3.1-1.6c-0.4-1.1-1.3-1.8-2.7-2.2c0.9-1.6-1.1-1.1-1.3-2
			c-1.1-0.9-1.8-2.7-2.7-3.6c0.2-1.8-1.3-2-1.6-3.6c-0.9-3.6-1.8-7.4-0.9-11.2l-0.7-0.2c0.7-14.1,7.1-25.5,15.8-35.5
			c-8,9.6-13.8,19.6-15,32.1c2.5-10.5,6.7-20.1,13.8-28.1c1.1-0.4,9.2-11.2,10.7-11.2c0.9-0.7,2-2,2.9-2.9c2.7-2,8-8.3,9.6-9.4
			c-0.7-0.9,0.2-2.7-0.9-3.6c0-0.7,0.9,0.7,1.1-0.2c-0.7-1.6,1.6-2.7-0.2-3.8c0.9,0.2,1.6-0.2,2-1.1c-0.9-0.7,0.9-0.2,0.2-0.9
			c0.7-1.8,1.6-2.7,2.5-2.7c-0.2-0.9,2.2,0,1.3-1.1c0,0,0.2,0.2,0.7,0.4v-0.7V36c0.2-0.7,0.9,0,1.6-0.7c2.5,0,4.5,0.2,6,0.9l0.7-0.2
			c0,0.2,0.2,0.4,0.7,0.4l0.9-0.2v0.2h1.1l-1.1,0.4c2.7,0.9,4.9,2.2,7.6,3.3h1.3c-0.2,0.2,0,0.7,0.4,0.9c1.3-0.7,2.2-0.2,2.5,1.3
			c4.5,2.9,9.2,6,12.5,10.3c-0.2,1.6,1.3,0.2,1.1,1.3c5.1,6.3,8.9,12.7,11.6,20.1c-0.7,1.1,0.9,1.3,0.9,2.5
			c1.8,6.5,3.6,13.2,3.8,20.3C1144.2,97.8,1144.7,98.5,1144.7,99.2z M1115,80h-0.2c-1.8-2.7-4.2-4.7-6-7.4c-0.9-0.2,0-1.3-0.9-1.1
			c-2.5-1.8-4-4.5-6.7-5.6c-10.5,10.7-20.5,20.5-25.7,33.9h-0.2c0.2,1.1-1.1,1.6-0.9,3.6c-0.2,2,0.9,3.6,2.7,5.4
			c5.6,4.9,11.4,8,17.9,9.4c6-2.9,12.5-5.4,17.6-11.6c4.2-6.3,6.3-13.6,4.2-21.4C1115.9,83.3,1115,81.7,1115,80z"/>
		<path class="st0" d="M1235.8,148c-0.9,0.2-1.1,0.7-0.7,1.6h-0.4c-0.2-0.7-1.1-0.4-1.8-0.4v1.3c0-1.6-0.7-1.1-1.6-2
			c-0.7,0.9,0,1.1,0,2c-0.4,0.7-0.4,0.9,0,0.9c-0.4,0.2-1.1,0-2-0.9c-0.9,0.7,0,0.7,0,1.3c-0.7-1.3-1.8-2-3.6-2
			c-0.7,0.9,1.1,2-0.4,2c-0.9-1.6-1.3-0.4-2.9-2v-0.7c-0.4,0-0.7,0.2-0.7,0.4v-0.4c-1.6,0-0.9,1.3-0.9,2.2c-0.7-0.9,0.2-2.2-1.3-2.2
			c-1.6,0-3.3,2-4.9,0h-0.7c-2.7-2-3.8-1.8-4.9-5.4c-1.1-4-0.4-1.3-1.6-5.4c-1.6,0-1.1,1.3-2.7,1.3l-4,1.3
			c-10.7,3.3-21.9,2.2-25.5,1.3c-2.9-1.1-5.4-2.5-8.3-3.1c-1.1-1.6-3.6-2.9-4.2-4.7c-3.8-3.8-6.9-7.4-7.6-12.7
			c-1.6-6.3,0.2-11.2-1.3-16.7c-1.1-6.9,0-40.9,0-43.1c1.6-6.9,2.7-15.8,5.6-21.9c1.6,0.7,1.6,1.8,1.6,2.7l1.1-2.7l-0.7,2.7
			c1.6-2.5,3.3-4.2,4.9-6c0.7,0,1.3,1.1,1.3,1.8l0.9,3.3c1.6-0.9,0.7-2.5,2.7-2.5v-0.9c1.6,0.9,1.3,0.2,2.2-0.4
			c1.6,0,3.3-0.2,4.9,0.4l2-1.3c1.8,6.9-0.4,12.7-2.5,18.8c-2.7,12.7-2.9,56.5,8,62.5c5.4,3.3,12.5,1.6,18.8,1.8h0.9
			c-1.1-2.9-3.1-38.6-3.1-51.8c0.9-6.5,1.1-12.3,3.1-19.2c1.8-1.6-0.2-3.1,0.4-4.7v-1.3c1.6,0.9,1.3-1.3,2.9-1.1
			c0.9-1.6,5.1,1.3,6.7-0.2c0.2,0.2,0.2,0.4,0.2,0.9c1.6-1.1,2.7-1.3,3.6-0.9v0.2h0.2c0,0,0.2,0,0.7-0.2c-0.2,0-0.4,0-0.4-0.2
			c0-0.7,0.2-0.9,0.4-1.1c1.6,0.7,1.8,2,2.7,2.7c1.6,0.9,1.1,2,2.7,2.7v4c0.9,13.8,4.2,71,7.1,78.6c0.7,5.4-0.2,2.2,0.4,7.4
			c0.9,1.6,1.8,3.1,1.8,4.7c1.1,3.8,1.1,4.5,4,7.8v0.7l-1.3,0.2C1237.8,149.6,1236.5,148.9,1235.8,148z"/>
		<path class="st0" d="M1268.4,170.6l-0.9-1.1c-0.2,0.9-0.7,0-0.9,0.7c0.9-1.6-1.6-1.1-1.3-2.7c-0.7-1.8,1.3-3.3,0.7-5.1
			c-0.9-0.7-1.1,0.2-1.3,0.2c-0.4,0.4-0.7,0.7-0.9,0.4l-0.2-1.1c-4,1.1-1.1,0-4.2,1.8c1.1-4.2,1.3-2.5,2.5-6.7
			c-0.2-0.2-0.7-0.4-0.9-0.4c-3.8,2.7-0.9-0.2-4.5,3.3c2-4.7,0.7-1.3,3.6-6l-1.3,1.6c-4.2,2.9-1.6,2-5.8,4.9
			c3.1-5.4,3.1-5.8,6.9-10.7c1.6-3.3,3.8-6.5,5.6-10c6.7-21.2-19.2-36.4-19.9-38.8c0-0.7-0.2-1.1-0.9-1.8c-2.9-6.7-4.7-13.6-5.1-21
			c-0.4-7.4,2.2-15.6,7.8-24.8c3.6-6.3,8.5-10.9,13.8-15.6c3.8-2.7,8.5-5.1,12.9-7.1c0-1.6,1.3-1.3,2.2-2.9l2.2,0.7
			c1.8,0.7,3.3,1.8,5.4,1.1c0,0.7,0.4,0,1.1,0.2l1.3-0.7c0.9,0.9,0,0,0,1.6c1.6,0.7,3.3-2,4.5,0c0.2,0,1.3,0,1.1,0.7
			c0.7-0.2,1.8,0.7,2-0.2c2.7,2.9-1.6,5.4-1.8,7.8c-0.9,2.9-1.3,5.8-7.4,12.1c-0.7,0.7-2.2,0.7-2.2,1.6s-1.1,2-2,3.1
			c-1.3,0-6.5,9.6-5.4,21c2.5,10.9,15.2,14.7,21.9,36.4c2.9,10,2.7,29.5-20.8,52.9C1272.9,167.2,1272.2,170.6,1268.4,170.6z"/>
		<path class="st0" d="M1381.1,65.2l0.4,0.2c-4.2,0.9-6.5,2.5-10.9,3.3c-2.9,1.6-5.8,3.3-8.7,4.2c-7.1,2.5-13.8,4.5-22.1,4.7
			l-0.2,0.2c0,2.9-0.7,5.1,0,8c3.6-0.7,7.8-0.4,11.4-0.2c-3.3,0-8-0.2-11.8,0.9c0,0,0.4-0.2,0.4,0.4c6-0.7,11.2-0.4,17.4-0.4l4,0.9
			c0,0.7,0.4,1.1,1.1,0.9c0.2,0.7-0.2,1.3,0.4,2.2h1.1c-0.2,0-0.2,0-0.2,0.2c0,0.4,0,0.7,0.2,0.7l0.9,0.4c-0.2,0.9-0.4,1.8-0.2,2.5
			c0.2,1.1,1.6-0.2,1.6,0.4c-0.7,0.7-1.8,0.7-1.1,1.3c0,1.1,2,0.9,1.1,2c0.7,0.7-0.2,1.1,0.7,1.3h0.4c-0.2,0.7-0.4,1.3-0.2,1.6
			c0,0,0.2,0,0.4,0.2c-0.7,0.9-2,1.8-1.3,2.9c0,0.7-0.4,0.2-0.7,0.9l1.3,1.6l-2.9,1.8c0.2,0.7,0.2,0.9-0.2,0.9
			c0.9,0.7,2,0.4,2.9,0.7c0,0.7-0.2,0.9-0.9,0.9c-4.5,0-6.7,3.6-11.2,2.9c-4.5,0.7-9.2-0.2-13.4,0.4l-0.7,0.2l0.4,5.4
			c7.1,0.7,13.4,2.9,20.8,3.8c-7.4-0.7-13.6-3.3-20.8-2.7c-0.2,0-0.4,0.2-0.4,0.9c6.5,0.9,13.2,1.6,19.2,4c1.8-0.7,1.3,0.7,2.2,1.6
			c0,0.7-0.4,0.9,0.2,1.6h0.4l-0.9,0.7c0.7,0.9,1.6,0.2,1.6,0.9c0.9-0.2,0.9,0.7,1.6,1.3c-1.1,1.8,2.2,1.1,1.1,3.1
			c-0.7,0.9-2,0-2.7,0.7c-0.9,0.7,0.2,0.9-0.7,1.1l0.7-0.2c-0.9,1.8,1.3,4.5-1.3,5.6c0.7,0.9-1.3,2.5,0.4,3.1
			c0.2,0.9-0.4,1.1-1.1,1.8c-0.4-0.2-0.9-0.2-1.1,0c-0.2,0.7-0.4,0.9-0.4,0.9c0.7,0.2,1.6,0.9,0.9,1.8c0.4,0,0.9,0.2,1.6,0.7
			c-2.7,1.1-5.6,0.2-8.3,1.1c-5.1,0.7-8.7-1.1-12.9-1.8c-7.8-1.1-15.6,0-21.9-4.5v-0.2c0-1.6-2.2-1.8-2.2-3.6c-1.1,0,0-1.6-1.8-1.6
			c-0.7-0.7-1.1-0.4-1.3,0.2c0-0.7-0.2-1.1-0.9-1.1c-1.1,0-1.6-0.2-1.6-0.9c0-0.2-0.2-0.4-0.7-0.7c-0.2-0.2-0.4,0.2-0.7,0.2l0.2,0.7
			c-1.6-3.8,0.2-8.3-1.3-12.7c0.2-13.4-0.4-26.3-0.4-40c0-3.3,0.9-6.5,1.6-9.8c0-0.9-1.6-0.7-1.6-1.8c-0.7-0.9,0.9-1.1,0.9-1.8
			c0.9-2,0.2-4.7,1.8-6.5c0.2-1.6-1.1-2.9,0.4-4.5c-1.3-2.5,2.9-2.2,0.2-4.9c0.7-0.7-1.6-1.3,0-2.2c5.1-4.7,12.1-2.9,18.5-4.2
			c8.7-2,17.4-1.8,26.6-2.7v-0.4h1.1c1.1-0.2,2-0.4,2.7-0.7c0.9,0.7,2-0.4,3.1-0.4c0,0.7-1.1,0.9,0,1.6c3.8-1.1,7.4-0.4,11.2-1.1
			c0.7,0.7,0.9-0.2,1.6,0.4c-0.7,0.9-0.9,1.1,0,2.2c0,0.2,0.4,0.2,1.1,0.2c0,0.7-0.2,0.4-0.2,0.4c1.1,0.7,2.7,0,3.8,0
			c-0.2,1.1-0.7,1.1-0.9,2.7c-0.7,0.4-0.7,0.9-0.4,1.6c0.9,1.6,1.8,0.2,2.7,0.4c0,0.7,0.2,0.9,0.9,1.1c-0.7,0.7-0.9,1.1-0.9,1.3
			c0.9,0.7-0.2,0.7,0.4,0.9l0.7,0.7l-0.2,0.2l0.9,0.2c-0.2,0.7-1.8,1.3,0,2.2c-0.2,0-0.4,0.2-1.1,0.7c0,0.7,0.4,1.6,1.1,2.2
			C1382.3,63.9,1382.3,64.5,1381.1,65.2z"/>
		<path class="st0" d="M1416.6,170.6l-0.9-1.1c-0.2,0.9-0.7,0-0.9,0.7c0.9-1.6-1.6-1.1-1.3-2.7c-0.7-1.8,1.3-3.3,0.7-5.1
			c-0.9-0.7-1.1,0.2-1.3,0.2c-0.4,0.4-0.7,0.7-0.9,0.4l-0.2-1.1c-4,1.1-1.1,0-4.2,1.8c1.1-4.2,1.3-2.5,2.5-6.7
			c-0.2-0.2-0.7-0.4-0.9-0.4c-3.8,2.7-0.9-0.2-4.5,3.3c2-4.7,0.7-1.3,3.6-6l-1.3,1.6c-4.2,2.9-1.6,2-5.8,4.9
			c3.1-5.4,3.1-5.8,6.9-10.7c1.6-3.3,3.8-6.5,5.6-10c6.7-21.2-19.2-36.4-19.9-38.8c0-0.7-0.2-1.1-0.9-1.8c-2.9-6.7-4.7-13.6-5.1-21
			c-0.4-7.4,2.2-15.6,7.8-24.8c3.6-6.3,8.5-10.9,13.8-15.6c3.8-2.7,8.5-5.1,12.9-7.1c0-1.6,1.3-1.3,2.2-2.9l2.2,0.7
			c1.8,0.7,3.3,1.8,5.4,1.1c0,0.7,0.4,0,1.1,0.2l1.3-0.7c0.9,0.9,0,0,0,1.6c1.6,0.7,3.3-2,4.5,0c0.2,0,1.3,0,1.1,0.7
			c0.7-0.2,1.8,0.7,2-0.2c2.7,2.9-1.6,5.4-1.8,7.8c-0.9,2.9-1.3,5.8-7.4,12.1c-0.7,0.7-2.2,0.7-2.2,1.6s-1.1,2-2,3.1
			c-1.3,0-6.5,9.6-5.4,21c2.5,10.9,15.2,14.7,21.9,36.4c2.9,10,2.7,29.5-20.8,52.9C1421.1,167.2,1420.4,170.6,1416.6,170.6z"/>
		<path class="st4" d="M1455.9,44h-1.4V31.5h4.7c2,0,3.4,1.7,3.4,3.4s-1.7,3.4-3.4,3.4h-3.1V44H1455.9z M1455.9,36.9h3.1
			c1,0,2-1,2-2s-1-2-2-2h-3.1V36.9z"/>
		<polygon class="st4" points="1458.9,36.9 1457.6,37.9 1461.3,44 1463,44 		"/>
		<path class="st4" d="M1458.2,47.4c-5.4,0-9.8-4.4-9.8-9.8c0-5.4,4.4-9.8,9.8-9.8c5.4,0,9.8,4.4,9.8,9.8S1463.7,47.4,1458.2,47.4z
			 M1458.2,29.1c-4.7,0-8.5,3.7-8.5,8.5s3.7,8.5,8.5,8.5s8.5-3.7,8.5-8.5S1463,29.1,1458.2,29.1z"/>
	</g>
</g>
</svg>
