<svg xmlns="http://www.w3.org/2000/svg" width="13.767" height="22.137" viewBox="0 0 13.767 22.137"><g transform="translate(-0.387 -0.573)"><path d="M4.934,8.246c-.13-.747,0-.877,0-.877L6.689,6.232A1.051,1.051,0,0,0,7.111,4.9L5.746,1.715a1.034,1.034,0,0,0-1.2-.585l-1.267.325a1.518,1.518,0,0,0-.325.162C-.1,3.535.873,8.961,2.887,13.705c1.95,4.614,5.2,9.325,8.741,8.351a1.154,1.154,0,0,0,.292-.13l1.2-.682a1.028,1.028,0,0,0,.422-1.267L12.18,16.792a1.08,1.08,0,0,0-1.267-.617l-2.047.455S8.151,16.6,6.3,12.276A26.464,26.464,0,0,1,5.1,8.929c-.065-.292-.13-.52-.162-.682" transform="translate(0 0)" fill="#ee3e33" stroke="#ee3e33" stroke-linecap="square" stroke-miterlimit="10" stroke-width="1"/></g></svg>