<?xml version="1.0" encoding="UTF-8"?>
<svg id="Layer_1" data-name="Layer 1" xmlns="http://www.w3.org/2000/svg" version="1.1" viewBox="0 0 300 300">
  <defs>
    <style>
      .cls-1 {
        fill: #ffdd05;
      }

      .cls-1, .cls-2 {
        stroke-width: 0px;
      }

      .cls-2 {
        fill: #197d7b;
      }
    </style>
  </defs>
  <path class="cls-1" d="M222.71,121.73c2.34,22.07-7.96,41.98-24.88,54.09-5.01,3.58-8.02,9.32-8.02,15.47v17.35c0,10.95-9.4,19.83-21,19.83h-24.42c-11.6,0-21-8.88-21-19.83v-21.83c0-5.63-2.57-10.89-6.83-14.57-12.7-10.97-20.67-26.75-20.67-44.3,0-34.6,31-62.37,68.21-59.88,30.54,2.04,55.58,24.91,58.63,53.68Z"/>
  <g>
    <path class="cls-2" d="M179.77,201.96c-.1,0-.21,0-.31-.02-1.8-.17-3.12-1.77-2.95-3.57l.39-4.1c1.51-11.38,6.83-21.85,15.41-30.42,11.21-11.2,17.39-26.06,17.39-41.84,0-16.79-7.21-32.87-19.78-44.11-12.88-11.52-29.55-16.81-46.95-14.88-27.05,3.01-49.09,24.63-52.42,51.42-2.35,18.89,4.16,37.23,17.85,50.32,8.74,8.36,13.99,19.89,14.78,32.47l.09,1.19c.14,1.8-1.21,3.37-3.01,3.52-1.82.12-3.38-1.21-3.52-3.01l-.1-1.24c-.69-10.98-5.22-20.98-12.78-28.2-15.2-14.54-22.42-34.9-19.82-55.85,3.7-29.76,28.17-53.78,58.19-57.12,18.97-2.13,37.96,3.9,52.03,16.5,13.95,12.49,21.96,30.34,21.96,48.99,0,17.53-6.86,34.04-19.31,46.47-7.55,7.54-12.23,16.71-13.53,26.53l-.38,3.98c-.16,1.69-1.59,2.96-3.25,2.96Z"/>
    <path class="cls-2" d="M149.8,42.65c-1.81,0-3.27-1.46-3.27-3.27v-14.96c0-1.81,1.47-3.27,3.27-3.27s3.27,1.46,3.27,3.27v14.96c0,1.81-1.47,3.27-3.27,3.27Z"/>
    <path class="cls-2" d="M250.28,140.53h-12.89c-1.81,0-3.27-1.46-3.27-3.27s1.47-3.27,3.27-3.27h12.89c1.81,0,3.27,1.46,3.27,3.27s-1.47,3.27-3.27,3.27Z"/>
    <path class="cls-2" d="M223.97,76.35c-.87,0-1.74-.35-2.39-1.03-1.24-1.32-1.17-3.39.15-4.63l10.42-9.77c1.31-1.23,3.39-1.17,4.63.15,1.24,1.32,1.17,3.39-.15,4.63l-10.42,9.77c-.63.59-1.43.89-2.24.89Z"/>
    <path class="cls-2" d="M74.51,76.92c-.83,0-1.66-.31-2.3-.94l-8.76-8.62c-1.29-1.27-1.3-3.34-.04-4.63,1.27-1.28,3.34-1.3,4.63-.04l8.76,8.62c1.29,1.27,1.3,3.34.04,4.63-.64.65-1.49.97-2.33.97Z"/>
    <path class="cls-2" d="M62.61,140.66h-12.89c-1.81,0-3.27-1.46-3.27-3.27s1.47-3.27,3.27-3.27h12.89c1.81,0,3.27,1.46,3.27,3.27s-1.47,3.27-3.27,3.27Z"/>
    <path class="cls-2" d="M179.18,219.02h-58.9c-1.81,0-3.27-1.46-3.27-3.27s1.47-3.27,3.27-3.27h58.9c1.81,0,3.27,1.46,3.27,3.27s-1.47,3.27-3.27,3.27Z"/>
    <path class="cls-2" d="M179.18,232.2h-58.9c-1.81,0-3.27-1.46-3.27-3.27s1.47-3.27,3.27-3.27h58.9c1.81,0,3.27,1.46,3.27,3.27s-1.47,3.27-3.27,3.27Z"/>
    <g>
      <g>
        <path class="cls-2" d="M130.98,171.71c-8.29,0-15.08-5.77-15.52-13.01-6.46-3.11-10.52-9.03-10.52-15.64,0-1.13.13-2.27.38-3.39-5.32-3.95-8.32-10.01-8.32-16.99s3.23-13.47,8.95-17.42c-.07-.58-.1-1.15-.1-1.71,0-6.19,3.7-11.92,9.6-15.15.15-7.46,7.06-13.5,15.54-13.5s15.54,6.17,15.54,13.75v16.28c0,2.17-.63,4.27-1.83,6.07l-1.09,1.63c-.31.47-.26,1.12.13,1.52l.28.28c1.62,1.66,2.51,3.86,2.51,6.2v20.45c0,1.7-.49,3.35-1.41,4.76-.42.65-.45,1.5-.06,2.17l.32.56c.75,1.32,1.15,2.82,1.15,4.33v5.02c0,7.58-6.97,13.75-15.54,13.75ZM130.98,81.46c-4.96,0-8.99,3.23-8.99,7.21,0,.38.05.75.12,1.11.3,1.53-.54,3.07-1.99,3.65-4.69,1.9-7.73,5.88-7.73,10.13,0,.79.12,1.62.35,2.45.4,1.47-.26,3.02-1.59,3.74-4.9,2.66-7.6,7.25-7.6,12.94s2.58,10.09,7.25,12.76c1.43.81,2.03,2.56,1.41,4.07-.47,1.17-.72,2.36-.72,3.54,0,4.53,3.31,8.62,8.43,10.4,1.49.52,2.4,2.04,2.15,3.6-.05.29-.08.59-.08.89,0,3.97,4.03,7.21,8.99,7.21s8.99-3.23,8.99-7.21v-5.02c0-.38-.1-.76-.29-1.09l-.32-.56c-1.61-2.82-1.51-6.27.26-8.99.23-.35.35-.76.35-1.19v-20.45c0-.61-.24-1.2-.65-1.63l-.28-.29c-2.53-2.59-2.91-6.69-.89-9.72l1.09-1.63c.48-.72.73-1.56.73-2.43v-16.28c0-3.97-4.03-7.21-8.99-7.21Z"/>
        <path class="cls-2" d="M121.52,99.92c-.91,0-1.82-.38-2.46-1.12-2.28-2.61-3.44-5.44-3.44-8.41,0-1.81,1.47-3.27,3.27-3.27s3.27,1.46,3.27,3.27c0,1.36.6,2.7,1.82,4.1,1.19,1.36,1.05,3.43-.31,4.62-.62.54-1.39.81-2.15.81Z"/>
        <path class="cls-2" d="M106.13,112.55c-.98,0-1.94-.43-2.59-1.27-1.11-1.43-.85-3.48.58-4.59,4.95-3.84,11.17-5.02,16.81-3.5.78.21,1.55.47,2.29.78,1.67.68,2.48,2.59,1.79,4.27-.68,1.67-2.6,2.48-4.27,1.79-.49-.2-1-.37-1.52-.51-3.71-1.01-7.73-.26-11.1,2.35-.6.46-1.3.69-2.01.69Z"/>
        <path class="cls-2" d="M141.42,119.78c-.85,0-1.7-.33-2.34-.99-.77-.79-1.91-1.12-2.92-.91-1.78.35-3.5-.77-3.87-2.54-.37-1.77.77-3.5,2.54-3.87,3.18-.66,6.6.37,8.93,2.75,1.26,1.29,1.24,3.36-.05,4.63-.64.62-1.46.93-2.29.93Z"/>
        <path class="cls-2" d="M114.12,142.6c-3.38,0-6.59-1.1-9.27-3.17-1.43-1.11-1.7-3.16-.59-4.59,1.11-1.43,3.16-1.68,4.59-.59,1.53,1.18,3.36,1.81,5.28,1.81,1.81,0,3.27,1.46,3.27,3.27s-1.47,3.27-3.27,3.27Z"/>
        <path class="cls-2" d="M138.28,150.99c-1.3,0-2.52-.77-3.04-2.05-.67-1.68.14-3.58,1.82-4.26.87-.35,1.61-.95,2.16-1.74,1.02-1.49,3.07-1.86,4.55-.83,1.49,1.03,1.86,3.06.83,4.55-1.28,1.85-3.04,3.26-5.1,4.09-.4.16-.81.24-1.22.24Z"/>
        <path class="cls-2" d="M118.83,159.83c-.91,0-1.82-.38-2.47-1.12-1.19-1.36-1.05-3.43.31-4.62l2.68-2.35c1.37-1.19,3.43-1.04,4.62.31,1.19,1.36,1.05,3.43-.31,4.62l-2.68,2.35c-.62.54-1.39.81-2.15.81Z"/>
      </g>
      <g>
        <path class="cls-2" d="M168.79,171.71c-8.57,0-15.54-6.17-15.54-13.75v-5.02c0-1.51.4-3.01,1.15-4.33l.32-.57c.39-.67.36-1.53-.06-2.18-.92-1.41-1.41-3.06-1.41-4.76v-20.45c0-2.34.89-4.54,2.52-6.21l.27-.28c.39-.4.44-1.05.13-1.52l-1.09-1.63c-1.2-1.79-1.83-3.89-1.83-6.06v-16.28c0-7.58,6.97-13.75,15.54-13.75s15.38,6.03,15.54,13.5c5.9,3.23,9.6,8.96,9.6,15.15,0,.57-.03,1.14-.1,1.71,5.72,3.95,8.95,10.17,8.95,17.42s-3,13.04-8.32,16.99c.25,1.12.38,2.25.38,3.39,0,6.61-4.06,12.53-10.52,15.64-.44,7.24-7.23,13.01-15.52,13.01ZM168.79,81.46c-4.96,0-8.99,3.23-8.99,7.21v16.28c0,.87.25,1.71.73,2.43l1.09,1.64c2.02,3.03,1.65,7.12-.89,9.72l-.28.28c-.42.43-.65,1.02-.65,1.63v20.45c0,.43.12.84.35,1.19,1.77,2.73,1.87,6.17.26,8.99l-.32.56c-.19.33-.29.7-.29,1.09v5.02c0,3.97,4.03,7.21,8.99,7.21s8.99-3.23,8.99-7.21c0-.3-.04-.6-.08-.89-.25-1.56.66-3.08,2.15-3.6,5.12-1.79,8.43-5.87,8.43-10.4,0-1.18-.24-2.37-.72-3.54-.62-1.52-.01-3.26,1.41-4.07,4.68-2.66,7.25-7.19,7.25-12.76s-2.7-10.28-7.6-12.94c-1.34-.73-2-2.28-1.59-3.74.23-.83.35-1.66.35-2.45,0-4.25-3.03-8.23-7.73-10.13-1.45-.58-2.28-2.12-1.99-3.65.07-.36.12-.73.12-1.11,0-3.97-4.03-7.21-8.99-7.21Z"/>
        <path class="cls-2" d="M178.24,99.92c-.76,0-1.53-.27-2.15-.81-1.36-1.19-1.5-3.26-.31-4.62,1.23-1.4,1.82-2.74,1.82-4.1,0-1.81,1.47-3.27,3.27-3.27s3.27,1.46,3.27,3.27c0,2.97-1.16,5.8-3.44,8.41-.65.74-1.55,1.12-2.46,1.12Z"/>
        <path class="cls-2" d="M193.64,112.55c-.7,0-1.41-.22-2.01-.69-3.84-2.98-8.54-3.51-12.61-1.84-1.68.69-3.58-.11-4.27-1.78-.69-1.67.11-3.59,1.79-4.27,6.19-2.54,13.47-1.66,19.11,2.72,1.43,1.11,1.69,3.16.58,4.59-.65.83-1.61,1.27-2.59,1.27Z"/>
        <path class="cls-2" d="M158.34,119.78c-.82,0-1.65-.31-2.29-.93-1.29-1.26-1.32-3.34-.05-4.63,2.32-2.38,5.74-3.41,8.93-2.75,1.77.37,2.91,2.1,2.54,3.87-.37,1.77-2.09,2.9-3.87,2.54-1.01-.21-2.15.13-2.92.91-.64.66-1.49.99-2.34.99Z"/>
        <path class="cls-2" d="M185.65,142.6c-1.81,0-3.27-1.46-3.27-3.27s1.47-3.27,3.27-3.27c1.92,0,3.74-.63,5.28-1.81,1.43-1.1,3.48-.84,4.59.59,1.1,1.43.84,3.49-.59,4.59-2.69,2.07-5.89,3.17-9.27,3.17Z"/>
        <path class="cls-2" d="M161.49,150.99c-.41,0-.82-.08-1.22-.24-2.06-.83-3.82-2.24-5.1-4.09-1.03-1.49-.66-3.52.83-4.55,1.48-1.03,3.52-.66,4.55.83.55.79,1.29,1.39,2.16,1.74,1.68.67,2.49,2.58,1.82,4.26-.51,1.28-1.74,2.05-3.04,2.05Z"/>
        <path class="cls-2" d="M180.93,159.83c-.76,0-1.53-.27-2.15-.81l-2.68-2.35c-1.36-1.19-1.5-3.26-.31-4.62,1.19-1.35,3.25-1.5,4.62-.31l2.68,2.35c1.36,1.19,1.5,3.26.31,4.62-.65.74-1.55,1.12-2.47,1.12Z"/>
      </g>
    </g>
    <path class="cls-2" d="M165.69,244.85h-31.91c-.98,0-2.88-1.27-2.88-3.08s1.9-3.47,2.88-3.47h31.91c.98,0,2.91,1.58,2.91,3.38s-1.93,3.16-2.91,3.16Z"/>
  </g>
</svg>