<svg viewBox="0 0 300 300" xmlns="http://www.w3.org/2000/svg"><rect fill="#ffdd05" height="140.45" rx="9.75" width="203.48" x="55.15" y="67.64"/><g fill="#197d7b" stroke="#197d7b" stroke-miterlimit="10" stroke-width="1.42"><path d="m239.87 201.99h-75.61c-1.74 0-3.15-1.41-3.15-3.15s1.41-3.15 3.15-3.15h75.61c1.74 0 3.15-1.41 3.15-3.15v-126.03c0-1.74-1.41-3.15-3.15-3.15h-189.04c-1.74 0-3.15 1.41-3.15 3.15v126.03c0 1.74 1.41 3.15 3.15 3.15h75.61c1.74 0 3.15 1.41 3.15 3.15s-1.41 3.15-3.15 3.15h-75.61c-5.21 0-9.45-4.24-9.45-9.45v-126.03c0-5.21 4.24-9.45 9.45-9.45h189.04c5.21 0 9.45 4.24 9.45 9.45v126.03c0 5.21-4.24 9.45-9.45 9.45z"/><path d="m145.35 220.89c-12.16 0-22.05-9.89-22.05-22.05s9.89-22.05 22.05-22.05 22.05 9.9 22.05 22.05-9.89 22.05-22.05 22.05zm0-37.81c-8.69 0-15.75 7.07-15.75 15.75s7.07 15.75 15.75 15.75 15.75-7.07 15.75-15.75-7.07-15.75-15.75-15.75z"/><path d="m157.95 242.94c-.48 0-.96-.11-1.41-.33l-11.19-5.6-11.19 5.6c-.98.49-2.14.44-3.07-.14s-1.49-1.59-1.49-2.68v-25.21c0-1.74 1.41-3.15 3.15-3.15s3.15 1.41 3.15 3.15v20.11l8.04-4.02c.89-.44 1.93-.44 2.82 0l8.04 4.02v-20.11c0-1.74 1.41-3.15 3.15-3.15s3.15 1.41 3.15 3.15v25.21c0 1.09-.57 2.1-1.49 2.68-.51.31-1.08.47-1.66.47z"/><path d="m230.42 186.23h-56.71c-1.74 0-3.15-1.41-3.15-3.15s1.41-3.15 3.15-3.15h53.56v-100.82h-163.84v100.82h53.56c1.74 0 3.15 1.41 3.15 3.15s-1.41 3.15-3.15 3.15h-56.71c-1.74 0-3.15-1.41-3.15-3.15v-107.12c0-1.74 1.41-3.15 3.15-3.15h170.13c1.74 0 3.15 1.41 3.15 3.15v107.12c0 1.74-1.41 3.15-3.15 3.15z"/><path d="m211.51 110.62h-132.32c-1.74 0-3.15-1.41-3.15-3.15s1.41-3.15 3.15-3.15h132.33c1.74 0 3.15 1.41 3.15 3.15s-1.41 3.15-3.15 3.15z"/><path d="m211.51 135.82h-132.32c-1.74 0-3.15-1.41-3.15-3.15s1.41-3.15 3.15-3.15h132.33c1.74 0 3.15 1.41 3.15 3.15s-1.41 3.15-3.15 3.15z"/><path d="m211.51 164.18h-37.81c-1.74 0-3.15-1.41-3.15-3.15s1.41-3.15 3.15-3.15h37.81c1.74 0 3.15 1.41 3.15 3.15s-1.41 3.15-3.15 3.15z"/></g></svg>